<svg width="1000" height="1000" viewBox="0 0 1000 1000" fill="none" xmlns="http://www.w3.org/2000/svg">
<g clip-path="url(#clip0_118_12)">
<path fill-rule="evenodd" clip-rule="evenodd" d="M378.806 169.858L273.713 377.592L328.996 501.591L503.488 500.164L645.743 635.123L588.739 835.686C560.416 843.114 530.689 847.069 500.039 847.069C307.27 847.069 151 690.623 151 497.636C151 347.326 245.799 219.181 378.806 169.858ZM419.99 157.437C405.915 160.743 392.168 164.903 378.806 169.858L464.737 0L419.99 157.437ZM632.601 820.986L542.038 1000L588.739 835.686C603.78 831.741 618.424 826.817 632.601 820.986ZM632.601 820.986C759.629 768.735 849.077 643.643 849.077 497.636C849.077 304.65 692.807 148.204 500.039 148.204C472.494 148.204 445.695 151.398 419.99 157.437L361.031 364.877L503.286 499.836L503.144 499.838L503.488 500.164L503.63 500.163L503.286 499.836L677.778 498.409L733.061 622.408L632.601 820.986Z" fill="#DDFF00"/>
</g>
<defs>
<clipPath id="clip0_118_12">
<rect width="1000" height="1000" fill="white"/>
</clipPath>
</defs>
</svg>
