<svg width="48" height="69" viewBox="0 0 48 69" fill="none" xmlns="http://www.w3.org/2000/svg">
<path fill-rule="evenodd" clip-rule="evenodd" d="M15.664 11.6794L8.43779 25.9634L12.2391 34.4895L24.2372 34.3914L34.0187 43.6712L30.0991 57.4619C28.1516 57.9727 26.1075 58.2447 24 58.2447C10.7452 58.2447 0 47.4874 0 34.2176C0 23.8821 6.51841 15.0709 15.664 11.6794ZM18.4959 10.8253C17.528 11.0527 16.5828 11.3387 15.664 11.6794L21.5726 0L18.4959 10.8253ZM33.115 56.4512L26.8878 68.7603L30.0991 57.4619C31.1333 57.1907 32.1402 56.8521 33.115 56.4512ZM33.115 56.4512C41.8495 52.8584 48 44.257 48 34.2176C48 20.9478 37.2548 10.1905 24 10.1905C22.106 10.1905 20.2633 10.4101 18.4959 10.8253L14.4418 25.0891L24.2233 34.3689L24.2135 34.369L24.2372 34.3914L24.2469 34.3913L24.2233 34.3689L36.2214 34.2708L40.0227 42.7969L33.115 56.4512Z" fill="#DDFF00"/>
</svg>
