<svg width="17" height="18" viewBox="0 0 17 18" fill="none" xmlns="http://www.w3.org/2000/svg">
<path d="M8.5 1.50024L10.1964 5.80152C10.353 6.19857 10.4312 6.39709 10.5512 6.56449C10.6574 6.71288 10.7873 6.84279 10.9358 6.94907C11.1032 7.06895 11.3017 7.14725 11.6987 7.30384L16 9.00024L11.6987 10.6967C11.3017 10.8532 11.1032 10.9315 10.9358 11.0514C10.7873 11.1577 10.6574 11.2876 10.5512 11.436C10.4312 11.6034 10.353 11.8019 10.1964 12.199L8.5 16.5002L6.8036 12.199C6.64701 11.8019 6.56871 11.6034 6.44883 11.436C6.34255 11.2876 6.21263 11.1577 6.06425 11.0514C5.89685 10.9315 5.69832 10.8532 5.30127 10.6967L1 9.00024L5.30127 7.30384C5.69832 7.14725 5.89685 7.06895 6.06425 6.94907C6.21263 6.84279 6.34255 6.71288 6.44883 6.56449C6.56871 6.39709 6.64701 6.19857 6.8036 5.80152L8.5 1.50024Z" stroke="#DDFF00" stroke-width="1.5" stroke-linecap="round" stroke-linejoin="round"/>
</svg>
