<svg width="40" height="41" viewBox="0 0 40 41" fill="#DDFF00" xmlns="http://www.w3.org/2000/svg">
<path fill-rule="evenodd" clip-rule="evenodd" d="M40 20.3802C40 31.4259 31.0457 40.3802 20 40.3802C8.9543 40.3802 0 31.4259 0 20.3802C0 9.33449 8.9543 0.380188 20 0.380188C31.0457 0.380188 40 9.33449 40 20.3802ZM20.7167 15.1451C18.7715 15.9542 14.8836 17.6289 9.05318 20.169C8.10642 20.5455 7.61047 20.9139 7.56532 21.274C7.489 21.8827 8.25122 22.1224 9.28915 22.4487C9.43033 22.4932 9.57663 22.5392 9.7266 22.5879C10.7478 22.9199 12.1214 23.3082 12.8355 23.3235C13.4833 23.3375 14.2062 23.0705 15.0044 22.5224C20.452 18.8452 23.264 16.9865 23.4405 16.9465C23.5652 16.9182 23.7377 16.8827 23.8547 16.9866C23.9715 17.0905 23.9602 17.2874 23.9477 17.3402C23.8722 17.662 20.8802 20.4437 19.3318 21.8832C18.8492 22.3319 18.5068 22.6502 18.4368 22.7229C18.28 22.8859 18.1202 23.0399 17.9667 23.1879C17.018 24.1024 16.3066 24.7882 18.006 25.9082C18.8228 26.4464 19.4763 26.8914 20.1283 27.3354C20.8403 27.8204 21.5505 28.304 22.4693 28.9064C22.7035 29.0599 22.927 29.2192 23.1448 29.3744C23.9735 29.9652 24.718 30.4959 25.6377 30.4112C26.1722 30.362 26.7242 29.8595 27.0045 28.3609C27.667 24.8189 28.9693 17.1444 29.2703 13.9818C29.2968 13.7047 29.2637 13.3501 29.237 13.1945C29.2103 13.0388 29.1547 12.817 28.9523 12.6529C28.7127 12.4584 28.3428 12.4174 28.1773 12.4203C27.425 12.4336 26.271 12.8349 20.7167 15.1451Z" />
</svg>
