<svg width="40" height="41" viewBox="0 0 40 41" fill="none" xmlns="http://www.w3.org/2000/svg">
<path d="M39.9671 19.2007C39.2872 7.60232 28.7486 -1.33649 16.6102 0.663249C8.25123 2.04307 1.5521 8.82214 0.252272 17.181C-0.507629 22.0204 0.49228 26.5998 2.672 30.3793L0.892208 36.9984C0.49226 38.4982 1.87204 39.858 3.35185 39.4381L9.87101 37.6383C12.8306 39.3781 16.2902 40.378 19.9897 40.378C31.2682 40.378 40.627 30.4393 39.9671 19.2007ZM29.7684 27.8196C29.5885 28.1796 29.3685 28.5195 29.0885 28.8395C28.5886 29.3794 28.0487 29.7793 27.4487 30.0193C26.8488 30.2793 26.1889 30.3993 25.489 30.3993C24.4691 30.3993 23.3693 30.1595 22.2294 29.6596C21.0696 29.1596 19.9297 28.4995 18.7899 27.6796C17.63 26.8397 16.5502 25.8999 15.5103 24.88C14.4704 23.8401 13.5505 22.7403 12.7106 21.6004C11.8907 20.4606 11.2308 19.3207 10.7509 18.1809C10.271 17.041 10.031 15.9413 10.031 14.9014C10.031 14.2215 10.151 13.5615 10.391 12.9616C10.6309 12.3417 11.0109 11.7818 11.5509 11.2819C12.1908 10.6419 12.8906 10.342 13.6305 10.342C13.9105 10.342 14.1904 10.402 14.4504 10.5219C14.7103 10.6419 14.9504 10.8219 15.1303 11.0819L17.45 14.3614C17.63 14.6214 17.77 14.8414 17.85 15.0613C17.95 15.2813 17.99 15.4813 17.99 15.6812C17.99 15.9212 17.91 16.1612 17.77 16.4011C17.63 16.6411 17.45 16.881 17.2101 17.121L16.4502 17.9209C16.3302 18.0409 16.2902 18.1609 16.2902 18.3208C16.2902 18.4008 16.3102 18.4808 16.3302 18.5608C16.3702 18.6408 16.3902 18.7008 16.4102 18.7608C16.5902 19.1007 16.9101 19.5207 17.3501 20.0406C17.81 20.5605 18.2899 21.1005 18.8099 21.6204C19.3498 22.1603 19.8697 22.6403 20.4097 23.1002C20.9296 23.5402 21.3695 23.8401 21.7095 24.0201C21.7695 24.0401 21.8295 24.0801 21.8895 24.1001C21.9695 24.1401 22.0494 24.1401 22.1494 24.1401C22.3294 24.1401 22.4494 24.0801 22.5694 23.9601L23.3293 23.2002C23.5892 22.9402 23.8292 22.7603 24.0492 22.6403C24.2892 22.5003 24.5091 22.4203 24.7691 22.4203C24.9691 22.4203 25.169 22.4603 25.389 22.5603C25.609 22.6603 25.8489 22.7803 26.0889 22.9602L29.4085 25.3199C29.6684 25.4999 29.8484 25.7199 29.9684 25.9598C30.0684 26.2198 30.1284 26.4598 30.1284 26.7397C30.0084 27.0797 29.9284 27.4596 29.7684 27.8196Z" fill="#DDFF00"/>
</svg>
