<svg width="144" height="150" viewBox="0 0 144 150" fill="none" xmlns="http://www.w3.org/2000/svg">
<path opacity="0.5" d="M0.482269 150H51.1268L63.1164 113.839L0.482269 150Z" fill="#3C4500"/>
<path d="M119.315 110.63L51.1267 150V39.3674L119.315 -0.000183105V110.63Z" fill="#708100"/>
<path d="M60.0592 94.9528L58.1535 96.054V95.3257L60.0592 94.2245V94.9528ZM69.0818 89.017L67.0026 90.217V90.9454L69.0818 89.7453V89.017ZM58.9303 92.9014L56.0032 94.5904V95.3188L58.9303 93.6297V92.9014ZM59.7766 93.1407L61.6824 92.0413V91.3129L59.7766 92.4141V93.1407ZM62.5304 91.5506L64.861 90.2049V89.4765L62.5304 90.8222V91.5506ZM67.998 88.3945L72.1633 85.9893V85.2609L67.998 87.6661V88.3945ZM75.5136 84.0557L79.9494 81.4945V80.7661L75.5136 83.3274V84.0557ZM57.3055 91.8627L56.0032 92.6153V93.3436L57.3055 92.591V91.8627ZM58.1535 92.102L60.0592 91.0008V90.2725L58.1535 91.3736V92.102ZM60.9072 90.5118L62.8841 89.3708V88.6425L60.9072 89.7835V90.5118ZM69.928 85.3043L73.3009 83.3569V82.6286L69.928 84.576V85.3043ZM61.6841 87.3609L59.7783 88.4604V89.1887L61.6841 88.0875V87.3609ZM67.1517 84.2032L65.709 85.0372V85.7656L67.1517 84.9314V84.2032ZM67.998 84.4425L72.1633 82.0372V81.3089L67.998 83.7141V84.4425ZM73.0113 81.5482L74.6673 80.5928V79.8644L73.0113 80.8199V81.5482ZM75.5136 80.1037L80.3691 77.2997V76.5714L75.5136 79.3754V80.1037ZM57.3055 87.9107L56.0032 88.6633V89.3915L57.3055 88.639V87.9107ZM58.1535 88.15L60.0592 87.0488V86.3205L58.1535 87.4216V88.15ZM60.9072 86.5598L66.5552 83.2997L69.0818 81.8413V81.113L66.2587 82.743L60.909 85.8315V86.5598H60.9072ZM78.4841 76.4118V75.6835L76.8783 76.6112V77.3396L78.4841 76.4118ZM58.9303 84.9973L56.0032 86.6863V87.4147L58.9303 85.7257V84.9973ZM63.5309 82.3407L62.5304 82.9182V83.6465L63.5309 83.069V82.3407ZM67.1517 80.2511L64.3789 81.8517V82.58L67.1517 80.9794V80.2511ZM67.998 80.4904L72.1633 78.0852V77.3569L67.998 79.7621V80.4904ZM73.0113 77.5962L74.6673 76.6407V75.9124L73.0113 76.8679V77.5962ZM85.0061 79.8228L83.1003 80.9239V81.6523L85.0061 80.5511V79.8228ZM101.702 70.9112V70.1829L99.8188 71.2702V71.9985L101.702 70.9112ZM80.7887 81.0089L83.8772 79.2262V78.4979L80.7887 80.2806V81.0089ZM84.7251 78.7372L86.6309 77.6378V76.9095L84.7251 78.0089V78.7372ZM87.4772 77.1471L89.8078 75.8014V75.0731L87.4772 76.4187V77.1471ZM79.3234 79.88L82.254 78.1875V77.4592L79.3234 79.15V79.88ZM83.1003 77.6985L85.0061 76.5973V75.8691L83.1003 76.9702V77.6985ZM93.2431 69.139L91.3772 70.2159V70.9442L93.2431 69.8673V69.139ZM96.6887 67.15L94.091 68.6499V69.3783L96.6887 67.8783V67.15ZM79.3234 75.9263L82.254 74.2355V73.5072L79.3234 75.1997V75.9263ZM85.854 72.1563L89.8078 69.8743V69.1459L85.854 71.428V72.1563ZM81.628 72.621L83.8772 71.3222V70.5939L81.628 71.8928V72.621ZM57.3055 80.0118L56.0032 80.7644V81.4927L57.3055 80.7401V80.0118ZM69.0801 73.2141L67.0009 74.4141V75.1425L69.0801 73.9424V73.2141ZM74.1488 71.017L76.0321 69.9297V69.2014L74.1488 70.2887V71.017ZM64.861 73.6754L62.5304 75.0211V75.7494L64.861 74.4037V73.6754ZM72.1633 69.458L67.998 71.8633V72.5916L72.1633 70.1864V69.458ZM73.0113 69.6973L74.6673 68.7419V68.0136L73.0113 68.969V69.6973ZM79.3234 68.0292L82.254 66.3384V65.6101L79.3234 67.3008V68.0292ZM85.854 64.2575L91.1933 61.1743V60.4459L85.854 63.5292V64.2575ZM83.8772 62.695L80.7887 64.4777V65.206L83.8772 63.4234V62.695ZM93.2431 57.2881L90.6541 58.7829V59.5112L93.2431 58.0164V57.2881ZM96.6887 55.2991L94.091 56.7991V57.5274L96.6887 56.0274V55.2991ZM100.337 53.1939L97.5367 54.8101V55.5384L100.337 53.9222V53.1939ZM57.3055 72.106L56.0032 72.8586V73.587L57.3055 72.8344V72.106ZM58.1535 72.3453L60.0592 71.2442V70.5159L58.1535 71.617V72.3453ZM60.9072 70.7552L66.1546 67.7257V66.9974L60.9072 70.0268V70.7552ZM73.3009 62.8702L69.928 64.8176V65.5459L73.3009 63.5985V62.8702ZM61.6824 67.6026L59.7766 68.7037V69.432L61.6824 68.3326V67.6026ZM65.7072 66.0072L67.15 65.1731V64.4448L65.7072 65.2788V66.0072ZM67.998 64.6841L72.1633 62.2789V61.5505L67.998 63.9557V64.6841ZM75.5136 60.3453L79.9494 57.7841V57.0558L75.5136 59.617V60.3453ZM58.1535 68.3916L60.0592 67.2904V66.5621L58.1535 67.6632V68.3916ZM69.0801 61.3563L63.7304 64.4448V65.1731L69.0801 62.0847V61.3563ZM73.3009 58.9181L69.928 60.8656V61.5939L73.3009 59.6465V58.9181ZM76.0303 57.3436L74.1471 58.4309V59.1592L76.0303 58.0719V57.3436ZM76.8783 56.8529V57.5812L78.4841 56.6534V55.9251L76.8783 56.8529ZM61.6824 63.6505L59.7766 64.7499V65.4783L61.6824 64.3771V63.6505ZM74.6656 56.154L73.0095 57.1095V57.8378L74.6656 56.8823V56.154ZM73.0113 53.8858L74.6673 52.9303V52.202L73.0113 53.1575V53.8858ZM79.3234 60.1216L82.254 58.4309V57.7026L79.3234 59.3933V60.1216ZM83.1003 57.9419L85.0061 56.8407V56.1124L83.1003 57.2135V57.9419ZM85.854 56.3517L91.1933 53.2684V52.5401L85.854 55.6234V56.3517ZM86.6309 53.1991L84.7251 54.3002V55.0286L86.6309 53.9292V53.1991ZM90.6541 51.6037L93.2431 50.1089V49.3806L90.6541 50.8754V51.6037ZM100.337 45.2864L97.5367 46.9026V47.6309L100.337 46.0147V45.2864ZM99.8188 44.3361L101.702 43.2488V42.5205L99.8188 43.6078V44.3361ZM81.2084 53.1054L83.8772 51.5638V50.8355L81.2084 52.3772V53.1054ZM84.7251 51.0748L86.6309 49.9737V49.2453L84.7251 50.3465V51.0748ZM87.4772 49.4864L90.5309 47.7245V46.9962L87.4772 48.758V49.4864ZM93.2431 46.1569V45.4286L91.3772 46.5054V47.2338L93.2431 46.1569ZM96.6887 43.4396L94.0893 44.9395V45.6679L96.6887 44.1679V43.4396ZM100.337 41.3344L97.5367 42.9505V43.6788L100.337 42.0627V41.3344ZM79.3234 52.2176L82.254 50.5251V49.7968L79.3234 51.4892V52.2176ZM85.0061 48.2084L83.1003 49.3095V50.0378L85.0061 48.9367V48.2084ZM96.0194 42.5777L98.9708 40.8731V40.1448L96.0194 41.8494V42.5777ZM99.8188 40.3841L101.702 39.2968V38.5685L99.8188 39.6557V40.3841ZM86.6309 45.295L84.7251 46.3962V47.1245L86.6309 46.0234V45.295ZM93.2431 41.4766L89.6292 43.5627V44.291L93.2431 42.2049V41.4766ZM58.1535 56.5355L60.0592 55.4344V54.706L58.1535 55.8072V56.5355ZM69.0801 49.5002L67.0009 50.7003V51.4285L69.0801 50.2286V49.5002ZM65.7072 50.1991L67.15 49.365V48.6367L65.7072 49.4708V50.1991ZM67.998 48.876L72.1633 46.4708V45.7424L67.998 48.1477V48.876ZM73.0113 45.9817L74.6673 45.0263V44.2979L73.0113 45.2534V45.9817ZM79.3234 44.3136L82.254 42.6228V41.8945L79.3234 43.587V44.3136ZM83.1003 42.1338L85.0061 41.0326V40.3043L83.1003 41.4055V42.1338ZM92.0413 36.9713L95.1731 35.1627V34.4343L92.0413 36.243V36.9713ZM96.0194 34.6737L98.9708 32.969V32.2407L96.0194 33.9453V34.6737ZM99.8188 32.4818L101.702 31.3945V30.6661L99.8188 31.7534V32.4818ZM86.6309 37.391L84.7251 38.4904V39.2187L86.6309 38.1176V37.391ZM89.8078 36.2846V35.5563L87.4772 36.902V37.6303L89.8078 36.2846ZM57.3055 95.8147L56.0032 96.5673V97.2956L57.3055 96.543V95.8147ZM78.4841 83.5875L76.8783 84.5153V85.2436L78.4841 84.3159V83.5875ZM73.0113 85.5002L74.6673 84.5448V83.8164L73.0113 84.7719V85.5002ZM63.7304 88.8818L69.0801 85.7933V85.065L63.7304 88.1534V88.8818ZM58.9303 88.9494L56.0032 90.6384V91.3667L58.9303 89.6777V88.9494ZM95.1731 73.9528L92.0413 75.7615V76.4899L95.1731 74.6812V73.9528ZM93.2431 73.8193V73.091L90.6541 74.5858V75.3141L93.2431 73.8193ZM96.0211 70.2401L98.9725 68.5355V67.8072L96.0211 69.5118V70.2401ZM84.7251 74.7852L86.6309 73.6841V72.9557L84.7251 74.0569V74.7852ZM86.6309 69.0037L84.7251 70.1049V70.8332L86.6309 69.7321V69.0037ZM99.8188 56.1956L101.702 55.1083V54.38L99.8188 55.4673V56.1956ZM58.9303 69.1927L56.0032 70.8818V71.6101L58.9303 69.921V69.1927ZM80.3691 52.8627L75.5136 55.6667V56.395L80.3691 53.591V52.8627ZM61.6824 59.6985L59.7766 60.7997V61.528L61.6824 60.4269V59.6985ZM85.854 52.3997L88.9026 50.6396V49.9112L85.854 51.6713V52.3997ZM89.7506 50.1505L95.1731 47.0205V46.2921L89.7506 49.4222V50.1505ZM76.8783 45.7251L78.4841 44.7973V44.069L76.8783 44.9968V45.7251ZM73.3009 86.5806L69.928 88.528V89.2563L73.3009 87.3089V86.5806ZM64.861 86.2528V85.5245L62.5304 86.8702V87.5985L64.861 86.2528ZM98.9725 71.7609L96.0211 73.4656V74.1939L98.9725 72.4893V71.7609ZM100.337 68.9968L97.5367 70.613V71.3413L100.337 69.7251V68.9968ZM81.2084 76.8159L83.8772 75.2742V74.5459L81.2084 76.0875V76.8159ZM58.1535 80.2511L60.0592 79.15V78.4216L58.1535 79.5228V80.2511ZM78.4841 68.513V67.7846L76.8783 68.7124V69.4407L78.4841 68.513ZM58.9303 77.0985L56.0032 78.7875V79.5159L58.9303 77.8269V77.0985ZM65.7072 73.9129L67.15 73.0806V72.3523L65.7072 73.1864V73.9129ZM75.5136 68.2529L79.9494 65.6916V64.9633L75.5136 67.5245V68.2529ZM83.1003 65.8476L85.0061 64.7465V64.0182L83.1003 65.1193V65.8476ZM64.861 61.8159L62.5304 63.1615V63.8898L64.861 62.5442V61.8159ZM65.7072 61.3268V62.0552L67.15 61.221V60.4927L65.7072 61.3268ZM58.1535 64.4396L60.0592 63.3384V62.6101L58.1535 63.7112V64.4396ZM73.3009 54.9661L69.928 56.9136V57.6419L73.3009 55.6945V54.9661ZM58.9303 61.287L56.0032 62.976V63.7043L58.9303 62.0153V61.287ZM67.1517 56.5407L64.3789 58.1413V58.8696L67.1517 57.269V56.5407ZM92.0413 52.7795L95.1731 50.9708V50.2424L92.0413 52.0511V52.7795ZM96.0211 50.4817L98.9725 48.7771V48.0488L96.0211 49.7534V50.4817ZM79.3234 56.1696L82.254 54.4788V53.7505L79.3234 55.4413V56.1696ZM96.6887 39.4875L94.0893 40.9875V41.7159L96.6887 40.2159V39.4875ZM100.337 37.3823L97.5367 38.9985V39.7268L100.337 38.1106V37.3823ZM74.1488 47.3014L76.0321 46.2141V45.4858L74.1488 46.5731V47.3014ZM58.9303 53.3847L56.0032 55.0737V55.802L58.9303 54.1129V53.3847ZM61.6824 51.7944L59.7766 52.8956V53.624L61.6824 52.5245V51.7944ZM64.861 49.9598L62.5304 51.3055V52.0337L64.861 50.6881V49.9598ZM83.8772 38.9812L80.7887 40.7638V41.4922L83.8772 39.7095V38.9812ZM66.1546 90.706L60.9072 93.7355V94.4638L66.1546 91.4343V90.706ZM67.1517 88.8835V88.1552L65.709 88.9893V89.7176L67.1517 88.8835ZM78.4841 80.3638V79.6355L76.8783 80.5633V81.2916L78.4841 80.3638ZM69.928 81.3523L73.3009 79.4049V78.6765L69.928 80.6239V81.3523ZM61.6841 83.4072L59.7783 84.5083V85.2366L61.6841 84.1355V83.4072ZM91.1933 76.2506L85.854 79.3338V80.0621L91.1933 76.9789V76.2506ZM92.0413 60.687L95.1731 58.8783V58.1499L92.0413 59.9586V60.687ZM96.0211 58.3893L98.9725 56.6846V55.9563L96.0211 57.661V58.3893ZM64.861 65.7679L62.5304 67.1135V67.8419L64.861 66.4962V65.7679ZM74.6656 60.1077L73.0095 61.0632V61.7916L74.6656 60.8361V60.1077ZM57.3055 68.154L56.0032 68.9066V69.6349L57.3055 68.8823V68.154ZM78.4841 51.9748L76.8783 52.9025V53.6309L78.4841 52.7031V51.9748ZM99.8188 48.2899L101.702 47.2026V46.4742L99.8188 47.5615V48.2899ZM96.0211 46.5297L98.9725 44.8251V44.0968L96.0211 45.8014V46.5297ZM89.8078 45.4372L85.854 47.7193V48.4476L89.8078 46.1656V45.4372ZM90.6541 45.6748L95.1731 43.0667V42.3384L90.6541 44.9465V45.6748ZM87.4772 44.806V45.5343L88.7829 44.78V44.0517L87.4772 44.806ZM57.3055 56.2979L56.0032 57.0505V57.7789L57.3055 57.0263V56.2979ZM79.9494 41.2476L75.5136 43.8089V44.5372L79.9494 41.976V41.2476ZM76.0321 85.0043L74.1488 86.0916V86.8199L76.0321 85.7326V85.0043ZM74.1488 82.8679L76.0321 81.7806V81.0523L74.1488 82.1396V82.8679ZM74.1488 78.9141L76.0321 77.8269V77.0985L74.1488 78.1858V78.9141ZM82.254 81.413L79.3234 83.1037V83.832L82.254 82.1413V81.413ZM85.854 76.1084L88.9026 74.3482V73.6199L85.854 75.38V76.1084ZM99.8188 68.0465L101.702 66.9592V66.2309L99.8188 67.3182V68.0465ZM100.337 65.043L97.5367 66.6592V67.3875L100.337 65.7714V65.043ZM83.1003 73.7465L85.0061 72.6453V71.917L83.1003 73.0182V73.7465ZM88.7829 68.4904V67.7621L87.4772 68.5164V69.2448L88.7829 68.4904ZM60.9072 78.6609L66.1546 75.6314V74.9031L60.9072 77.9326V78.6609ZM61.6824 75.5101L59.7766 76.6095V77.3378L61.6824 76.2366V75.5101ZM86.6309 61.1066L84.7251 62.2061V62.9343L86.6309 61.8349V61.1066ZM78.4841 60.6055V59.8771L76.8783 60.8049V61.5332L78.4841 60.6055ZM58.9303 65.239L56.0032 66.928V67.6563L58.9303 65.9673V65.239ZM76.0303 53.3898L74.1471 54.4771V55.2054L76.0303 54.1182V53.3898ZM67.998 56.78L72.1633 54.3748V53.6465L67.998 56.0517V56.78ZM75.5136 52.4413L80.7887 49.3962V48.6679L75.5136 51.7129V52.4413ZM89.8078 51.3644L87.4772 52.7101V53.4384L89.8078 52.0928V51.3644ZM83.1003 53.9899L85.0061 52.8887V52.1604L83.1003 53.2615V53.9899ZM83.8772 46.8852L81.628 48.1841V48.9124L83.8772 47.6136V46.8852ZM60.9072 54.9471L66.1546 51.9176V51.1892L60.9072 54.2187V54.9471ZM75.5136 76.15L80.7887 73.1048V72.3766L75.5136 75.4216V76.15ZM96.6887 71.102L94.091 72.602V73.3303L96.6887 71.8303V71.102ZM89.7506 73.8592L95.1731 70.7291V70.0008L89.7506 73.1309V73.8592ZM87.4772 73.195L90.5309 71.4332V70.7049L87.4772 72.4667V73.195ZM69.928 73.4534L73.3009 71.506V70.7777L69.928 72.7251V73.4534ZM89.8078 60.0003V59.2719L87.4772 60.6176V61.3459L89.8078 60.0003ZM69.0801 65.3084L67.0009 66.5083V67.2367L69.0801 66.0367V65.3084ZM74.1488 63.1095L76.0321 62.0222V61.2939L74.1488 62.3812V63.1095ZM60.9072 66.8032L62.8841 65.6621V64.9338L60.9072 66.0748V66.8032ZM72.1633 57.6003L67.998 60.0055V60.7338L72.1633 58.3286V57.6003ZM57.3055 64.2003L56.0032 64.9528V65.6812L57.3055 64.9286V64.2003ZM60.9072 62.8511L66.2569 59.7626L69.0801 58.1326V57.4043L66.2569 59.0344L60.9072 62.1228V62.8511ZM63.5309 58.6321L62.5304 59.2095V59.9378L63.5309 59.3603V58.6321ZM83.8772 54.7893L80.7887 56.5719V57.3003L83.8772 55.5176V54.7893ZM96.6887 47.3916L94.0893 48.8916V49.6199L96.6887 48.1199V47.3916ZM69.928 49.7378L73.3009 47.7904V47.0621L69.928 49.0095V49.7378ZM85.854 40.5436L91.1933 37.4604V36.732L85.854 39.8153V40.5436ZM93.2431 33.5725L90.6541 35.0673V35.7956L93.2431 34.3008V33.5725ZM96.6887 31.5835L94.0893 33.0835V33.8118L96.6887 32.3118V31.5835ZM100.337 29.4783L97.5367 31.0945V31.8228L100.337 30.2066V29.4783ZM105.075 68.2373L103.169 69.3384V70.0667L105.075 68.9656V68.2373ZM114.096 63.028L112.016 64.228V64.9563L114.096 63.7563V63.028ZM103.944 66.9124L101.017 68.6014V69.3298L103.944 67.6407V66.9124ZM104.792 67.1517L106.698 66.0505V65.3222L104.792 66.4217V67.1517ZM107.546 65.5615L109.877 64.2159V63.4875L107.546 64.8332V65.5615ZM113.014 62.4055L117.179 60.0003V59.2719L113.014 61.6771V62.4055ZM102.508 66.4927L105.073 65.0118V64.2835L102.508 65.7644V66.4927ZM105.921 64.5228L107.898 63.3817V62.6534L105.921 63.7945V64.5228ZM114.942 59.3153L117.257 57.9783V57.25L114.942 58.587V59.3153ZM106.698 61.3719L104.792 62.4713V63.1997L106.698 62.0985V61.3719ZM112.166 58.2141L110.723 59.0482V59.7766L112.166 58.9424V58.2141ZM113.014 58.4534L117.179 56.0482V55.3199L113.014 57.7251V58.4534ZM102.321 61.9217L101.019 62.6742V63.4025L102.321 62.6499V61.9217ZM103.167 62.161L105.073 61.0598V60.3314L103.167 61.4326V62.161ZM105.921 60.5707L111.569 57.3106L114.096 55.8523V55.1239L111.273 56.754L105.923 59.8425L105.921 60.5707ZM103.944 59.0083L101.017 60.6973V61.4257L103.944 59.7367V59.0083ZM108.545 56.3517L107.544 56.9292V57.6575L108.545 57.08V56.3517ZM112.166 54.2621L109.393 55.8627V56.591L112.166 54.9904V54.2621ZM113.014 54.5014L117.179 52.0962V51.3679L113.014 53.7731V54.5014ZM114.096 47.2251L112.016 48.4251V49.1534L114.096 47.9534V47.2251ZM109.875 47.6864L107.544 49.032V49.7604L109.875 48.4147V47.6864ZM117.179 43.469L113.014 45.8742V46.6026L117.179 44.1974V43.469ZM102.529 46.724L105.073 45.2552V44.5268L102.529 45.9956V46.724ZM105.921 44.7662L111.168 41.7367V41.0083L105.921 44.0378V44.7662ZM117.257 37.4933L114.942 38.8286V39.5569L117.257 38.2216V37.4933ZM106.698 41.6135L104.792 42.7147V43.443L106.698 42.3436V41.6135ZM110.723 40.0182L112.166 39.1841V38.4557L110.723 39.2898V40.0182ZM113.014 38.695L117.179 36.2899V35.5615L113.014 37.9667V38.695ZM103.167 42.4043L105.073 41.3031V40.5748L103.167 41.676V42.4043ZM114.096 35.3673L108.746 38.4557V39.1841L114.096 36.0956V35.3673ZM117.257 33.5413L114.942 34.8766V35.6049L117.257 34.2679V33.5413ZM106.698 37.6615L104.792 38.7627V39.491L106.698 38.3899V37.6615ZM103.167 30.5465L105.073 29.4453V28.717L103.167 29.8182V30.5465ZM114.096 23.5112L112.016 24.7112V25.4396L114.096 24.2396V23.5112ZM110.723 24.2101L112.166 23.376V22.6476L110.723 23.4818V24.2101ZM113.014 22.887L117.179 20.4817V19.7534L113.014 22.1586V22.887ZM108.746 62.8927L114.096 59.8043V59.076L108.746 62.1644V62.8927ZM103.944 62.9604L101.017 64.6494V65.3777L103.944 63.6887V62.9604ZM103.944 43.2037L101.017 44.8927V45.6211L103.944 43.932V43.2037ZM106.698 33.7095L104.792 34.8106V35.539L106.698 34.4378V33.7095ZM117.257 61.2037L114.942 62.5407V63.269L117.257 61.932V61.2037ZM109.875 60.2638V59.5355L107.544 60.8812V61.6095L109.875 60.2638ZM102.55 54.6193L105.075 53.1627V52.4344L102.55 53.891V54.6193ZM103.944 51.1095L101.017 52.7985V53.5269L103.944 51.8378V51.1095ZM110.723 47.924L112.167 47.0916V46.3632L110.723 47.1974V47.924ZM109.875 35.8268L107.544 37.1725V37.9008L109.875 36.5552V35.8268ZM110.723 35.3378V36.0661L112.166 35.232V34.5037L110.723 35.3378ZM103.167 38.4505L105.073 37.3494V36.6211L103.167 37.7222V38.4505ZM117.257 29.5893L114.942 30.9263V31.6546L117.257 30.3176V29.5893ZM103.944 35.2997L101.017 36.9887V37.717L103.944 36.028V35.2997ZM112.166 30.5517L109.393 32.1523V32.8806L112.166 31.28V30.5517ZM103.944 27.3956L101.017 29.0847V29.813L103.944 28.124V27.3956ZM106.698 25.8055L104.792 26.9066V27.6349L106.698 26.5338V25.8055ZM109.875 23.9708L107.544 25.3164V26.0448L109.875 24.6991V23.9708ZM111.17 64.717L105.923 67.7465V68.4748L111.17 65.4453V64.717ZM112.166 62.8944V62.1661L110.723 63.0002V63.7286L112.166 62.8944ZM114.942 55.3633L117.257 54.0263V53.2979L114.942 54.6349V55.3633ZM106.698 57.4182L104.792 58.5193V59.2476L106.698 58.1465V57.4182ZM109.875 39.7789L107.544 41.1245V41.8528L109.875 40.5072V39.7789ZM105.921 52.6719L111.168 49.6424V48.9141L105.921 51.9436V52.6719ZM106.698 49.521L104.792 50.6205V51.3488L106.698 50.2476V49.521ZM103.944 39.2517L101.017 40.9407V41.669L103.944 39.98V39.2517ZM113.014 30.791L117.179 28.3858V27.6575L113.014 30.0627V30.791ZM105.921 28.958L111.168 25.9286V25.2003L105.921 28.2297V28.958ZM114.942 47.4644L117.257 46.1274V45.3991L114.942 46.7344V47.4644ZM114.096 39.3193L112.016 40.5193V41.2476L114.096 40.0476V39.3193ZM105.921 40.8141L107.898 39.6731V38.9447L105.921 40.0858V40.8141ZM117.179 31.6112L113.014 34.0164V34.7448L117.179 32.3396V31.6112ZM105.921 36.8621L111.271 33.7737L114.096 32.1436V31.4153L111.271 33.0453L105.921 36.1338V36.8621ZM108.545 32.643L107.544 33.2205V33.9488L108.545 33.3714V32.643ZM114.942 23.7488L117.257 22.4118V21.6835L114.942 23.0188V23.7488ZM54.8344 97.9702V97.2419L53.5321 97.9945V98.7228L54.8344 97.9702ZM53.5321 96.7459L54.8344 95.9933V95.265L53.5321 96.0176V96.7459ZM53.5321 94.7708L54.8344 94.0182V93.2898L53.5321 94.0424V94.7708ZM53.5321 92.7939L54.8344 92.0413V91.3129L53.5321 92.0656V92.7939ZM53.5321 90.8188L54.8344 90.0661V89.3378L53.5321 90.0904V90.8188ZM53.5321 88.8419L54.8344 88.0893V87.3609L53.5321 88.1135V88.8419ZM53.5321 86.865L54.8344 86.1124V85.3841L53.5321 86.1367V86.865ZM53.5321 84.8899L54.8344 84.1372V83.4089L53.5321 84.1615V84.8899ZM53.5321 82.9129L54.8344 82.1604V81.432L53.5321 82.1847V82.9129ZM53.5321 80.9378L54.8344 80.1852V79.4569L53.5321 80.2095V80.9378ZM53.5321 78.9609L54.8344 78.2084V77.48L53.5321 78.2326V78.9609ZM53.5321 76.9858L54.8344 76.2332V75.5049L53.5321 76.2575V76.9858ZM53.5321 75.0089L54.8344 74.2563V73.528L53.5321 74.2806V75.0089ZM53.5321 73.032L54.8344 72.2794V71.5511L53.5321 72.3037V73.032ZM53.5321 71.0569L54.8344 70.3043V69.576L53.5321 70.3286V71.0569ZM53.5321 69.08L54.8344 68.3274V67.5991L53.5321 68.3517V69.08ZM53.5321 67.1049L54.8344 66.3523V65.6239L53.5321 66.3766V67.1049ZM53.5321 65.128L54.8344 64.3754V63.6471L53.5321 64.3997V65.128ZM53.5303 63.1529L54.8326 62.4003V61.6719L53.5303 62.4245V63.1529ZM53.5303 61.1759L54.8326 60.4234V59.695L53.5303 60.4477V61.1759ZM53.5303 59.1991L54.8326 58.4465V57.7182L53.5303 58.4708V59.1991ZM53.5303 57.2239L54.8326 56.4714V55.743L53.5303 56.4956V57.2239ZM60.0592 137.699L58.1535 138.8V139.528L60.0592 138.427V137.699ZM69.0818 132.491L67.0026 133.691V134.419L69.0818 133.219V132.491ZM58.9303 136.375L56.0032 138.064V138.793L58.9303 137.104V136.375ZM59.7766 136.615L61.6824 135.514V134.785L59.7766 135.885V136.615ZM62.5304 135.024L64.861 133.679V132.951L62.5304 134.296V135.024ZM67.998 131.868L72.1633 129.463V128.735L67.998 131.14V131.868ZM75.5136 127.53L79.9494 124.968V124.24L75.5136 126.801V127.53ZM57.3055 135.337L56.0032 136.089V136.818L57.3055 136.065V135.337ZM58.1535 135.576L60.0592 134.475V133.746L58.1535 134.848V135.576ZM60.9072 133.986L62.8841 132.845V132.116L60.9072 133.257V133.986ZM69.928 128.778L73.3009 126.831V126.103L69.928 128.05V128.778ZM61.6841 130.833L59.7783 131.933V132.661L61.6841 131.562V130.833ZM67.1517 127.677L65.709 128.511V129.24L67.1517 128.405V127.677ZM67.998 127.916L72.1633 125.511V124.783L67.998 127.188V127.916ZM73.0113 125.022L74.6673 124.067V123.338L73.0113 124.294V125.022ZM75.5136 123.576L80.3691 120.772V120.044L75.5136 122.848V123.576ZM57.3055 131.385L56.0032 132.137V132.866L57.3055 132.113V131.385ZM58.1535 131.624L60.0592 130.523V129.794L58.1535 130.896V131.624ZM60.9072 130.034L66.5552 126.774L69.0818 125.315V124.587L66.2587 126.217L60.909 129.305V130.034H60.9072ZM78.4841 119.886V119.157L76.8783 120.085V120.814L78.4841 119.886ZM58.9303 128.471L56.0032 130.16V130.889L58.9303 129.2V128.471ZM63.5309 125.815L62.5304 126.392V127.12L63.5309 126.543V125.815ZM67.1517 123.725L64.3789 125.326V126.054L67.1517 124.453V123.725ZM67.998 123.963L72.1633 121.557V120.829L67.998 123.234V123.963ZM73.0113 121.068L74.6673 120.113V119.385L73.0113 120.34V121.068ZM85.0061 123.297L83.1003 124.398V125.126L85.0061 124.025V123.297ZM101.702 114.385V113.657L99.8188 114.744V115.472L101.702 114.385ZM80.7887 124.483L83.8772 122.7V121.972L80.7887 123.755V124.483ZM84.7251 122.211L86.6309 121.112V120.383L84.7251 121.483V122.211ZM87.4772 120.621L89.8078 119.275V118.547L87.4772 119.893V120.621ZM79.3234 123.352L82.254 121.66V120.931L79.3234 122.622V123.352ZM83.1003 121.173L85.0061 120.071V119.343L83.1003 120.444V121.173ZM93.2431 112.613L91.3772 113.69V114.418L93.2431 113.341V112.613ZM96.6887 110.624L94.091 112.124V112.852L96.6887 111.352V110.624ZM79.3234 119.4L82.254 117.708V116.979L79.3234 118.67V119.4ZM85.854 115.63L89.8078 113.348V112.62L85.854 114.902V115.63ZM81.628 116.095L83.8772 114.796V114.068L81.628 115.367V116.095ZM57.3055 123.486L56.0032 124.238V124.967L57.3055 124.214V123.486ZM69.0801 116.688L67.0009 117.888V118.616L69.0801 117.416V116.688ZM74.1488 114.489L76.0321 113.402V112.674L74.1488 113.761V114.489ZM64.861 117.149L62.5304 118.495V119.223L64.861 117.878V117.149ZM72.1633 112.932L67.998 115.337V116.066L72.1633 113.66V112.932ZM73.0113 113.171L74.6673 112.216V111.488L73.0113 112.443V113.171ZM79.3234 111.503L82.254 109.812V109.084L79.3234 110.775V111.503ZM85.854 107.731L91.1933 104.648V103.92L85.854 107.003V107.731ZM83.8772 106.169L80.7887 107.952V108.68L83.8772 106.897V106.169ZM93.2431 100.762L90.6541 102.257V102.985L93.2431 101.49V100.762ZM96.6887 98.7731L94.091 100.273V101.001L96.6887 99.5014V98.7731ZM100.337 96.6661L97.5367 98.2823V99.0107L100.337 97.3945V96.6661ZM57.3055 115.58L56.0032 116.333V117.061L57.3055 116.308V115.58ZM58.1535 115.818L60.0592 114.716V113.988L58.1535 115.089V115.818ZM60.9072 114.229L66.1546 111.2V110.471L60.9072 113.501V114.229ZM73.3009 106.344L69.928 108.292V109.02L73.3009 107.073V106.344ZM61.6824 111.077L59.7766 112.178V112.906L61.6824 111.807V111.077ZM65.7072 109.481L67.15 108.647V107.919L65.7072 108.753V109.481ZM67.998 108.158L72.1633 105.753V105.025L67.998 107.43V108.158ZM75.5136 103.819L79.9494 101.258V100.53L75.5136 103.091V103.819ZM58.1535 111.866L60.0592 110.764V110.036L58.1535 111.137V111.866ZM69.0801 104.829L63.7304 107.917V108.645L69.0801 105.557V104.829ZM73.3009 102.392L69.928 104.34V105.068L73.3009 103.12V102.392ZM76.0303 100.816L74.1471 101.903V102.631L76.0303 101.544V100.816ZM76.8783 100.327V101.055L78.4841 100.127V99.3991L76.8783 100.327ZM61.6824 107.125L59.7766 108.226V108.954L61.6824 107.853V107.125ZM74.6656 99.628L73.0095 100.583V101.312L74.6656 100.356V99.628ZM73.0113 97.3598L74.6673 96.4043V95.676L73.0113 96.6315V97.3598ZM79.3234 103.596L82.254 101.905V101.177L79.3234 102.867V103.596ZM83.1003 101.414L85.0061 100.313V99.5846L83.1003 100.686V101.414ZM85.854 99.8257L91.1933 96.7424V96.0141L85.854 99.0974V99.8257ZM86.6309 96.6731L84.7251 97.7725V98.5008L86.6309 97.3997V96.6731ZM90.6541 95.0777L93.2431 93.5829V92.8546L90.6541 94.3494V95.0777ZM100.337 88.7604L97.5367 90.3766V91.1049L100.337 89.4887V88.7604ZM99.8188 87.8101L101.702 86.7228V85.9945L99.8188 87.0818V87.8101ZM81.2084 96.5794L83.8772 95.0378V94.3095L81.2084 95.8511V96.5794ZM84.7251 94.5488L86.6309 93.4477V92.7193L84.7251 93.8187V94.5488ZM87.4772 92.9604L90.5309 91.1968V90.4684L87.4772 92.232V92.9604ZM93.2431 89.6309V88.9026L91.3772 89.9794V90.7077L93.2431 89.6309ZM96.6887 86.9135L94.0893 88.4135V89.1419L96.6887 87.6419V86.9135ZM100.337 84.8066L97.5367 86.4228V87.1511L100.337 85.5349V84.8066ZM79.3234 95.6916L82.254 94.0008V93.2725L79.3234 94.965V95.6916ZM85.0061 91.6823L83.1003 92.7835V93.5118L85.0061 92.4107V91.6823ZM96.0194 86.0517L98.9708 84.347V83.6188L96.0194 85.3234V86.0517ZM99.8188 83.8581L101.702 82.7708V82.0425L99.8188 83.1297V83.8581ZM86.6309 88.769L84.7251 89.8702V90.5985L86.6309 89.4973V88.769ZM93.2431 84.9506L89.6292 87.0367V87.765L93.2431 85.6788V84.9506ZM58.1535 100.009L60.0592 98.9083V98.18L58.1535 99.2812V100.009ZM69.0801 92.9725L67.0009 94.1725V94.9008L69.0801 93.7008V92.9725ZM65.7072 93.6731L67.15 92.839V92.1107L65.7072 92.9447V93.6731ZM67.998 92.35L72.1633 89.9447V89.2164L67.998 91.6216V92.35ZM73.0113 89.4557L74.6673 88.5003V87.7719L73.0113 88.7274V89.4557ZM79.3234 87.7875L82.254 86.0968V85.3685L79.3234 87.0592V87.7875ZM83.1003 85.606L85.0061 84.5049V83.7766L83.1003 84.8777V85.606ZM92.0413 80.4453L95.1731 78.6366V77.9083L92.0413 79.717V80.4453ZM96.0194 78.1477L98.9708 76.443V75.7147L96.0194 77.4193V78.1477ZM99.8188 75.954L101.702 74.8667V74.1384L99.8188 75.2257V75.954ZM86.6309 80.865L84.7251 81.9644V82.6927L86.6309 81.5916V80.865ZM89.8078 79.7586V79.0303L87.4772 80.376V81.1043L89.8078 79.7586ZM57.3055 139.289L56.0032 140.041V140.77L57.3055 140.017V139.289ZM78.4841 127.062L76.8783 127.989V128.718L78.4841 127.79V127.062ZM73.0113 128.974L74.6673 128.019V127.29L73.0113 128.246V128.974ZM63.7304 132.356L69.0801 129.267V128.539L63.7304 131.627V132.356ZM58.9303 132.423L56.0032 134.112V134.841L58.9303 133.152V132.423ZM95.1731 117.427L92.0413 119.236V119.964L95.1731 118.155V117.427ZM93.2431 117.293V116.565L90.6541 118.06V118.788L93.2431 117.293ZM96.0211 113.712L98.9725 112.008V111.279L96.0211 112.984V113.712ZM84.7251 118.259L86.6309 117.158V116.43L84.7251 117.529V118.259ZM86.6309 112.478L84.7251 113.577V114.305L86.6309 113.204V112.478ZM99.8188 99.6696L101.702 98.5823V97.854L99.8188 98.9413V99.6696ZM58.9303 112.667L56.0032 114.356V115.084L58.9303 113.395V112.667ZM80.3691 96.3366L75.5136 99.1407V99.869L80.3691 97.065V96.3366ZM61.6824 103.171L59.7766 104.272V105L61.6824 103.899V103.171ZM85.854 95.8736L88.9026 94.1136V93.3852L85.854 95.1453V95.8736ZM89.7506 93.6228L95.1731 90.4927V89.7644L89.7506 92.8945V93.6228ZM76.8783 89.1991L78.4841 88.2713V87.543L76.8783 88.4708V89.1991ZM73.3009 130.055L69.928 132.002V132.73L73.3009 130.783V130.055ZM64.861 129.727V128.999L62.5304 130.344V131.072L64.861 129.727ZM98.9725 115.233L96.0211 116.938V117.666L98.9725 115.962V115.233ZM100.337 112.469L97.5367 114.085V114.814L100.337 113.197V112.469ZM81.2084 120.288L83.8772 118.746V118.018L81.2084 119.56V120.288ZM58.1535 123.725L60.0592 122.624V121.896L58.1535 122.997V123.725ZM78.4841 111.987V111.259L76.8783 112.186V112.915L78.4841 111.987ZM58.9303 120.573L56.0032 122.262V122.99L58.9303 121.301V120.573ZM65.7072 117.387L67.15 116.555V115.826L65.7072 116.66V117.387ZM75.5136 111.727L79.9494 109.166V108.437L75.5136 110.999V111.727ZM83.1003 109.322L85.0061 108.22V107.492L83.1003 108.593V109.322ZM64.861 105.29L62.5304 106.635V107.364L64.861 106.018V105.29ZM65.7072 104.801V105.529L67.15 104.695V103.967L65.7072 104.801ZM58.1535 107.914L60.0592 106.812V106.084L58.1535 107.185V107.914ZM73.3009 98.4401L69.928 100.388V101.116L73.3009 99.1684V98.4401ZM58.9303 104.761L56.0032 106.45V107.178L58.9303 105.489V104.761ZM67.1517 100.015L64.3789 101.615V102.344L67.1517 100.743V100.015ZM92.0413 96.2534L95.1731 94.4447V93.7164L92.0413 95.5251V96.2534ZM96.0211 93.9557L98.9725 92.2511V91.5228L96.0211 93.2274V93.9557ZM79.3234 99.6436L82.254 97.9511V97.2228L79.3234 98.9136V99.6436ZM96.6887 82.9615L94.0893 84.4615V85.1899L96.6887 83.6898V82.9615ZM100.337 80.8546L97.5367 82.4707V83.1991L100.337 81.5829V80.8546ZM74.1488 90.7754L76.0321 89.6881V88.9598L74.1488 90.0471V90.7754ZM58.9303 96.8569L56.0032 98.5459V99.2742L58.9303 97.5852V96.8569ZM61.6824 95.2684L59.7766 96.3696V97.0979L61.6824 95.9985V95.2684ZM64.861 93.4338L62.5304 94.7795V95.5078L64.861 94.1621V93.4338ZM83.8772 82.4534L80.7887 84.2361V84.9644L83.8772 83.1817V82.4534ZM66.1546 134.18L60.9072 137.209V137.938L66.1546 134.908V134.18ZM67.1517 132.357V131.629L65.709 132.463V133.192L67.1517 132.357ZM78.4841 123.838V123.109L76.8783 124.037V124.766L78.4841 123.838ZM69.928 124.825L73.3009 122.877V122.149L69.928 124.096V124.825ZM61.6841 126.881L59.7783 127.981V128.709L61.6841 127.608V126.881ZM91.1933 119.725L85.854 122.808V123.536L91.1933 120.453V119.725ZM92.0413 104.161L95.1731 102.352V101.624L92.0413 103.433V104.161ZM96.0211 101.863L98.9725 100.159V99.4303L96.0211 101.135V101.863ZM64.861 109.242L62.5304 110.588V111.316L64.861 109.97V109.242ZM74.6656 103.58L73.0095 104.535V105.264L74.6656 104.308V103.58ZM57.3055 111.626L56.0032 112.379V113.107L57.3055 112.355V111.626ZM78.4841 95.4471L76.8783 96.3748V97.1031L78.4841 96.1754V95.4471ZM99.8188 91.7621L101.702 90.6748V89.9465L99.8188 91.0338V91.7621ZM96.0211 90.0037L98.9725 88.2991V87.5708L96.0211 89.2754V90.0037ZM89.8078 88.9095L85.854 91.1916V91.9199L89.8078 89.6378V88.9095ZM90.6541 89.1488L95.1731 86.5407V85.8124L90.6541 88.4205V89.1488ZM87.4772 88.28V89.0084L88.7829 88.254V87.5257L87.4772 88.28ZM57.3055 99.7702L56.0032 100.523V101.251L57.3055 100.499V99.7702ZM79.9494 84.7216L75.5136 87.2829V88.0112L79.9494 85.45V84.7216ZM76.0321 128.478L74.1488 129.566V130.294L76.0321 129.207V128.478ZM74.1488 126.34L76.0321 125.253V124.525L74.1488 125.612V126.34ZM74.1488 122.388L76.0321 121.301V120.573L74.1488 121.66V122.388ZM82.254 124.885L79.3234 126.578V127.306L82.254 125.615V124.885ZM85.854 119.582L88.9026 117.822V117.094L85.854 118.854V119.582ZM99.8188 111.52L101.702 110.433V109.705L99.8188 110.792V111.52ZM100.337 108.517L97.5367 110.133V110.862L100.337 109.245V108.517ZM83.1003 117.22L85.0061 116.119V115.391L83.1003 116.492V117.22ZM88.7829 111.963V111.234L87.4772 111.989V112.717L88.7829 111.963ZM60.9072 122.135L66.1546 119.105V118.377L60.9072 121.407V122.135ZM61.6824 118.982L59.7766 120.082V120.81L61.6824 119.709V118.982ZM86.6309 104.581L84.7251 105.682V106.41L86.6309 105.311V104.581ZM78.4841 104.079V103.351L76.8783 104.279V105.007L78.4841 104.079ZM58.9303 108.713L56.0032 110.402V111.13L58.9303 109.441V108.713ZM76.0303 96.8638L74.1471 97.9511V98.6794L76.0303 97.5921V96.8638ZM67.998 100.254L72.1633 97.8488V97.1205L67.998 99.5257V100.254ZM75.5136 95.9153L80.7887 92.8702V92.1419L75.5136 95.1869V95.9153ZM89.8078 94.8384L87.4772 96.1841V96.9124L89.8078 95.5667V94.8384ZM83.1003 97.4621L85.0061 96.3609V95.6326L83.1003 96.7338V97.4621ZM83.8772 90.3575L81.628 91.6563V92.3846L83.8772 91.0858V90.3575ZM60.9072 98.4193L66.1546 95.3898V94.6615L60.9072 97.691V98.4193ZM75.5136 119.624L80.7887 116.579V115.851L75.5136 118.896V119.624ZM96.6887 114.576L94.091 116.076V116.804L96.6887 115.304V114.576ZM89.7506 117.333L95.1731 114.203V113.475L89.7506 116.605V117.333ZM87.4772 116.669L90.5309 114.907V114.179L87.4772 115.942V116.669ZM69.928 116.927L73.3009 114.98V114.252L69.928 116.199V116.927ZM89.8078 103.474V102.746L87.4772 104.092V104.82L89.8078 103.474ZM69.0801 108.782L67.0009 109.982V110.711L69.0801 109.511V108.782ZM74.1488 106.583L76.0321 105.496V104.768L74.1488 105.855V106.583ZM60.9072 110.277L62.8841 109.136V108.408L60.9072 109.549V110.277ZM72.1633 101.073L67.998 103.478V104.206L72.1633 101.801V101.073ZM57.3055 107.674L56.0032 108.427V109.155L57.3055 108.403V107.674ZM60.9072 106.323L66.2569 103.235L69.0801 101.605V100.877L66.2569 102.507L60.9072 105.595V106.323ZM63.5309 102.104L62.5304 102.682V103.41L63.5309 102.833V102.104ZM83.8772 98.2633L80.7887 100.046V100.774L83.8772 98.9916V98.2633ZM96.6887 90.8655L94.0893 92.3656V93.0939L96.6887 91.5939V90.8655ZM69.928 93.2118L73.3009 91.2644V90.5361L69.928 92.4835V93.2118ZM85.854 84.0176L91.1933 80.9344V80.206L85.854 83.2893V84.0176ZM93.2431 77.0465L90.6541 78.5413V79.2696L93.2431 77.7748V77.0465ZM96.6887 75.0575L94.0893 76.5575V77.2858L96.6887 75.7858V75.0575ZM100.337 72.9523L97.5367 74.5685V75.2968L100.337 73.6806V72.9523ZM105.075 111.711L103.169 112.812V113.541L105.075 112.44V111.711ZM114.096 106.502L112.016 107.702V108.43L114.096 107.23V106.502ZM103.944 110.386L101.017 112.075V112.804L103.944 111.115V110.386ZM104.792 110.626L106.698 109.526V108.798L104.792 109.897V110.626ZM107.546 109.035L109.877 107.69V106.962L107.546 108.307V109.035ZM113.014 105.879L117.179 103.474V102.746L113.014 105.151V105.879ZM102.508 109.967L105.073 108.486V107.757L102.508 109.238V109.967ZM105.921 107.997L107.898 106.856V106.127L105.921 107.268V107.997ZM114.942 102.789L117.257 101.452V100.724L114.942 102.061V102.789ZM106.698 104.844L104.792 105.945V106.674L106.698 105.573V104.844ZM112.166 101.688L110.723 102.522V103.251L112.166 102.416V101.688ZM113.014 101.927L117.179 99.5222V98.7939L113.014 101.199V101.927ZM102.321 105.396L101.019 106.148V106.877L102.321 106.124V105.396ZM103.167 105.635L105.073 104.534V103.805L103.167 104.907V105.635ZM105.921 104.045L111.569 100.785L114.096 99.3262V98.5979L111.273 100.228L105.923 103.316L105.921 104.045ZM103.944 102.482L101.017 104.171V104.9L103.944 103.211V102.482ZM108.545 99.8257L107.544 100.403V101.131L108.545 100.554V99.8257ZM112.166 97.7361L109.393 99.3367V100.065L112.166 98.4644V97.7361ZM113.014 97.9736L117.179 95.5685V94.8402L113.014 97.2453V97.9736ZM114.096 90.6991L112.016 91.8991V92.6274L114.096 91.4274V90.6991ZM109.875 91.1604L107.544 92.506V93.2343L109.875 91.8887V91.1604ZM117.179 86.943L113.014 89.3482V90.0766L117.179 87.6714V86.943ZM102.529 90.198L105.073 88.7291V88.0008L102.529 89.4696V90.198ZM105.921 88.2402L111.168 85.2107V84.4823L105.921 87.5118V88.2402ZM117.257 80.9673L114.942 82.3026V83.0309L117.257 81.6956V80.9673ZM106.698 85.0875L104.792 86.1887V86.917L106.698 85.8176V85.0875ZM110.723 83.4922L112.166 82.658V81.9297L110.723 82.7638V83.4922ZM113.014 82.169L117.179 79.7639V79.0355L113.014 81.4407V82.169ZM103.167 85.8766L105.073 84.7754V84.0471L103.167 85.1482V85.8766ZM114.096 78.8395L108.746 81.928V82.6563L114.096 79.5679V78.8395ZM117.257 77.0153L114.942 78.3522V79.0806L117.257 77.7436V77.0153ZM106.698 81.1355L104.792 82.2367V82.965L106.698 81.8638V81.1355ZM103.167 74.0205L105.073 72.9193V72.191L103.167 73.2921V74.0205ZM114.096 66.9852L112.016 68.1852V68.9135L114.096 67.7136V66.9852ZM110.723 67.6841L112.166 66.8499V66.1217L110.723 66.9557V67.6841ZM113.014 66.361L117.179 63.9557V63.2274L113.014 65.6326V66.361ZM108.746 106.367L114.096 103.278V102.55L108.746 105.638V106.367ZM103.944 106.434L101.017 108.123V108.852L103.944 107.163V106.434ZM103.944 86.6777L101.017 88.3667V89.095L103.944 87.406V86.6777ZM106.698 77.1835L104.792 78.2846V79.013L106.698 77.9118V77.1835ZM117.257 104.678L114.942 106.015V106.743L117.257 105.406V104.678ZM109.875 103.738V103.01L107.544 104.355V105.083L109.875 103.738ZM102.55 98.0933L105.075 96.6367V95.9084L102.55 97.365V98.0933ZM103.944 94.5835L101.017 96.2725V97.0008L103.944 95.3118V94.5835ZM110.723 91.3979L112.167 90.5655V89.8372L110.723 90.6713V91.3979ZM109.875 79.3008L107.544 80.6465V81.3748L109.875 80.0291V79.3008ZM110.723 78.8118V79.5401L112.166 78.706V77.9777L110.723 78.8118ZM103.167 81.9245L105.073 80.8234V80.095L103.167 81.1962V81.9245ZM117.257 73.0633L114.942 74.4002V75.1286L117.257 73.7916V73.0633ZM103.944 78.7719L101.017 80.4609V81.1893L103.944 79.5003V78.7719ZM112.166 74.0257L109.393 75.6263V76.3546L112.166 74.754V74.0257ZM103.944 70.8679L101.017 72.5569V73.2852L103.944 71.5962V70.8679ZM106.698 69.2794L104.792 70.3789V71.1072L106.698 70.006V69.2794ZM109.875 67.4448L107.544 68.7904V69.5187L109.875 68.1731V67.4448ZM111.17 108.191L105.923 111.22V111.949L111.17 108.919V108.191ZM112.166 106.368V105.64L110.723 106.474V107.203L112.166 106.368ZM114.942 98.8372L117.257 97.5003V96.7719L114.942 98.1089V98.8372ZM106.698 100.892L104.792 101.993V102.722L106.698 101.62V100.892ZM109.875 83.2529L107.544 84.5985V85.3268L109.875 83.9812V83.2529ZM105.921 96.1459L111.168 93.1164V92.3881L105.921 95.4176V96.1459ZM106.698 92.9933L104.792 94.0928V94.8211L106.698 93.7216V92.9933ZM103.944 82.724L101.017 84.413V85.1413L103.944 83.4523V82.724ZM113.014 74.265L117.179 71.8598V71.1314L113.014 73.5367V74.265ZM105.921 72.4303L111.168 69.4008V68.6725L105.921 71.702V72.4303ZM114.942 90.9384L117.257 89.6014V88.8731L114.942 90.2083V90.9384ZM114.096 82.7933L112.016 83.9933V84.7216L114.096 83.5216V82.7933ZM105.921 84.2881L107.898 83.1471V82.4187L105.921 83.5598V84.2881ZM117.179 75.0835L113.014 77.4887V78.217L117.179 75.8118V75.0835ZM105.921 80.3343L111.271 77.2459L114.096 75.6159V74.8875L111.271 76.5176L105.921 79.606V80.3343ZM108.545 76.1153L107.544 76.6927V77.4211L108.545 76.8436V76.1153ZM114.942 67.2228L117.257 65.8858V65.1575L114.942 66.4945V67.2228ZM54.8344 141.444V140.716L53.5321 141.468V142.197L54.8344 141.444ZM53.5321 140.22L54.8344 139.467V138.739L53.5321 139.492V140.22ZM53.5321 138.243L54.8344 137.49V136.762L53.5321 137.515V138.243ZM53.5321 136.268L54.8344 135.515V134.787L53.5321 135.54V136.268ZM53.5321 134.291L54.8344 133.538V132.81L53.5321 133.563V134.291ZM53.5321 132.316L54.8344 131.563V130.835L53.5321 131.588V132.316ZM53.5321 130.339L54.8344 129.586V128.858L53.5321 129.611V130.339ZM53.5321 128.364L54.8344 127.611V126.883L53.5321 127.636V128.364ZM53.5321 126.387L54.8344 125.634V124.906L53.5321 125.659V126.387ZM53.5321 124.412L54.8344 123.659V122.931L53.5321 123.684V124.412ZM53.5321 122.435L54.8344 121.682V120.954L53.5321 121.707V122.435ZM53.5321 120.458L54.8344 119.705V118.977L53.5321 119.73V120.458ZM53.5321 118.483L54.8344 117.73V117.002L53.5321 117.755V118.483ZM53.5321 116.506L54.8344 115.753V115.025L53.5321 115.778V116.506ZM53.5321 114.531L54.8344 113.778V113.05L53.5321 113.803V114.531ZM53.5321 112.554L54.8344 111.801V111.073L53.5321 111.826V112.554ZM53.5321 110.579L54.8344 109.826V109.098L53.5321 109.851V110.579ZM53.5321 108.602L54.8344 107.849V107.121L53.5321 107.874V108.602ZM53.5303 106.625L54.8326 105.873V105.144L53.5303 105.897V106.625ZM53.5303 104.65L54.8326 103.897V103.169L53.5303 103.922V104.65ZM53.5303 102.673L54.8326 101.92V101.192L53.5303 101.945V102.673ZM53.5303 100.698L54.8326 99.9454V99.217L53.5303 99.9696V100.698ZM58.1535 143.485L60.0592 142.384V141.656L58.1535 142.757V143.485ZM69.0801 136.448L67.0009 137.648V138.377L69.0801 137.177V136.448ZM65.7072 137.147L67.15 136.315V135.586L65.7072 136.42V137.147ZM67.998 135.826L72.1633 133.42V132.692L67.998 135.097V135.826ZM73.0113 132.931L74.6673 131.976V131.248L73.0113 132.203V132.931ZM79.3234 131.262L82.254 129.571V128.842L79.3234 130.535V131.262ZM83.1003 129.082L85.0061 127.981V127.252L83.1003 128.353V129.082ZM92.0413 123.919L95.1731 122.111V121.382L92.0413 123.191V123.919ZM96.0194 121.623L98.9708 119.919V119.19L96.0194 120.895V121.623ZM99.8188 119.43L101.702 118.342V117.614L99.8188 118.701V119.43ZM86.6309 124.339L84.7251 125.44V126.168L86.6309 125.067V124.339ZM89.8078 123.233V122.504L87.4772 123.85V124.578L89.8078 123.233ZM76.8783 132.673L78.4841 131.745V131.017L76.8783 131.945V132.673ZM74.1488 134.249L76.0321 133.162V132.434L74.1488 133.521V134.249ZM58.9303 140.333L56.0032 142.022V142.75L58.9303 141.061V140.333ZM61.6824 138.742L59.7766 139.844V140.572L61.6824 139.471V138.742ZM64.861 136.908L62.5304 138.253V138.982L64.861 137.636V136.908ZM83.8772 125.929L80.7887 127.712V128.44L83.8772 126.657V125.929ZM57.3055 143.246L56.0032 143.999V144.727L57.3055 143.974V143.246ZM79.9494 128.197L75.5136 130.759V131.487L79.9494 128.926V128.197ZM60.9072 141.895L66.1546 138.866V138.137L60.9072 141.167V141.895ZM69.928 136.688L73.3009 134.74V134.012L69.928 135.959V136.688ZM85.854 127.492L91.1933 124.408V123.68L85.854 126.763V127.492ZM93.2431 120.522L90.6541 122.017V122.745L93.2431 121.251V120.522ZM96.6887 118.531L94.0893 120.031V120.76L96.6887 119.26V118.531ZM100.337 116.426L97.5367 118.042V118.771L100.337 117.155V116.426ZM103.167 117.496L105.073 116.395V115.667L103.167 116.768V117.496ZM114.096 110.459L112.016 111.659V112.388L114.096 111.188V110.459ZM110.723 111.158L112.166 110.324V109.596L110.723 110.43V111.158ZM113.014 109.837L117.179 107.431V106.703L113.014 109.108V109.837ZM103.944 114.344L101.017 116.033V116.761L103.944 115.072V114.344ZM106.698 112.753L104.792 113.855V114.583L106.698 113.483V112.753ZM109.875 110.92L107.544 112.266V112.994L109.875 111.649V110.92ZM105.921 115.906L111.168 112.877V112.148L105.921 115.178V115.906ZM114.942 110.699L117.257 109.362V108.633L114.942 109.97V110.699ZM53.5303 146.149L54.8326 145.396V144.668L53.5303 145.421V146.149ZM53.5303 144.172L54.8326 143.419V142.691L53.5303 143.444V144.172Z" fill="white"/>
<path d="M119.315 68.92L51.1267 108.289V39.3674L119.315 -0.000183105V68.92Z" fill="#DDFF00"/>
<path d="M128.953 60.4991L60.7649 99.8685V52.4876L128.953 13.1182V60.4991Z" fill="#A6A6A6"/>
<path d="M128.953 13.3657L60.7649 52.7333V44.9316L128.953 5.56396V13.3657Z" fill="#313131"/>
<path d="M73.0269 86.0284L67.6494 89.1325V83.6493L73.0269 80.5452V86.0284Z" fill="#F7F5ED"/>
<path d="M80.3377 73.7991L74.962 76.9032V84.9113L80.3377 81.8072V73.7991Z" fill="#F7F5ED"/>
<path d="M87.6488 65.8489L82.2731 68.9529V80.6894L87.6488 77.5853V65.8489Z" fill="#F7F5ED"/>
<path d="M94.9616 58.6578L89.5842 61.7619V76.4688L94.9616 73.3648V58.6578Z" fill="#DDFF00"/>
<path d="M102.272 38.0154L96.8967 41.1195V72.2484L102.272 69.1443V38.0154Z" fill="#DDFF00"/>
<path d="M109.584 30.3116L104.208 33.4156V68.0249L109.584 64.9208V30.3116Z" fill="#DDFF00"/>
<path d="M116.896 31.9491L111.519 35.0531V63.8046L116.896 60.7005V31.9491Z" fill="black"/>
<path d="M124.207 24.0794L118.831 27.1817V59.5834L124.207 56.4794V24.0794Z" fill="#788A00"/>
<path d="M65.8303 91.8656V53.5142L65.4817 53.7153V92.4153L124.322 58.4442V58.0957L65.8303 91.8656Z" fill="#CBC7BC"/>
<path d="M71.2753 66.648L68.4574 68.2746V67.6677L71.2753 66.0428V66.648Z" fill="#CBC7BC"/>
<path d="M73.9215 65.1209L72.0885 66.1786V65.5734L73.9215 64.5139V65.1209Z" fill="#CBC7BC"/>
<path d="M78.536 62.455L74.7366 64.6504V64.0435L78.536 61.8498V62.455Z" fill="#CBC7BC"/>
<path d="M83.6933 59.4779L79.3511 61.9854V61.3802L83.6933 58.8727V59.4779Z" fill="#CBC7BC"/>
<path d="M84.5082 58.4031V59.0083L88.8522 56.5008V55.8956L84.5082 58.4031Z" fill="#CBC7BC"/>
<path d="M91.476 54.9848L89.6656 56.0304V55.4235L91.476 54.3796V54.9848Z" fill="#CBC7BC"/>
<path d="M93.9192 53.5745L92.2891 54.5143V53.9091L93.9192 52.9675V53.5745Z" fill="#CBC7BC"/>
<path d="M72.836 67.3919L68.4574 69.9185V69.3133L72.836 66.7867V67.3919Z" fill="#CBC7BC"/>
<path d="M75.4821 65.8648L73.6492 66.9227V66.3157L75.4821 65.2579V65.8648Z" fill="#CBC7BC"/>
<path d="M78.536 64.1007L76.2972 65.3943V64.7874L78.536 63.4955V64.1007Z" fill="#CBC7BC"/>
<path d="M81.8396 62.1951L79.3511 63.631V63.024L81.8396 61.5882V62.1951Z" fill="#CBC7BC"/>
<path d="M82.6526 61.1177V61.7229L86.6567 59.4114V58.8062L82.6526 61.1177Z" fill="#CBC7BC"/>
<path d="M90.1633 57.3885L87.4719 58.9422V58.337L90.1633 56.7833V57.3885Z" fill="#CBC7BC"/>
<path d="M93.9191 55.2184L90.9781 56.9178V56.3109L93.9191 54.6132V55.2184Z" fill="#CBC7BC"/>
<path d="M71.2753 69.9381L68.4574 71.5647V70.9595L71.2753 69.3329V69.9381Z" fill="#CBC7BC"/>
<path d="M73.9215 68.4104L72.0885 69.4682V68.863L73.9215 67.8052V68.4104Z" fill="#CBC7BC"/>
<path d="M78.536 65.7469L74.7366 67.9405V67.3353L78.536 65.14V65.7469Z" fill="#CBC7BC"/>
<path d="M83.6933 62.7686L79.3511 65.2762V64.6692L83.6933 62.1617V62.7686Z" fill="#CBC7BC"/>
<path d="M84.5082 61.6921V62.2973L88.8522 59.7898V59.1846L84.5082 61.6921Z" fill="#CBC7BC"/>
<path d="M91.476 58.2755L89.6656 59.3195V58.7143L91.476 57.6686V58.2755Z" fill="#CBC7BC"/>
<path d="M93.9192 56.8641L92.2891 57.8057V57.1987L93.9192 56.2589V56.8641Z" fill="#CBC7BC"/>
<path d="M72.836 70.682L68.4574 73.2103V72.6034L72.836 70.0768V70.682Z" fill="#CBC7BC"/>
<path d="M75.4821 69.1544L73.6492 70.2122V69.607L75.4821 68.5492V69.1544Z" fill="#CBC7BC"/>
<path d="M78.536 67.3908L76.2972 68.6844V68.0792L78.536 66.7856V67.3908Z" fill="#CBC7BC"/>
<path d="M81.8396 65.4841L79.3511 66.9199V66.3147L81.8396 64.8771V65.4841Z" fill="#CBC7BC"/>
<path d="M71.2753 73.2288L68.4574 74.8536V74.2484L71.2753 72.6218V73.2288Z" fill="#CBC7BC"/>
<path d="M73.9215 71.7011L72.0885 72.7572V72.152L73.9215 71.0942V71.7011Z" fill="#CBC7BC"/>
<path d="M78.536 69.0364L74.7366 71.23V70.6248L78.536 68.4312V69.0364Z" fill="#CBC7BC"/>
<path d="M72.836 73.9728L68.4574 76.4994V75.8942L72.836 73.3658V73.9728Z" fill="#CBC7BC"/>
<path d="M75.4821 72.4433L73.6492 73.5029V72.8959L75.4821 71.8381V72.4433Z" fill="#CBC7BC"/>
<path d="M78.536 70.6815L76.2972 71.9734V71.3682L78.536 70.0745V70.6815Z" fill="#CBC7BC"/>
<path d="M77.8076 51.4179C76.4204 50.3098 74.0828 50.9011 71.8389 52.9248L73.488 57.0502L78.8273 53.9687C78.8273 52.7878 78.5013 51.971 77.8076 51.4179Z" fill="black"/>
<path d="M73.488 57.0503L68.1487 60.1335C68.1487 57.7751 69.595 54.9503 71.8371 52.9266L73.488 57.0503Z" fill="#DDFF00"/>
<path d="M73.488 57.0495L70.3493 63.1813C68.9187 62.968 68.1487 61.9015 68.1487 60.1328L73.488 57.0495Z" fill="#788A00"/>
<path d="M75.139 61.1742C77.3829 59.1505 78.8274 56.3256 78.8274 53.9672L73.4882 57.0487L70.3494 63.1805C71.7818 63.3938 73.4552 62.6932 75.139 61.1742Z" fill="#F7F5ED"/>
<path d="M87.543 48.9341L84.9783 45.7017C83.9378 46.8688 83.2078 48.0618 82.6979 49.4266C81.9332 51.4728 81.98 53.1497 82.8297 54.2214L87.543 48.9341Z" fill="#DDFF00"/>
<path d="M87.5431 48.9346L84.9783 45.7022C87.5812 42.782 90.8396 41.8629 92.2564 43.649C93.6731 45.4351 92.7107 49.2484 90.1078 52.1687C89.0674 53.3357 88.0234 54.1334 86.8477 54.6588L87.5431 48.9346Z" fill="#788A00"/>
<path d="M87.5429 48.9346L86.8475 54.6572C85.0839 55.4444 83.6793 55.2919 82.8296 54.2202L87.5429 48.9346Z" fill="#F7F5ED"/>
<path d="M112.339 112.841L112.422 145.248L115.807 147.215L115.724 114.808L112.339 112.841Z" fill="#DDFF00"/>
<path d="M115.724 114.808L115.807 147.215H120.609L120.526 114.808H115.724Z" fill="#B9D500"/>
<path d="M120.526 114.808L120.609 147.215L124.016 145.248L123.931 112.841L120.526 114.808Z" fill="#869B00"/>
<path d="M123.931 112.842V110.052L120.564 108.094H115.762L112.354 110.06L112.339 112.842L115.724 114.808H120.525L123.931 112.842Z" fill="#9CB400"/>
<path d="M118.165 105.629C119.872 105.629 121.256 104.83 121.256 103.844C121.256 102.859 119.872 102.06 118.165 102.06C116.459 102.06 115.075 102.859 115.075 103.844C115.075 104.83 116.459 105.629 118.165 105.629Z" fill="#F8F6EE"/>
<path d="M121.256 103.827V110.677C121.263 111.14 120.961 111.603 120.35 111.955C119.144 112.652 117.187 112.652 115.98 111.955C115.384 111.612 115.082 111.161 115.075 110.71V103.86C115.082 104.311 115.384 104.762 115.98 105.105C117.187 105.802 119.144 105.802 120.35 105.105C120.961 104.753 121.263 104.29 121.256 103.827Z" fill="url(#paint0_linear_9_1592)"/>
<path d="M137.025 54.5317L131.61 51.4259C135.359 53.5762 137.683 58.2045 137.683 64.782C137.683 77.8606 128.501 93.764 117.21 100.241C111.603 103.456 106.517 103.749 102.817 101.626L108.232 104.732C111.933 106.855 117.019 106.562 122.625 103.347C133.916 96.8715 143.098 80.9663 143.098 67.8877C143.098 61.3103 140.773 56.6819 137.025 54.5317Z" fill="url(#paint1_linear_9_1592)"/>
<path d="M119.386 101.476C130.675 95.0011 139.859 79.0959 139.859 66.0173C139.859 59.9826 137.899 55.5936 134.683 53.2491C138.952 55.1497 141.654 59.9653 141.654 67.0525C141.654 80.1311 132.472 96.0364 121.181 102.511C115.105 105.997 109.642 106.044 105.89 103.309C109.495 104.915 114.219 104.442 119.386 101.476Z" fill="#9DB500"/>
<path d="M119.386 54.048C108.101 60.5214 98.9184 76.4249 98.9184 89.5C98.9184 102.579 108.101 107.949 119.386 101.476C130.675 95.0006 139.859 79.0954 139.859 66.0168C139.857 52.9434 130.675 47.5729 119.386 54.048Z" fill="#DDFF00"/>
<path d="M137.783 59.8253C137.473 60.0039 137.23 60.2172 137.058 60.4652C136.887 60.7114 136.8 60.9699 136.8 61.2404V63.0577C136.8 63.323 136.887 63.4808 137.058 63.5311C137.23 63.5814 137.473 63.5155 137.783 63.3369L138.415 62.9727C138.721 62.7959 138.961 62.5825 139.132 62.3346C139.304 62.0866 139.391 61.8282 139.391 61.5629V61.2889C139.243 60.5849 139.061 59.9172 138.85 59.2808C138.723 59.3103 138.581 59.3676 138.415 59.4629L137.783 59.8253ZM138.779 60.1184V61.8924C138.779 62.1629 138.628 62.3849 138.324 62.5583L137.877 62.8167C137.575 62.9918 137.423 62.945 137.423 62.6745V60.9005C137.423 60.6317 137.574 60.4097 137.877 60.2346L138.324 59.9762C138.628 59.8011 138.779 59.8479 138.779 60.1184ZM137.424 69.9993V67.1502L136.738 67.8907C136.653 67.9722 136.611 67.9791 136.611 67.908V67.5855C136.611 67.5265 136.641 67.4675 136.7 67.4034L137.355 66.6803C137.435 66.5935 137.502 66.5346 137.556 66.5034L137.934 66.2849C138.005 66.2433 138.042 66.2537 138.042 66.3161V69.6404C138.042 69.7028 138.009 69.7531 137.941 69.7912L137.532 70.0271C137.459 70.0721 137.424 70.0618 137.424 69.9993ZM106.396 71.397C106.467 71.3554 106.504 71.3658 106.504 71.4282V74.7525C106.504 74.8149 106.471 74.8652 106.403 74.9034L105.994 75.1409C105.923 75.1826 105.886 75.1721 105.886 75.1097V72.2606L105.2 73.001C105.116 73.0825 105.073 73.0878 105.073 73.0184V72.6958C105.073 72.6369 105.102 72.578 105.161 72.5138L105.817 71.7906C105.897 71.7057 105.964 71.6467 106.018 71.6138L106.396 71.397ZM136.138 54.76C136.138 54.7184 136.171 54.6733 136.202 54.6282C136.28 54.7132 136.358 54.793 136.434 54.8814L136.264 55.0635C136.181 55.145 136.138 55.1502 136.138 55.0826V54.76ZM108.458 70.2074C108.529 70.1658 108.565 70.1762 108.565 70.2386V73.5629C108.565 73.6253 108.532 73.6756 108.465 73.7138L108.056 73.9496C107.984 73.9912 107.948 73.9809 107.948 73.9184V71.0693L107.261 71.8097C107.176 71.8912 107.135 71.8981 107.135 71.8271V71.5046C107.135 71.4456 107.164 71.3849 107.223 71.3225L107.879 70.601C107.958 70.5143 108.026 70.4554 108.08 70.4242L108.458 70.2074ZM106.245 78.0334C105.935 78.2138 105.694 78.4253 105.52 78.6733C105.349 78.9213 105.262 79.178 105.262 79.4485V81.2658C105.262 81.5311 105.349 81.6889 105.52 81.7392C105.692 81.7895 105.935 81.7236 106.245 81.545L106.875 81.1808C107.182 81.004 107.421 80.7906 107.593 80.5427C107.764 80.2947 107.851 80.0363 107.851 79.771V77.9537C107.851 77.6849 107.764 77.5253 107.593 77.4785C107.421 77.4317 107.18 77.4958 106.875 77.6727L106.245 78.0334ZM107.241 78.3265V80.1005C107.241 80.371 107.09 80.5929 106.786 80.7664L106.339 81.0248C106.037 81.1999 105.884 81.1514 105.884 80.8826V79.1086C105.884 78.8398 106.035 78.6178 106.339 78.4427L106.786 78.1843C107.09 78.0109 107.241 78.0577 107.241 78.3265ZM126.647 82.771V79.9218L125.96 80.6623C125.877 80.7438 125.834 80.749 125.834 80.6797V80.3571C125.834 80.2982 125.863 80.2392 125.922 80.1751L126.578 79.4519C126.657 79.3652 126.725 79.308 126.779 79.2751L127.157 79.0565C127.228 79.0149 127.264 79.0253 127.264 79.0878V82.412C127.264 82.4745 127.231 82.5248 127.164 82.5629L126.754 82.8005C126.682 82.8438 126.647 82.8334 126.647 82.771ZM136.951 55.5698C137.166 55.8629 137.376 56.1629 137.568 56.4837V56.8149C137.568 56.8774 137.535 56.9277 137.468 56.9658L137.058 57.2034C136.987 57.245 136.951 57.2346 136.951 57.1722V55.5698ZM105.035 69.1115C105.276 68.6988 105.532 68.2964 105.786 67.8907C105.779 68.1456 105.697 68.3918 105.532 68.6311C105.408 68.8132 105.232 68.9676 105.035 69.1115ZM110.922 91.719C111.094 91.471 111.18 91.2126 111.18 90.9473V89.13C111.18 88.8612 111.094 88.7016 110.922 88.6548C110.75 88.608 110.511 88.6722 110.204 88.849L109.573 89.2132C109.263 89.3935 109.021 89.6069 108.848 89.8531C108.676 90.0993 108.59 90.3577 108.59 90.6282V92.4456C108.59 92.7109 108.676 92.8687 108.848 92.919C109.02 92.9693 109.263 92.9034 109.573 92.7248L110.202 92.3606C110.509 92.182 110.749 91.9687 110.922 91.719ZM109.667 92.2045C109.363 92.3797 109.212 92.3328 109.212 92.0623V90.2884C109.212 90.0196 109.363 89.7959 109.667 89.6225L110.114 89.3641C110.416 89.1889 110.568 89.2375 110.568 89.5063V91.2803C110.568 91.549 110.417 91.771 110.114 91.9462L109.667 92.2045ZM112.542 77.8149V74.9658L111.855 75.7062C111.77 75.7877 111.728 75.7947 111.728 75.7236V75.401C111.728 75.3438 111.758 75.2832 111.817 75.219L112.472 74.4958C112.552 74.4091 112.62 74.3519 112.674 74.319L113.052 74.1005C113.123 74.0589 113.159 74.0693 113.159 74.1317V77.456C113.159 77.5184 113.126 77.5687 113.058 77.6068L112.649 77.8427C112.576 77.8878 112.542 77.8773 112.542 77.8149ZM112.264 84.6196L111.855 84.8554C111.784 84.897 111.747 84.8866 111.747 84.8242V81.9751L111.061 82.7155C110.976 82.797 110.934 82.8022 110.934 82.7328V82.4103C110.934 82.3514 110.964 82.2907 111.023 82.2282L111.678 81.5051C111.758 81.4202 111.826 81.3612 111.879 81.3282L112.257 81.1098C112.328 81.0681 112.365 81.0785 112.365 81.1409V84.4652C112.365 84.5294 112.33 84.5797 112.264 84.6196ZM109.774 104.201V103.065C109.774 102.796 109.623 102.748 109.32 102.923L108.872 103.181C108.571 103.357 108.418 103.579 108.418 103.847V104.043C108.224 104.01 108.023 103.989 107.834 103.948C107.87 103.764 107.932 103.584 108.054 103.41C108.226 103.164 108.468 102.951 108.779 102.77L109.41 102.406C109.717 102.229 109.956 102.165 110.128 102.212C110.3 102.261 110.386 102.418 110.386 102.687V104.189C110.182 104.192 109.973 104.21 109.774 104.201ZM128.795 93.4045V92.0814C128.795 91.8126 128.645 91.7641 128.341 91.9392L127.894 92.1976C127.592 92.3727 127.439 92.5947 127.439 92.8635V94.6375C127.439 94.7485 127.481 94.797 127.533 94.8334C127.349 95.0311 127.162 95.2219 126.976 95.4144C126.881 95.3363 126.817 95.2184 126.817 95.0207V93.2034C126.817 92.9346 126.904 92.6762 127.075 92.4282C127.247 92.182 127.49 91.9687 127.8 91.7884L128.431 91.4242C128.738 91.2473 128.978 91.1832 129.149 91.23C129.321 91.2785 129.408 91.4363 129.408 91.7051V92.671C129.205 92.9207 129.002 93.1635 128.795 93.4045ZM128.776 52.3288L129.432 51.6057C129.512 51.519 129.579 51.4617 129.633 51.4288C129.836 51.4097 129.976 51.4305 130.119 51.4513V54.5658C130.119 54.6282 130.086 54.6785 130.018 54.7167L129.609 54.9525C129.538 54.9941 129.501 54.9837 129.501 54.9213V52.0721L128.815 52.8126C128.73 52.8941 128.688 52.8993 128.688 52.83V52.5074C128.688 52.4519 128.717 52.3912 128.776 52.3288ZM107.152 65.8132V67.0513C107.152 67.3219 107.303 67.3687 107.606 67.1935L108.054 66.9352C108.356 66.76 108.508 66.5381 108.508 66.2693V64.4953C108.508 64.2958 108.397 64.2594 108.232 64.3028C108.399 64.0808 108.574 63.8676 108.744 63.6491C108.78 63.6508 108.827 63.6352 108.86 63.6438C109.032 63.6924 109.119 63.8502 109.119 64.119V65.9363C109.119 66.2017 109.032 66.4583 108.86 66.708C108.689 66.956 108.447 67.1693 108.142 67.3462L107.511 67.7103C107.201 67.8889 106.96 67.9548 106.786 67.9045C106.615 67.8542 106.528 67.6965 106.528 67.4311V66.7097C106.731 66.4063 106.944 66.1132 107.152 65.8132ZM139.857 66.0195C139.857 66.923 139.804 67.8421 139.719 68.7681L139.592 68.841C139.521 68.8826 139.485 68.8722 139.485 68.8097V65.9606L138.798 66.701C138.713 66.7826 138.671 66.7878 138.671 66.7184V66.3959C138.671 66.3369 138.701 66.2762 138.76 66.2138L139.415 65.4906C139.495 65.4039 139.563 65.3467 139.616 65.3138L139.819 65.1959C139.83 65.4751 139.857 65.7351 139.857 66.0195ZM131.563 51.76V52.9583C131.563 53.2288 131.714 53.2756 132.017 53.1005L132.465 52.8421C132.739 52.6825 132.872 52.4814 132.898 52.2438C133.051 52.3132 133.202 52.3843 133.351 52.4606C133.323 52.5126 133.308 52.5647 133.271 52.6167C133.1 52.8647 132.858 53.0779 132.553 53.2548L131.922 53.619C131.612 53.7993 131.371 53.8635 131.197 53.8132C131.026 53.7629 130.939 53.6051 130.939 53.3398V51.5762C131.152 51.6248 131.353 51.7011 131.563 51.76ZM104.726 85.6826C104.554 85.9288 104.468 86.1872 104.468 86.4577V88.2751C104.468 88.5404 104.554 88.6982 104.726 88.7485C104.898 88.7988 105.141 88.7329 105.451 88.5543L106.08 88.1901C106.387 88.0132 106.627 87.7999 106.798 87.5519C106.97 87.304 107.057 87.0456 107.057 86.7803V84.9629C107.057 84.6941 106.97 84.5346 106.798 84.4878C106.627 84.441 106.386 84.5051 106.08 84.682L105.449 85.0462C105.141 85.223 104.898 85.4346 104.726 85.6826ZM105.092 86.1179C105.092 85.8491 105.243 85.6254 105.546 85.452L105.994 85.1935C106.295 85.0184 106.448 85.067 106.448 85.3357V87.1097C106.448 87.3803 106.297 87.6022 105.994 87.7756L105.546 88.034C105.243 88.2091 105.092 88.1623 105.092 87.8918V86.1179ZM115.869 88.9947V86.1456L115.183 86.886C115.098 86.9676 115.056 86.9727 115.056 86.9034V86.5809C115.056 86.5219 115.086 86.4612 115.145 86.3988L115.8 85.6756C115.88 85.5889 115.947 85.5299 116.001 85.4987L116.379 85.2803C116.45 85.2387 116.487 85.249 116.487 85.3114V88.6358C116.487 88.6982 116.454 88.7484 116.386 88.7866L115.977 89.0225C115.904 89.0658 115.869 89.0554 115.869 88.9947ZM107.58 100.199C107.752 100.249 107.995 100.183 108.305 100.005L108.937 99.6404C109.243 99.4635 109.483 99.2502 109.654 99.0022C109.826 98.7543 109.913 98.4959 109.913 98.2305V96.4132C109.913 96.1444 109.826 95.9849 109.654 95.9381C109.483 95.8913 109.242 95.9554 108.937 96.1323L108.305 96.4964C107.995 96.6768 107.752 96.8901 107.58 97.1363C107.409 97.3825 107.322 97.641 107.322 97.9115V99.7288C107.322 99.9907 107.409 100.148 107.58 100.199ZM107.946 97.5698C107.946 97.301 108.097 97.0791 108.401 96.9039L108.848 96.6456C109.15 96.4704 109.302 96.519 109.302 96.7878V98.5618C109.302 98.8323 109.152 99.0543 108.848 99.2277L108.401 99.486C108.099 99.6612 107.946 99.6144 107.946 99.3438V97.5698ZM117.135 101.362V98.5132L116.449 99.2537C116.365 99.3352 116.322 99.3421 116.322 99.2728V98.9502C116.322 98.8913 116.352 98.8323 116.411 98.7681L117.066 98.045C117.146 97.9583 117.213 97.901 117.267 97.8681L117.645 97.6496C117.716 97.608 117.753 97.6184 117.753 97.6809V101.005C117.753 101.068 117.72 101.118 117.652 101.156L117.243 101.394C117.172 101.435 117.135 101.425 117.135 101.362ZM103.011 80.4352C103.011 80.3762 103.041 80.3155 103.1 80.2531L103.755 79.53C103.835 79.4433 103.902 79.3861 103.956 79.3531L104.334 79.1346C104.405 79.093 104.442 79.1034 104.442 79.1658V82.4901C104.442 82.5525 104.409 82.6028 104.341 82.641L103.932 82.8768C103.861 82.9184 103.824 82.908 103.824 82.8456V79.9964L103.138 80.7369C103.053 80.8184 103.011 80.8236 103.011 80.7542V80.4352ZM101.398 90.6681C101.57 90.7184 101.813 90.6525 102.123 90.4739L102.754 90.1097C103.061 89.9328 103.301 89.7196 103.472 89.4716C103.644 89.2236 103.731 88.9652 103.731 88.6999V86.8826C103.731 86.6138 103.644 86.4543 103.472 86.4074C103.301 86.3606 103.06 86.4248 102.754 86.6017L102.123 86.9658C101.813 87.1461 101.57 87.3577 101.398 87.6057C101.225 87.8519 101.14 88.1103 101.14 88.3791V90.1964C101.14 90.4618 101.225 90.6178 101.398 90.6681ZM101.764 88.0392C101.764 87.7704 101.915 87.5485 102.219 87.3733L102.666 87.1149C102.968 86.9398 103.12 86.9883 103.12 87.2571V89.0311C103.12 89.3017 102.969 89.5236 102.666 89.697L102.219 89.9554C101.917 90.1305 101.764 90.0837 101.764 89.8132V88.0392ZM119.991 93.1652V90.3161L119.305 91.0566C119.221 91.1381 119.178 91.1432 119.178 91.0739V90.7514C119.178 90.6924 119.208 90.6317 119.267 90.5693L119.922 89.8462C120.002 89.7595 120.069 89.7022 120.123 89.6693L120.501 89.4508C120.572 89.4092 120.609 89.4195 120.609 89.482V92.8063C120.609 92.8687 120.574 92.919 120.508 92.9572L120.099 93.1947C120.026 93.2363 119.991 93.2259 119.991 93.1652ZM103.824 76.2993V73.4502L103.138 74.1906C103.053 74.2721 103.011 74.2774 103.011 74.208V73.8855C103.011 73.8265 103.041 73.7658 103.1 73.7034L103.755 72.9802C103.835 72.8935 103.902 72.8363 103.956 72.8034L104.334 72.5849C104.405 72.5433 104.442 72.5537 104.442 72.6161V75.9404C104.442 76.0028 104.409 76.0531 104.341 76.0912L103.932 76.3288C103.861 76.3704 103.824 76.36 103.824 76.2993ZM101.764 84.0387V81.1895L101.078 81.93C100.993 82.0115 100.951 82.0166 100.951 81.9473V81.6248C100.951 81.5658 100.98 81.5068 101.039 81.4427L101.695 80.7196C101.775 80.6329 101.842 80.5756 101.896 80.5427L102.274 80.3242C102.345 80.2826 102.382 80.2929 102.382 80.3554V83.6797C102.382 83.7421 102.349 83.7924 102.281 83.8306L101.872 84.0664C101.799 84.1097 101.764 84.0993 101.764 84.0387ZM118.372 93.9681C118.543 93.7201 118.63 93.4617 118.63 93.1964V91.3791C118.63 91.1103 118.543 90.9508 118.372 90.9039C118.2 90.8571 117.961 90.9213 117.654 91.0982L117.023 91.4623C116.712 91.6427 116.471 91.856 116.298 92.1022C116.126 92.3485 116.039 92.6068 116.039 92.8774V94.6947C116.039 94.96 116.126 95.1178 116.298 95.1681C116.469 95.2184 116.712 95.1525 117.023 94.9739L117.654 94.6097C117.959 94.4311 118.198 94.2178 118.372 93.9681ZM118.018 93.5294C118.018 93.7982 117.867 94.0201 117.564 94.1953L117.116 94.4536C116.815 94.6288 116.662 94.582 116.662 94.3115V92.5375C116.662 92.2687 116.813 92.045 117.116 91.8716L117.564 91.6132C117.865 91.438 118.018 91.4866 118.018 91.7554V93.5294ZM105.884 101.309V98.4594L105.198 99.1999C105.113 99.2814 105.071 99.2866 105.071 99.2173V98.8947C105.071 98.8357 105.101 98.775 105.16 98.7126L105.815 97.9895C105.895 97.9028 105.963 97.8438 106.016 97.8126L106.394 97.5941C106.465 97.5525 106.502 97.5629 106.502 97.6253V100.95C106.502 101.012 106.469 101.062 106.401 101.1L105.992 101.336C105.921 101.381 105.884 101.371 105.884 101.309ZM108.054 83.7612C107.882 84.0074 107.795 84.2658 107.795 84.5363V86.3537C107.795 86.619 107.882 86.7768 108.054 86.8271C108.226 86.8774 108.468 86.8115 108.779 86.6329L109.41 86.2687C109.717 86.0918 109.956 85.8785 110.128 85.6306C110.3 85.3826 110.386 85.1242 110.386 84.8589V83.0415C110.386 82.7727 110.3 82.6132 110.128 82.5664C109.956 82.5196 109.715 82.5837 109.41 82.7606L108.779 83.1248C108.468 83.3016 108.226 83.5132 108.054 83.7612ZM108.42 84.1965C108.42 83.9277 108.571 83.704 108.874 83.5306L109.321 83.2721C109.623 83.097 109.776 83.1456 109.776 83.4143V85.1884C109.776 85.4571 109.625 85.6791 109.321 85.8543L108.874 86.1126C108.572 86.2878 108.42 86.2409 108.42 85.9704V84.1965ZM107.152 94.0271V91.178L106.465 91.9184C106.38 91.9999 106.339 92.0068 106.339 91.9357V91.6132C106.339 91.5542 106.368 91.4936 106.427 91.4311L107.083 90.708C107.163 90.6213 107.23 90.5641 107.284 90.5311L107.662 90.3126C107.733 90.271 107.769 90.2814 107.769 90.3438V93.6681C107.769 93.7305 107.737 93.7808 107.669 93.819L107.26 94.0548C107.189 94.0982 107.152 94.0895 107.152 94.0271ZM111.274 98.1976V95.3485L110.587 96.089C110.502 96.1705 110.461 96.1756 110.461 96.1063V95.7837C110.461 95.7247 110.49 95.6641 110.549 95.6017L111.205 94.8785C111.285 94.7918 111.352 94.7346 111.406 94.7016L111.784 94.4831C111.855 94.4415 111.891 94.4519 111.891 94.5143V97.8386C111.891 97.901 111.858 97.9513 111.791 97.9895L111.382 98.2271C111.31 98.2687 111.274 98.2583 111.274 98.1976ZM123.319 97.7935V94.9444L122.632 95.6849C122.548 95.7664 122.506 95.7733 122.506 95.7022V95.3797C122.506 95.3207 122.535 95.26 122.594 95.1976L123.25 94.4745C123.33 94.3878 123.397 94.3305 123.451 94.2976L123.829 94.0791C123.9 94.0375 123.937 94.0479 123.937 94.1103V97.4346C123.937 97.497 123.904 97.5473 123.836 97.5854L123.427 97.8213C123.354 97.8664 123.319 97.856 123.319 97.7935ZM108.848 76.752C108.676 76.9982 108.59 77.2565 108.59 77.5253V79.3427C108.59 79.608 108.676 79.7658 108.848 79.8161C109.02 79.8664 109.263 79.8005 109.573 79.6219L110.204 79.2577C110.511 79.0808 110.75 78.8676 110.922 78.6196C111.094 78.3716 111.18 78.1132 111.18 77.8479V76.0305C111.18 75.7618 111.094 75.6022 110.922 75.5554C110.75 75.5086 110.509 75.5728 110.204 75.7496L109.573 76.1138C109.263 76.2924 109.02 76.5057 108.848 76.752ZM109.214 77.1889C109.214 76.9184 109.365 76.6964 109.668 76.523L110.116 76.2647C110.417 76.0895 110.57 76.1381 110.57 76.4069V78.1808C110.57 78.4513 110.419 78.6733 110.116 78.8467L109.668 79.1051C109.365 79.2803 109.214 79.2317 109.214 78.9629V77.1889ZM112.176 90.9959C112.348 91.0462 112.59 90.9803 112.901 90.8016L113.532 90.4375C113.839 90.2606 114.078 90.0473 114.25 89.7993C114.421 89.5514 114.508 89.293 114.508 89.0276V87.2103C114.508 86.9415 114.421 86.782 114.25 86.7352C114.078 86.6884 113.839 86.7525 113.532 86.9294L112.901 87.2935C112.59 87.4721 112.349 87.6855 112.176 87.9335C112.004 88.1797 111.917 88.4381 111.917 88.7086V90.5259C111.917 90.7878 112.002 90.9456 112.176 90.9959ZM112.542 88.367C112.542 88.0982 112.693 87.8745 112.996 87.7011L113.443 87.4427C113.745 87.2675 113.898 87.3161 113.898 87.5849V89.3589C113.898 89.6277 113.747 89.8496 113.443 90.0248L112.996 90.2831C112.694 90.4583 112.542 90.4115 112.542 90.1409V88.367ZM125.379 96.604V93.7548L124.693 94.4953C124.608 94.5768 124.566 94.582 124.566 94.5126V94.1901C124.566 94.1311 124.595 94.0704 124.654 94.008L125.31 93.2849C125.39 93.1982 125.457 93.1409 125.511 93.108L125.889 92.8895C125.96 92.8479 125.997 92.8583 125.997 92.9207V96.245C125.997 96.3074 125.964 96.3577 125.896 96.3958L125.487 96.6317C125.416 96.6751 125.379 96.6647 125.379 96.604ZM121.257 98.9831V96.134L120.571 96.8745C120.486 96.956 120.444 96.9629 120.444 96.8918V96.5693C120.444 96.5103 120.474 96.4496 120.532 96.3872L121.188 95.6641C121.268 95.5773 121.335 95.5201 121.389 95.4872L121.767 95.2687C121.838 95.2271 121.875 95.2375 121.875 95.2999V98.6242C121.875 98.6866 121.842 98.7369 121.774 98.775L121.365 99.0126C121.294 99.056 121.257 99.0456 121.257 98.9831ZM109.283 70.1346L109.939 69.4115C110.019 69.3248 110.086 69.2675 110.14 69.2346L110.518 69.0161C110.589 68.9744 110.626 68.9849 110.626 69.0473V72.3716C110.626 72.434 110.593 72.4843 110.525 72.5224L110.116 72.7583C110.045 72.7999 110.008 72.7895 110.008 72.7271V69.8779L109.321 70.6184C109.238 70.6999 109.195 70.7051 109.195 70.6358V70.3132C109.195 70.2577 109.224 70.197 109.283 70.1346ZM110.48 65.9051V63.056L109.793 63.7964C109.708 63.8779 109.667 63.8831 109.667 63.8138V63.4913C109.667 63.434 109.696 63.3733 109.755 63.3092L110.41 62.586C110.49 62.4993 110.558 62.4421 110.612 62.4091L110.99 62.1907C111.061 62.1491 111.097 62.1594 111.097 62.2218V65.5462C111.097 65.6086 111.064 65.6589 110.997 65.697L110.587 65.9329C110.516 65.9779 110.48 65.9676 110.48 65.9051ZM103.458 96.0283C103.63 96.0785 103.873 96.0126 104.183 95.834L104.815 95.4698C105.121 95.293 105.361 95.0797 105.532 94.8317C105.704 94.5837 105.791 94.3253 105.791 94.06V92.2427C105.791 91.9739 105.704 91.8144 105.532 91.7658C105.361 91.719 105.12 91.7831 104.815 91.96L104.183 92.3242C103.873 92.5028 103.63 92.7178 103.458 92.9641C103.285 93.2103 103.2 93.4687 103.2 93.7375V95.5548C103.2 95.8201 103.287 95.978 103.458 96.0283ZM103.824 93.3993C103.824 93.1305 103.975 92.9086 104.279 92.7334L104.726 92.4751C105.028 92.2999 105.18 92.3485 105.18 92.6172V94.3913C105.18 94.66 105.03 94.8837 104.726 95.0572L104.279 95.3155C103.977 95.4907 103.824 95.4438 103.824 95.1733V93.3993ZM124.018 88.2681C124.018 87.9993 123.931 87.8398 123.76 87.7929C123.588 87.7461 123.347 87.8103 123.042 87.9872L122.41 88.3514C122.1 88.5317 121.857 88.745 121.686 88.9912C121.514 89.2375 121.427 89.4958 121.427 89.7664V91.5837C121.427 91.849 121.514 92.0068 121.686 92.0571C121.857 92.1074 122.1 92.0415 122.41 91.8629L123.042 91.4988C123.349 91.3219 123.588 91.1086 123.76 90.8606C123.931 90.6126 124.018 90.3542 124.018 90.0889V88.2681ZM123.408 90.4166C123.408 90.6854 123.257 90.9091 122.953 91.0826L122.506 91.341C122.204 91.5161 122.052 91.4675 122.052 91.1988V89.4248C122.052 89.1542 122.202 88.9323 122.506 88.7589L122.953 88.5005C123.255 88.3254 123.408 88.3722 123.408 88.6427V90.4166ZM124.308 74.1542L123.678 74.5184C123.368 74.6987 123.127 74.9103 122.953 75.1583C122.782 75.4063 122.695 75.6629 122.695 75.9334V77.7508C122.695 78.0161 122.782 78.1739 122.953 78.2242C123.125 78.2745 123.368 78.2086 123.678 78.03L124.308 77.6658C124.615 77.4889 124.854 77.2756 125.026 77.0277C125.197 76.7797 125.284 76.5213 125.284 76.256V74.4386C125.284 74.1698 125.197 74.0103 125.026 73.9635C124.854 73.9132 124.615 73.9774 124.308 74.1542ZM124.674 76.5855C124.674 76.856 124.523 77.078 124.219 77.2514L123.772 77.5097C123.47 77.6849 123.317 77.6363 123.317 77.3675V75.5936C123.317 75.3231 123.468 75.1011 123.772 74.9277L124.219 74.6693C124.521 74.4941 124.674 74.5427 124.674 74.8115V76.5855ZM133.731 78.5502C133.902 78.6005 134.145 78.5346 134.456 78.356L135.085 77.9918C135.392 77.815 135.631 77.6016 135.805 77.3537C135.976 77.1057 136.063 76.8473 136.063 76.582V74.7646C136.063 74.4958 135.976 74.3363 135.805 74.2878C135.633 74.2409 135.392 74.3051 135.087 74.482L134.457 74.8462C134.147 75.0248 133.904 75.2381 133.732 75.486C133.561 75.7323 133.474 75.9906 133.474 76.2594V78.0768C133.472 78.3438 133.559 78.4999 133.731 78.5502ZM134.097 75.9213C134.097 75.6508 134.248 75.4288 134.551 75.2554L134.998 74.997C135.3 74.8219 135.453 74.8704 135.453 75.1392V76.9132C135.453 77.182 135.302 77.404 134.998 77.5791L134.551 77.8375C134.249 78.0126 134.097 77.9641 134.097 77.6953V75.9213ZM125.997 89.697C125.997 89.7595 125.964 89.8097 125.896 89.8479L125.487 90.0855C125.416 90.1271 125.379 90.1167 125.379 90.0542V87.2051L124.693 87.9456C124.608 88.0271 124.566 88.0323 124.566 87.9629V87.6404C124.566 87.5814 124.595 87.5224 124.654 87.4583L125.31 86.7352C125.39 86.6485 125.457 86.5913 125.511 86.5583L125.889 86.3398C125.96 86.2982 125.997 86.3086 125.997 86.371V89.697ZM133.743 65.4438C133.915 65.1958 134.001 64.9375 134.001 64.6722V62.8548C134.001 62.586 133.915 62.4265 133.743 62.378C133.571 62.3311 133.332 62.3953 133.025 62.5722L132.394 62.9363C132.083 63.1149 131.842 63.3299 131.669 63.5762C131.497 63.8224 131.411 64.0808 131.411 64.3496V66.167C131.411 66.4323 131.497 66.5901 131.669 66.6403C131.841 66.6906 132.083 66.6247 132.394 66.4461L133.025 66.082C133.332 65.9051 133.571 65.6918 133.743 65.4438ZM132.489 65.9277C132.187 66.1028 132.035 66.056 132.035 65.7855V64.0115C132.035 63.7427 132.186 63.5207 132.489 63.3456L132.937 63.0872C133.238 62.9121 133.391 62.9606 133.391 63.2294V65.0034C133.391 65.2721 133.24 65.4941 132.937 65.6693L132.489 65.9277ZM135.363 64.6392V61.7901L134.676 62.5305C134.591 62.612 134.549 62.619 134.549 62.5479V62.2253C134.549 62.1664 134.579 62.1057 134.638 62.0432L135.293 61.3201C135.373 61.2334 135.441 61.1762 135.494 61.1433L135.872 60.9248C135.943 60.8831 135.98 60.8936 135.98 60.956V64.2802C135.98 64.3427 135.947 64.393 135.879 64.4311L135.47 64.6669C135.399 64.712 135.363 64.7016 135.363 64.6392ZM118.894 65.0276V66.845C118.894 67.1103 118.98 67.2681 119.152 67.3184C119.324 67.3687 119.567 67.3028 119.877 67.1242L120.506 66.76C120.813 66.5831 121.053 66.3699 121.224 66.1219C121.396 65.8739 121.483 65.6155 121.483 65.3502V63.5328C121.483 63.2641 121.396 63.1045 121.224 63.056C121.053 63.0092 120.813 63.0733 120.506 63.2502L119.875 63.6143C119.565 63.793 119.322 64.0063 119.15 64.2543C118.98 64.4988 118.894 64.7571 118.894 65.0276ZM119.518 64.6895C119.518 64.4207 119.669 64.1987 119.972 64.0236L120.42 63.7652C120.721 63.5901 120.874 63.6386 120.874 63.9074V65.6814C120.874 65.9502 120.723 66.1722 120.42 66.3473L119.972 66.6057C119.671 66.7808 119.518 66.734 119.518 66.4635V64.6895ZM136.063 68.215C136.063 67.9462 135.976 67.7866 135.805 67.7398C135.633 67.693 135.392 67.7571 135.087 67.934L134.457 68.2982C134.147 68.4785 133.904 68.6918 133.732 68.9381C133.561 69.1843 133.474 69.4427 133.474 69.7132V71.5305C133.474 71.7959 133.561 71.9537 133.732 72.004C133.904 72.0543 134.147 71.9884 134.457 71.8097L135.087 71.4455C135.394 71.2687 135.633 71.0554 135.805 70.8074C135.976 70.5595 136.063 70.3011 136.063 70.0357V68.215ZM135.451 70.3635C135.451 70.6323 135.3 70.8542 134.997 71.0294L134.549 71.2878C134.247 71.4629 134.095 71.4144 134.095 71.1456V69.3716C134.095 69.1028 134.246 68.8808 134.549 68.7057L134.997 68.4473C135.298 68.2722 135.451 68.319 135.451 68.5895V70.3635ZM127.075 88.9427C127.247 88.993 127.49 88.9271 127.8 88.7485L128.431 88.3843C128.738 88.2074 128.978 87.9941 129.149 87.7462C129.321 87.4982 129.408 87.2398 129.408 86.9745V85.1571C129.408 84.8883 129.321 84.7288 129.149 84.682C128.978 84.6352 128.737 84.6993 128.431 84.8762L127.8 85.2404C127.49 85.419 127.247 85.634 127.075 85.8802C126.904 86.1265 126.817 86.3849 126.817 86.6554V88.4727C126.817 88.7363 126.902 88.8941 127.075 88.9427ZM127.441 86.3138C127.441 86.045 127.592 85.823 127.895 85.6479L128.343 85.3895C128.645 85.2144 128.797 85.2629 128.797 85.5317V87.3057C128.797 87.5745 128.646 87.7982 128.343 87.9716L127.895 88.23C127.594 88.4051 127.441 88.3583 127.441 88.0878V86.3138ZM130.415 80.4647C130.587 80.2167 130.674 79.9583 130.674 79.693V77.8756C130.674 77.6068 130.587 77.4473 130.415 77.4005C130.243 77.3537 130.004 77.4178 129.697 77.5947L129.066 77.9589C128.756 78.1375 128.513 78.3525 128.341 78.5987C128.169 78.8467 128.083 79.1034 128.083 79.3739V81.1913C128.083 81.4566 128.169 81.6143 128.341 81.6646C128.513 81.7149 128.756 81.649 129.066 81.4704L129.695 81.1063C130.004 80.9259 130.243 80.7126 130.415 80.4647ZM129.161 80.9485C128.86 81.1236 128.707 81.075 128.707 80.8063V79.0323C128.707 78.7635 128.858 78.5415 129.161 78.3664L129.609 78.108C129.91 77.9328 130.063 77.9814 130.063 78.2502V80.0242C130.063 80.293 129.912 80.515 129.609 80.6901L129.161 80.9485ZM119.235 57.434C119.306 57.3924 119.343 57.4028 119.343 57.4652V60.7895C119.343 60.8519 119.31 60.9022 119.242 60.9404L118.833 61.1762C118.762 61.2178 118.726 61.2074 118.726 61.145V58.2959L118.039 59.0363C117.954 59.1178 117.912 59.1247 117.912 59.0536V58.7311C117.912 58.6721 117.942 58.6115 118.001 58.549L118.656 57.8276C118.736 57.7409 118.804 57.682 118.857 57.6508L119.235 57.434ZM130.403 87.0213C130.575 87.0716 130.817 87.0057 131.128 86.8271L131.757 86.4629C132.064 86.286 132.304 86.0728 132.475 85.8248C132.647 85.5768 132.734 85.3184 132.734 85.0531V83.2357C132.734 82.967 132.647 82.8074 132.475 82.7606C132.304 82.7138 132.064 82.778 131.757 82.9548L131.128 83.319C130.817 83.4993 130.576 83.7126 130.403 83.9588C130.231 84.2051 130.145 84.4635 130.145 84.734V86.5514C130.145 86.815 130.231 86.9728 130.403 87.0213ZM130.769 84.3941C130.769 84.1236 130.92 83.9016 131.223 83.7282L131.671 83.4699C131.972 83.2947 132.125 83.3415 132.125 83.6121V85.386C132.125 85.6548 131.974 85.8785 131.671 86.0519L131.223 86.3103C130.921 86.4855 130.769 86.4369 130.769 86.1681V84.3941ZM132.035 79.66V76.8109L131.348 77.5514C131.265 77.6329 131.221 77.6398 131.221 77.5687V77.2461C131.221 77.1872 131.251 77.1282 131.31 77.0641L131.965 76.341C132.045 76.2543 132.113 76.197 132.167 76.1641L132.545 75.9455C132.616 75.9039 132.652 75.9143 132.652 75.9768V79.3011C132.652 79.3635 132.619 79.4138 132.552 79.4519L132.142 79.6895C132.071 79.7329 132.035 79.7224 132.035 79.66ZM131.563 60.2831V57.434L130.876 58.1745C130.791 58.256 130.75 58.2629 130.75 58.1918V57.8693C130.75 57.8103 130.779 57.7496 130.838 57.6872L131.494 56.9658C131.574 56.8791 131.641 56.8201 131.695 56.7889L132.073 56.5704C132.144 56.5288 132.18 56.5392 132.18 56.6016V59.9259C132.18 59.9884 132.146 60.0386 132.08 60.0768L131.671 60.3144C131.598 60.356 131.563 60.3456 131.563 60.2831ZM132.654 72.7548C132.654 72.8172 132.621 72.8675 132.553 72.9057L132.144 73.1432C132.073 73.1849 132.037 73.1745 132.037 73.1121V70.2629L131.35 71.0034C131.267 71.0849 131.223 71.0901 131.223 71.0207V70.6981C131.223 70.6392 131.253 70.5803 131.312 70.5161L131.967 69.793C132.047 69.7063 132.115 69.649 132.168 69.6161L132.546 69.3976C132.617 69.356 132.654 69.3664 132.654 69.4288V72.7548ZM135.331 54.9109C135.16 54.8641 134.919 54.9282 134.613 55.1051L133.982 55.4693C133.672 55.6496 133.429 55.8629 133.257 56.1091C133.086 56.3571 132.999 56.6138 132.999 56.8843V58.7016C132.999 58.9669 133.086 59.1248 133.257 59.175C133.429 59.2253 133.672 59.1594 133.982 58.9808L134.613 58.6167C134.92 58.4398 135.16 58.2265 135.331 57.9785C135.503 57.7305 135.59 57.4721 135.59 57.2068V55.3895C135.59 55.1173 135.505 54.9595 135.331 54.9109ZM134.979 57.5363C134.979 57.8051 134.828 58.0271 134.525 58.2022L134.078 58.4606C133.774 58.6358 133.623 58.5872 133.623 58.3184V56.5444C133.623 56.2739 133.774 56.0519 134.078 55.8785L134.525 55.6202C134.827 55.445 134.979 55.4936 134.979 55.7623V57.5363ZM114.602 63.5259V60.6768L113.915 61.4172C113.832 61.4987 113.789 61.504 113.789 61.4346V61.112C113.789 61.0531 113.818 60.9924 113.877 60.9299L114.532 60.2068C114.612 60.1201 114.68 60.0629 114.734 60.03L115.112 59.8115C115.183 59.7698 115.219 59.7803 115.219 59.8427V63.167C115.219 63.2294 115.186 63.2797 115.119 63.3178L114.709 63.5554C114.638 63.5987 114.602 63.5866 114.602 63.5259ZM119.714 99.9681L119.305 100.204C119.234 100.246 119.197 100.235 119.197 100.173V97.3236L118.511 98.0641C118.426 98.1456 118.384 98.1525 118.384 98.0814V97.7589C118.384 97.6999 118.413 97.6392 118.472 97.5768L119.128 96.8537C119.208 96.7687 119.275 96.7097 119.329 96.6768L119.707 96.4583C119.778 96.4167 119.815 96.4271 119.815 96.4895V99.8138C119.815 99.8779 119.782 99.9283 119.714 99.9681ZM111.728 62.6242V62.3017C111.728 62.2427 111.758 62.182 111.817 62.1195L112.472 61.3982C112.552 61.3115 112.62 61.2525 112.674 61.2213L113.052 61.0028C113.123 60.9612 113.159 60.9716 113.159 61.034V64.3583C113.159 64.4207 113.126 64.471 113.058 64.5091L112.649 64.745C112.578 64.7866 112.542 64.7762 112.542 64.7138V61.8646L111.855 62.6051C111.77 62.6883 111.728 62.6953 111.728 62.6242ZM138.401 75.5918C138.345 75.7843 138.305 75.9751 138.246 76.1676L137.783 76.4346C137.473 76.6132 137.23 76.6791 137.058 76.6288C136.885 76.5785 136.8 76.4207 136.8 76.1554V74.338C136.8 74.0692 136.887 73.8109 137.058 73.5629C137.23 73.3167 137.473 73.1034 137.783 72.923L138.413 72.5589C138.72 72.382 138.959 72.3179 139.131 72.3647C139.051 72.9889 138.926 73.582 138.777 74.1768V73.2161C138.777 72.9456 138.626 72.8988 138.323 73.0739L137.875 73.3323C137.574 73.5074 137.421 73.7294 137.421 73.9982V75.7722C137.421 76.041 137.572 76.0895 137.875 75.9144L138.323 75.656C138.359 75.6386 138.371 75.6126 138.401 75.5918ZM136.516 80.2062L136.873 79.9999C136.791 80.2011 136.713 80.4039 136.628 80.6051C136.308 80.7907 136.157 81.0126 136.157 81.2814V81.7028C135.957 82.1467 135.746 82.5872 135.532 83.0259V81.6195C135.532 81.3508 135.619 81.0924 135.791 80.8444C135.964 80.5999 136.205 80.3866 136.516 80.2062ZM111.747 104.128V101.624L111.061 102.365C110.978 102.446 110.934 102.451 110.934 102.382V102.059C110.934 102 110.964 101.94 111.023 101.877L111.678 101.154C111.758 101.068 111.826 101.01 111.879 100.977L112.257 100.759C112.328 100.717 112.365 100.728 112.365 100.79V104.033C112.158 104.068 111.95 104.107 111.747 104.128ZM134.714 81.3404V84.6386C134.69 84.6837 134.665 84.7288 134.641 84.7739C134.613 84.8155 134.204 85.0513 134.204 85.0513C134.133 85.093 134.097 85.0825 134.097 85.0201V82.171L133.41 82.9114C133.327 82.9929 133.283 82.9982 133.283 82.9288V82.6062C133.283 82.5473 133.313 82.4884 133.372 82.4242L134.027 81.701C134.107 81.6143 134.175 81.5571 134.228 81.5242L134.606 81.3057C134.678 81.2675 134.714 81.278 134.714 81.3404ZM101.764 77.4889V75.8675C101.965 75.356 102.161 74.8427 102.382 74.3363V77.1317C102.382 77.1941 102.349 77.2444 102.281 77.2826L101.872 77.5184C101.799 77.56 101.764 77.5496 101.764 77.4889ZM111.343 68.945L111.999 68.2219C112.079 68.1352 112.146 68.0779 112.2 68.045L112.578 67.8265C112.649 67.7849 112.686 67.7953 112.686 67.8577V71.182C112.686 71.2444 112.653 71.2947 112.585 71.3329L112.176 71.5687C112.105 71.6103 112.068 71.5999 112.068 71.5375V68.6883L111.382 69.4288C111.298 69.5103 111.255 69.5172 111.255 69.4461V69.1236C111.255 69.0681 111.285 69.0074 111.343 68.945ZM103.824 102.054V99.649L103.138 100.389C103.054 100.471 103.011 100.476 103.011 100.407V100.084C103.011 100.025 103.041 99.9664 103.1 99.9022L103.755 99.1791C103.835 99.0924 103.902 99.0352 103.956 99.0022L104.334 98.7837C104.405 98.7421 104.442 98.7525 104.442 98.8149V102.139C104.442 102.202 104.409 102.252 104.341 102.29L104.244 102.346C104.104 102.25 103.96 102.16 103.824 102.054ZM102.382 100.696C102.236 100.528 102.109 100.331 101.972 100.152L102.274 99.9768C102.345 99.9351 102.382 99.9456 102.382 100.008V100.696ZM100.951 95.0467V94.7242C100.951 94.6652 100.98 94.6045 101.039 94.5421L101.695 93.819C101.775 93.7323 101.842 93.6751 101.896 93.6421L102.274 93.4236C102.345 93.382 102.382 93.3924 102.382 93.4548V96.7791C102.382 96.8415 102.349 96.8918 102.281 96.93L101.872 97.1658C101.801 97.2074 101.764 97.197 101.764 97.1346V94.2855L101.078 95.0259C100.993 95.1109 100.951 95.1161 100.951 95.0467ZM130.769 90.9334V90.6438L130.082 91.3843C129.999 91.4658 129.956 91.471 129.956 91.4017V91.0791C129.956 91.0201 129.985 90.9594 130.044 90.897L130.7 90.1739C130.779 90.0872 130.847 90.03 130.901 89.997L131.279 89.7785C131.35 89.7369 131.386 89.7473 131.386 89.8098V90.0508C131.18 90.3456 130.98 90.6456 130.769 90.9334ZM113.442 103.365C113.613 103.416 113.856 103.35 114.167 103.171L114.796 102.807C115.103 102.63 115.342 102.417 115.514 102.169C115.686 101.921 115.772 101.662 115.772 101.397V99.5797C115.772 99.3109 115.686 99.1513 115.514 99.1045C115.342 99.0577 115.101 99.1219 114.796 99.2987L114.167 99.6629C113.856 99.8415 113.613 100.057 113.442 100.303C113.268 100.551 113.183 100.807 113.183 101.078V102.895C113.183 103.157 113.27 103.315 113.442 103.365ZM113.808 100.736C113.808 100.466 113.958 100.244 114.262 100.07L114.709 99.812C115.011 99.6369 115.164 99.6854 115.164 99.9542V101.728C115.164 101.997 115.013 102.221 114.709 102.394L114.262 102.652C113.96 102.828 113.808 102.779 113.808 102.51V100.736ZM112.97 97.0878C113.142 97.1381 113.384 97.0722 113.695 96.8936L114.326 96.5294C114.633 96.3525 114.872 96.1392 115.044 95.8912C115.216 95.6433 115.302 95.3849 115.302 95.1195V93.3022C115.302 93.0334 115.216 92.8739 115.044 92.8271C114.872 92.7803 114.631 92.8444 114.326 93.0213L113.695 93.3854C113.384 93.5658 113.142 93.7774 112.97 94.0254C112.798 94.2716 112.712 94.53 112.712 94.8005V96.6178C112.712 96.8797 112.797 97.0375 112.97 97.0878ZM113.334 94.4589C113.334 94.1901 113.485 93.9664 113.789 93.793L114.236 93.5346C114.538 93.3594 114.69 93.408 114.69 93.6768V95.4508C114.69 95.7213 114.539 95.9433 114.236 96.1167L113.789 96.375C113.487 96.5502 113.334 96.5034 113.334 96.2328V94.4589ZM113.183 81.4236V83.2409C113.183 83.5062 113.27 83.6641 113.442 83.7144C113.613 83.7646 113.856 83.6987 114.167 83.5201L114.798 83.156C115.105 82.9791 115.344 82.7658 115.516 82.5178C115.687 82.2698 115.774 82.0114 115.774 81.7461V79.9288C115.774 79.66 115.687 79.5005 115.516 79.4537C115.344 79.4068 115.103 79.471 114.798 79.6479L114.168 80.012C113.858 80.1906 113.615 80.404 113.443 80.6519C113.27 80.8965 113.183 81.1548 113.183 81.4236ZM113.808 81.0855C113.808 80.8149 113.958 80.593 114.262 80.4196L114.709 80.1612C115.011 79.986 115.164 80.0346 115.164 80.3034V82.0774C115.164 82.3479 115.013 82.5698 114.709 82.7433L114.262 83.0016C113.958 83.1768 113.808 83.1282 113.808 82.8594V81.0855ZM127.913 68.9398V66.0907L127.226 66.8311C127.141 66.9126 127.1 66.9195 127.1 66.8484V66.5259C127.1 66.467 127.129 66.408 127.188 66.3438L127.843 65.6207C127.923 65.534 127.991 65.4768 128.045 65.4438L128.423 65.2254C128.494 65.1837 128.53 65.1941 128.53 65.2565V68.5808C128.53 68.6433 128.497 68.6936 128.43 68.7317L128.02 68.9675C127.949 69.0126 127.913 69.0022 127.913 68.9398ZM119.638 86.6866C119.809 86.4386 119.896 86.1803 119.896 85.915V84.0976C119.896 83.8288 119.809 83.6693 119.638 83.6224C119.466 83.5756 119.225 83.6398 118.92 83.8167L118.289 84.1809C117.978 84.3612 117.735 84.5745 117.564 84.8207C117.392 85.067 117.305 85.3253 117.305 85.5958V87.4132C117.305 87.6785 117.392 87.8363 117.564 87.8866C117.735 87.9369 117.978 87.871 118.289 87.6924L118.92 87.3283C119.227 87.1479 119.466 86.9363 119.638 86.6866ZM118.384 87.1704C118.082 87.3456 117.93 87.2988 117.93 87.0282V85.2542C117.93 84.9855 118.08 84.7617 118.384 84.5883L118.831 84.33C119.133 84.1548 119.286 84.2034 119.286 84.4722V86.2461C119.286 86.5149 119.135 86.7369 118.831 86.912L118.384 87.1704ZM117.174 58.6236C117.245 58.582 117.281 58.5924 117.281 58.6548V61.9791C117.281 62.0415 117.248 62.0918 117.18 62.13L116.771 62.3675C116.7 62.4092 116.664 62.3987 116.664 62.3363V59.4872L115.977 60.2276C115.892 60.3091 115.85 60.3144 115.85 60.2467V59.9242C115.85 59.8652 115.88 59.8063 115.939 59.7421L116.594 59.019C116.674 58.9323 116.742 58.8751 116.795 58.8421L117.174 58.6236ZM126.647 76.2213V73.3722L125.96 74.1126C125.877 74.1941 125.834 74.1993 125.834 74.1317V73.8091C125.834 73.7502 125.863 73.6895 125.922 73.6271L126.578 72.9039C126.657 72.8172 126.725 72.76 126.779 72.7271L127.157 72.5086C127.228 72.4669 127.264 72.4774 127.264 72.5398V75.864C127.264 75.9265 127.231 75.9768 127.164 76.0149L126.754 76.2525C126.682 76.2941 126.647 76.2837 126.647 76.2213ZM119.896 70.9982C119.896 70.7294 119.809 70.5699 119.638 70.523C119.466 70.4762 119.225 70.5404 118.92 70.7173L118.29 71.0814C117.98 71.26 117.739 71.4733 117.565 71.7213C117.394 71.9676 117.307 72.2259 117.307 72.4947V74.312C117.307 74.5774 117.394 74.7352 117.565 74.7855C117.737 74.8358 117.98 74.7699 118.29 74.5913L118.92 74.2271C119.227 74.0502 119.466 73.8369 119.638 73.5889C119.809 73.341 119.896 73.0826 119.896 72.8172V70.9982ZM119.286 73.1467C119.286 73.4173 119.135 73.6392 118.831 73.8126L118.384 74.071C118.08 74.2461 117.93 74.1976 117.93 73.9288V72.1548C117.93 71.8843 118.08 71.6624 118.384 71.4889L118.831 71.2305C119.133 71.0554 119.286 71.1039 119.286 71.3727V73.1467ZM119.197 80.5236V77.6745L118.511 78.4149C118.426 78.4964 118.384 78.5034 118.384 78.4323V78.1097C118.384 78.0508 118.413 77.9901 118.472 77.9276L119.128 77.2045C119.208 77.1178 119.275 77.0606 119.329 77.0277L119.707 76.8092C119.778 76.7675 119.815 76.778 119.815 76.8404V80.1646C119.815 80.2271 119.782 80.2774 119.714 80.3155L119.305 80.5513C119.232 80.5947 119.197 80.5843 119.197 80.5236ZM113.506 68.1386V69.956C113.506 70.2213 113.593 70.3791 113.764 70.4294C113.936 70.4797 114.179 70.4138 114.489 70.2351L115.12 69.871C115.427 69.6941 115.667 69.4808 115.838 69.2328C116.01 68.9848 116.097 68.7265 116.097 68.4612V66.6438C116.097 66.3751 116.01 66.2155 115.838 66.167C115.667 66.1202 115.426 66.1843 115.12 66.3612L114.491 66.7253C114.18 66.904 113.938 67.1173 113.766 67.3635C113.593 67.6115 113.506 67.8681 113.506 68.1386ZM114.13 67.8005C114.13 67.5317 114.281 67.3097 114.584 67.1346L115.032 66.8762C115.334 66.7011 115.486 66.7496 115.486 67.0184V68.7924C115.486 69.0612 115.335 69.2831 115.032 69.4583L114.583 69.7149C114.281 69.8901 114.128 69.8433 114.128 69.5727V67.8005H114.13ZM125.027 83.5756C125.199 83.3277 125.286 83.0693 125.286 82.804V80.9866C125.286 80.7178 125.199 80.5583 125.027 80.5115C124.856 80.4647 124.615 80.5288 124.309 80.7057L123.68 81.0699C123.369 81.2485 123.128 81.4635 122.955 81.7097C122.783 81.9577 122.697 82.2144 122.697 82.4849V84.3022C122.697 84.5675 122.783 84.7253 122.955 84.7756C123.127 84.8259 123.369 84.76 123.68 84.5814L124.309 84.2173C124.615 84.0369 124.854 83.8254 125.027 83.5756ZM123.774 84.0594C123.47 84.2346 123.319 84.186 123.319 83.9173V82.1432C123.319 81.8727 123.47 81.6508 123.774 81.4773L124.221 81.219C124.523 81.0438 124.675 81.0907 124.675 81.3612V83.1352C124.675 83.404 124.524 83.6276 124.221 83.801L123.774 84.0594ZM117.968 64.7155C118.039 64.6739 118.075 64.6843 118.075 64.7467V68.071C118.075 68.1334 118.042 68.1837 117.975 68.2219L117.565 68.4577C117.494 68.4993 117.458 68.4889 117.458 68.4265V65.5774L116.771 66.3178C116.686 66.3993 116.645 66.4063 116.645 66.3352V66.0126C116.645 65.9536 116.674 65.893 116.733 65.8306L117.389 65.1074C117.468 65.0224 117.536 64.9635 117.59 64.9305L117.968 64.7155ZM116.568 72.9195C116.568 72.6508 116.482 72.4912 116.31 72.4444C116.138 72.3976 115.897 72.4618 115.592 72.6386L114.963 73.0028C114.652 73.1814 114.409 73.3965 114.238 73.6427C114.066 73.8889 113.979 74.1473 113.979 74.4178V76.2352C113.979 76.5005 114.066 76.6583 114.238 76.7086C114.409 76.7588 114.652 76.693 114.963 76.5143L115.592 76.1502C115.899 75.9733 116.138 75.76 116.31 75.512C116.482 75.264 116.568 75.0057 116.568 74.7404V72.9195ZM115.958 75.0681C115.958 75.3369 115.807 75.5606 115.504 75.734L115.056 75.9924C114.754 76.1675 114.602 76.119 114.602 75.8502V74.0762C114.602 73.8057 114.753 73.5837 115.056 73.4103L115.504 73.1519C115.805 72.9768 115.958 73.0236 115.958 73.2941V75.0681ZM117.135 81.7132V78.8641L116.449 79.6045C116.365 79.686 116.322 79.693 116.322 79.6219V79.2993C116.322 79.2421 116.352 79.1814 116.411 79.1172L117.066 78.3941C117.146 78.3074 117.213 78.2502 117.267 78.2173L117.645 77.9988C117.716 77.9571 117.753 77.9676 117.753 78.03V81.3543C117.753 81.4167 117.72 81.467 117.652 81.5051L117.243 81.7409C117.172 81.786 117.135 81.7739 117.135 81.7132ZM122.494 55.7745C122.322 55.7276 122.081 55.7918 121.776 55.9687L121.145 56.3328C120.834 56.5132 120.593 56.7265 120.42 56.9728C120.248 57.219 120.161 57.4774 120.161 57.7479V59.5652C120.161 59.8305 120.248 59.9884 120.42 60.0387C120.591 60.0889 120.834 60.0231 121.145 59.8444L121.776 59.4802C122.083 59.3034 122.322 59.0901 122.494 58.8421C122.665 58.5941 122.752 58.3357 122.752 58.0704V56.2531C122.752 55.9808 122.665 55.8213 122.494 55.7745ZM122.14 58.3982C122.14 58.667 121.989 58.8889 121.686 59.0641L121.238 59.3224C120.937 59.4976 120.784 59.4508 120.784 59.1802V57.4063C120.784 57.1375 120.935 56.9155 121.238 56.7404L121.686 56.482C121.987 56.3068 122.14 56.3554 122.14 56.6242V58.3982ZM124.623 54.323C124.694 54.2814 124.731 54.2918 124.731 54.3542V57.6785C124.731 57.7409 124.696 57.7912 124.63 57.8294L124.221 58.0652C124.15 58.1069 124.113 58.0964 124.113 58.034V55.1849L123.427 55.9253C123.343 56.0068 123.3 56.0121 123.3 55.9427V55.6202C123.3 55.5612 123.33 55.5005 123.389 55.4381L124.044 54.7167C124.124 54.63 124.191 54.571 124.245 54.5398L124.623 54.323ZM120.891 69.7982C120.72 70.0444 120.633 70.3028 120.633 70.5716V72.3889C120.633 72.6542 120.72 72.812 120.891 72.8623C121.063 72.9126 121.306 72.8467 121.616 72.6681L122.246 72.304C122.553 72.1271 122.792 71.9138 122.965 71.6658C123.137 71.4178 123.224 71.1594 123.224 70.8941V69.0768C123.224 68.808 123.137 68.6485 122.965 68.6016C122.794 68.5548 122.553 68.619 122.248 68.7959L121.616 69.16C121.306 69.3386 121.065 69.5519 120.891 69.7982ZM121.257 70.2335C121.257 69.9647 121.408 69.7427 121.712 69.5676L122.159 69.3091C122.461 69.134 122.613 69.1826 122.613 69.4513V71.2253C122.613 71.4959 122.463 71.7178 122.159 71.8912L121.712 72.1496C121.41 72.3247 121.257 72.2779 121.257 72.0074V70.2335ZM122.979 61.823L123.357 61.6045C123.428 61.5629 123.465 61.5733 123.465 61.6357V64.96C123.465 65.0224 123.432 65.0727 123.364 65.1109L122.955 65.3485C122.884 65.3901 122.847 65.3797 122.847 65.3172V62.4681L122.161 63.2086C122.076 63.2901 122.034 63.2953 122.034 63.2259V62.9034C122.034 62.8444 122.064 62.7837 122.123 62.7213L122.778 61.9999C122.856 61.9132 122.924 61.8542 122.979 61.823ZM120.532 76.738L121.188 76.0149C121.268 75.9282 121.335 75.871 121.389 75.8381L121.767 75.6196C121.838 75.5779 121.875 75.5884 121.875 75.6508V78.975C121.875 79.0357 121.842 79.0878 121.774 79.1259L121.365 79.3617C121.294 79.4034 121.257 79.393 121.257 79.3306V76.4814L120.571 77.2219C120.487 77.3034 120.444 77.3103 120.444 77.2392V76.9167C120.444 76.8629 120.474 76.8022 120.532 76.738ZM120.444 83.4699C120.444 83.4109 120.474 83.3502 120.532 83.2878L121.188 82.5647C121.268 82.4779 121.335 82.419 121.389 82.3878L121.767 82.1693C121.838 82.1277 121.875 82.1381 121.875 82.2005V85.5248C121.875 85.5872 121.842 85.6375 121.774 85.6756L121.365 85.9132C121.294 85.9548 121.257 85.9444 121.257 85.882V83.0328L120.571 83.7733C120.486 83.8548 120.444 83.86 120.444 83.7907V83.4699ZM126.293 69.7444C126.465 69.4964 126.552 69.238 126.552 68.9727V67.1554C126.552 66.8866 126.465 66.7271 126.293 66.6803C126.121 66.6334 125.882 66.6976 125.575 66.8745L124.944 67.2386C124.634 67.419 124.391 67.6323 124.219 67.8785C124.047 68.1248 123.961 68.3831 123.961 68.6537V70.471C123.961 70.7363 124.047 70.8942 124.219 70.9444C124.391 70.9947 124.634 70.9288 124.944 70.7502L125.575 70.386C125.882 70.2057 126.121 69.9924 126.293 69.7444ZM125.039 70.2282C124.738 70.4034 124.585 70.3565 124.585 70.086V68.3121C124.585 68.0433 124.736 67.8213 125.039 67.6462L125.487 67.3877C125.789 67.2126 125.941 67.2612 125.941 67.5299V69.304C125.941 69.5745 125.79 69.7964 125.487 69.9699L125.039 70.2282ZM128.343 75.1115C128.515 75.1618 128.757 75.0959 129.068 74.9172L129.699 74.5531C130.006 74.3762 130.245 74.1629 130.417 73.9149C130.589 73.667 130.675 73.4086 130.675 73.1432V71.3259C130.675 71.0571 130.589 70.8976 130.417 70.8508C130.245 70.8039 130.006 70.8681 129.699 71.045L129.068 71.4091C128.757 71.5895 128.515 71.8011 128.343 72.0491C128.171 72.2953 128.084 72.5537 128.084 72.8242V74.6415C128.083 74.9051 128.169 75.0629 128.343 75.1115ZM128.707 72.4826C128.707 72.2121 128.858 71.9901 129.161 71.8167L129.609 71.5583C129.91 71.3831 130.063 71.4317 130.063 71.7005V73.4745C130.063 73.7433 129.912 73.967 129.609 74.1404L129.161 74.3987C128.86 74.5739 128.707 74.5253 128.707 74.2565V72.4826ZM130.484 64.0392C130.556 63.9976 130.592 64.008 130.592 64.0704V67.3947C130.592 67.4571 130.559 67.5074 130.491 67.5456L130.082 67.7814C130.011 67.823 129.975 67.8126 129.975 67.7502V64.9011L129.288 65.6415C129.203 65.723 129.161 65.73 129.161 65.6589V65.3363C129.161 65.2774 129.191 65.2167 129.25 65.1542L129.905 64.4311C129.985 64.3444 130.053 64.2872 130.106 64.2543L130.484 64.0392ZM124.542 61.1415C124.37 61.3878 124.283 61.6461 124.283 61.9167V63.734C124.283 63.9993 124.37 64.1571 124.542 64.2074C124.713 64.2577 124.956 64.1918 125.267 64.0132L125.896 63.6491C126.203 63.4722 126.442 63.2589 126.614 63.0109C126.786 62.7629 126.872 62.5045 126.872 62.2392V60.4219C126.872 60.1531 126.786 59.9936 126.614 59.9467C126.442 59.8999 126.201 59.9641 125.896 60.141L125.265 60.5051C124.956 60.682 124.713 60.8953 124.542 61.1415ZM125.808 60.6525C126.109 60.4773 126.262 60.5259 126.262 60.7947V62.5687C126.262 62.8392 126.111 63.0612 125.808 63.2346L125.36 63.4929C125.057 63.6681 124.906 63.6213 124.906 63.3507V61.5768C124.906 61.308 125.057 61.0843 125.36 60.9109L125.808 60.6525ZM127.882 52.6617C127.71 52.6149 127.469 52.6791 127.164 52.856L126.532 53.2201C126.222 53.4005 125.981 53.6138 125.808 53.86C125.636 54.1063 125.549 54.3647 125.549 54.6334V56.4508C125.549 56.7161 125.636 56.8739 125.808 56.9242C125.979 56.9745 126.222 56.9086 126.532 56.73L127.164 56.3658C127.471 56.1889 127.71 55.9756 127.882 55.7276C128.053 55.4797 128.14 55.2213 128.14 54.956V53.1386C128.14 52.8699 128.055 52.7103 127.882 52.6617ZM127.53 55.2872C127.53 55.5577 127.379 55.7797 127.075 55.9531L126.628 56.2115C126.326 56.3866 126.174 56.3398 126.174 56.0693V54.2953C126.174 54.0265 126.324 53.8028 126.628 53.6294L127.075 53.371C127.377 53.1959 127.53 53.2444 127.53 53.5132V55.2872ZM129.943 58.0236C129.772 57.9768 129.531 58.0409 129.226 58.2178L128.594 58.582C128.284 58.7606 128.043 58.9739 127.869 59.2219C127.698 59.4681 127.611 59.7265 127.611 59.9953V61.8126C127.611 62.0779 127.698 62.2357 127.869 62.286C128.041 62.3363 128.284 62.2704 128.594 62.0918L129.226 61.7277C129.532 61.5508 129.772 61.3375 129.943 61.0895C130.115 60.8415 130.202 60.5831 130.202 60.3178V58.5005C130.202 58.2299 130.115 58.0704 129.943 58.0236ZM129.59 60.6473C129.59 60.9161 129.439 61.1381 129.135 61.3132L128.688 61.5716C128.386 61.7467 128.234 61.6999 128.234 61.4294V59.6554C128.234 59.3866 128.385 59.1629 128.688 58.9895L129.135 58.7311C129.437 58.5559 129.59 58.6045 129.59 58.8733V60.6473Z" fill="#040404"/>
<path d="M137.658 53.4276L132.243 50.3218C128.379 48.1056 123.066 48.4108 117.21 51.7698C105.428 58.5276 95.8406 75.1351 95.8406 88.7825C95.8406 95.653 98.2683 100.488 102.184 102.732L107.6 105.837C103.686 103.592 101.256 98.7587 101.256 91.8882C101.256 78.2408 110.844 61.6333 122.626 54.8755C128.482 51.5166 133.795 51.2114 137.658 53.4276Z" fill="url(#paint2_linear_9_1592)"/>
<path d="M122.625 104.393C110.844 111.151 101.256 105.543 101.256 91.8906C101.256 78.2432 110.844 61.6357 122.625 54.8779C127.158 52.2784 131.367 51.5068 134.83 52.3201C140.369 53.6206 144 58.9755 144 67.3738C144 81.0247 134.41 97.6322 122.625 104.393ZM102.158 91.3721C102.158 104.451 111.34 109.821 122.625 103.348C133.916 96.8726 143.098 80.9674 143.098 67.8888C143.098 54.8137 133.916 49.4432 122.625 55.9201C111.34 62.3935 102.158 78.2987 102.158 91.3721Z" fill="#E6E1D7"/>
<path d="M101.256 91.8889C101.579 69.4288 121.245 49.1224 134.83 52.3183C121.524 50.0293 102.845 69.5311 101.256 91.8889Z" fill="url(#paint3_radial_9_1592)"/>
<defs>
<linearGradient id="paint0_linear_9_1592" x1="121.256" y1="108.152" x2="115.075" y2="108.152" gradientUnits="userSpaceOnUse">
<stop stop-color="#E6E1D7"/>
<stop offset="1" stop-color="#D6D1C6"/>
</linearGradient>
<linearGradient id="paint1_linear_9_1592" x1="137.98" y1="63.8549" x2="113.355" y2="104.056" gradientUnits="userSpaceOnUse">
<stop stop-color="#D6D1C6"/>
<stop offset="1" stop-color="#F8F6EE"/>
</linearGradient>
<linearGradient id="paint2_linear_9_1592" x1="124.092" y1="53.4428" x2="104.768" y2="86.9136" gradientUnits="userSpaceOnUse">
<stop stop-color="#F8F6EE"/>
<stop offset="1" stop-color="#D6D1C6"/>
</linearGradient>
<radialGradient id="paint3_radial_9_1592" cx="0" cy="0" r="1" gradientUnits="userSpaceOnUse" gradientTransform="translate(120.07 56.0571) scale(69.5757 69.5757)">
<stop stop-color="#F8F6EE"/>
<stop offset="1" stop-color="#D6D1C6"/>
</radialGradient>
</defs>
</svg>
