<svg width="260" height="190" viewBox="0 0 260 190" fill="none" xmlns="http://www.w3.org/2000/svg">
<path opacity="0.5" d="M157.158 167.698L141.796 131.629H75.9733C68.051 131.39 56.5859 133.376 44.6527 136.946C4.26212 149.032 -14.4381 169.186 14.567 167.696H28.6737C2.84298 177.668 -6.91918 190.68 14.4376 189.585H108.091L98.7691 167.696L157.158 167.698Z" fill="#4D5901"/>
<path d="M148.944 58.4089L122.2 58.2805V149.815C122.118 154.489 125.489 159.178 132.313 162.746C137.061 165.228 142.852 166.817 148.944 167.552V58.4089Z" fill="#3B3B3B"/>
<path d="M183.479 58.5735L146.928 58.3976V167.274C158.669 169.086 171.887 167.585 181.151 162.741C181.978 162.309 182.752 161.86 183.477 161.398L183.479 58.5735Z" fill="#E6E1D7"/>
<path d="M177.945 58.5485V164.215C179.055 163.762 180.133 163.278 181.154 162.743C187.816 159.261 191.187 154.71 191.267 150.146V58.6116L177.945 58.5485Z" fill="#DDFF00"/>
<path d="M156.722 58.3006L177.892 72.6813C168.832 76.3464 158.037 77.4013 147.032 75.6972L156.722 58.3006Z" fill="#F8F6EE"/>
<path d="M181.084 45.4571C189.786 50.0057 193.607 56.8354 189.93 63.4397C187.789 67.2806 183.94 70.2424 177.89 72.6835L156.72 58.3028L140.437 57.0653L123.507 53.1681C128.857 43.5569 148.063 38.0661 166.407 40.9017C172.146 41.7875 177.121 43.3856 181.084 45.4571Z" fill="#DDFF00"/>
<path d="M156.722 58.3006L147.032 75.6995C141.226 74.8001 136.257 73.2741 132.291 71.2004C128.738 69.3431 125.989 67.0485 124.157 64.373L156.722 58.3006Z" fill="#272727"/>
<path d="M156.722 58.3007L124.154 64.3708C121.577 60.5931 121.366 57.0069 123.507 53.1638L156.722 58.3007Z" fill="#9C9090"/>
<path d="M108.09 103.194V189.986C114.805 190.096 121.59 188.825 126.714 186.145C131.578 183.602 134.038 180.28 134.098 176.948V103.32L108.09 103.194Z" fill="#E6E1D7"/>
<path d="M89.303 103.104V185.131C89.8482 185.48 90.4334 185.82 91.0583 186.147C97.0112 189.26 105.2 190.482 112.92 189.83V103.217L89.303 103.104Z" fill="#A6C000"/>
<path d="M131.277 103.307V182.872C133.11 181.017 134.061 178.986 134.098 176.949V103.321L131.277 103.307Z" fill="#E6E1D7"/>
<path d="M91.2502 103.113L83.674 103.077V176.705C83.6142 180.118 86.0766 183.542 91.0585 186.145C91.1207 186.179 91.1854 186.208 91.2502 186.237V103.113Z" fill="#474747"/>
<path d="M108.885 103.03L112.901 116.047C104.677 116.732 97.0812 115.436 91.1732 112.348L108.885 103.03Z" fill="#DDFF00"/>
<path d="M126.594 93.7114C134.472 97.8295 136.322 103.825 131.31 109.012L108.883 103.03L126.594 93.7114Z" fill="#F8F6EE"/>
<path d="M131.312 109.012C127.555 112.905 121.117 115.362 112.901 116.045L108.885 103.028L131.312 109.012Z" fill="#F8F6EE"/>
<path d="M108.885 103.03L91.173 112.348C83.3005 108.232 81.4506 102.236 86.4599 97.0474L108.885 103.03Z" fill="#3E3E3E"/>
<path d="M112.734 90.0149C101.767 89.1065 91.462 91.8609 86.4602 97.0475L108.885 103.03L126.597 93.7115C122.658 91.6536 118.219 90.4725 112.734 90.0149Z" fill="#9AB200"/>
<path d="M200.108 108.591L200.265 163.63L206.614 166.97L206.457 111.931L200.108 108.591Z" fill="#DDFF00"/>
<path d="M206.457 111.931L206.614 166.97H215.621L215.465 111.931H206.457Z" fill="#B0CB00"/>
<path d="M215.464 111.931L215.621 166.97L222.012 163.63L221.855 108.591L215.464 111.931Z" fill="#DDFF00"/>
<path d="M221.856 108.59V103.85L215.537 100.526H206.526L200.138 103.866L200.108 108.59L206.457 111.931H215.465L221.856 108.59Z" fill="#7E9100"/>
<path d="M211.037 96.3398C214.239 96.3398 216.833 94.9834 216.833 93.3103C216.833 91.6372 214.239 90.2809 211.037 90.2809C207.836 90.2809 205.241 91.6372 205.241 93.3103C205.241 94.9834 207.836 96.3398 211.037 96.3398Z" fill="#F8F6EE"/>
<path d="M216.834 93.2811V104.914C216.846 105.699 216.281 106.485 215.136 107.085C212.873 108.268 209.203 108.268 206.937 107.085C205.819 106.501 205.252 105.737 205.239 104.97V93.3374C205.252 94.1038 205.819 94.8679 206.937 95.4517C209.2 96.6351 212.87 96.6351 215.136 95.4517C216.281 94.8544 216.849 94.0677 216.834 93.2811Z" fill="url(#paint0_linear_9_304)"/>
<path d="M246.416 9.55935L236.258 4.28491C243.289 7.93645 247.651 15.7963 247.651 26.9695C247.651 49.183 230.425 76.1931 209.247 87.1905C198.731 92.6521 189.188 93.1502 182.246 89.546L192.405 94.8204C199.346 98.4246 208.889 97.9265 219.405 92.4672C240.585 81.4698 257.809 54.4575 257.809 32.2462C257.809 21.0707 253.45 13.2109 246.416 9.55935Z" fill="url(#paint1_linear_9_304)"/>
<path d="M213.326 89.289C234.506 78.2916 251.73 51.2793 251.732 29.068C251.732 18.8189 248.057 11.3671 242.022 7.38422C250.032 10.612 255.098 18.7919 255.098 30.8284C255.098 53.0419 237.872 80.052 216.694 91.0494C205.297 96.9685 195.046 97.0474 188.008 92.4019C194.772 95.1292 203.633 94.3223 213.326 89.289Z" fill="#D7D2C7"/>
<path opacity="0.8" d="M213.326 8.73898C192.153 19.7342 174.929 46.7442 174.929 68.9487C174.929 91.1622 192.156 100.282 213.326 89.2891C234.506 78.2917 251.73 51.2794 251.73 29.0681C251.732 6.86137 234.506 -2.25845 213.326 8.73898Z" fill="#F8F6EE"/>
<path d="M247.604 7.68403L237.446 2.4096C230.196 -1.35464 220.23 -0.836214 209.245 4.86875C187.144 16.3463 169.156 44.551 169.156 67.7315C169.156 79.4006 173.712 87.6098 181.054 91.4236L191.212 96.6981C183.87 92.8843 179.314 84.6751 179.314 73.0059C179.314 49.8254 197.302 21.6207 219.403 10.1432C230.39 4.43823 240.357 3.9198 247.604 7.68403Z" fill="url(#paint2_linear_9_304)"/>
<path d="M219.406 94.2412C197.304 105.719 179.316 96.1932 179.316 73.006C179.316 49.8255 197.304 21.6207 219.406 10.1432C227.91 5.72756 235.803 4.42022 242.298 5.79969C252.69 8.00864 259.5 17.1014 259.5 31.3672C259.502 54.5544 241.514 82.7592 219.406 94.2412ZM181.007 72.1269C181.007 94.3404 198.233 103.46 219.403 92.4673C240.583 81.4699 257.807 54.4575 257.807 32.2463C257.807 10.0418 240.581 0.919703 219.403 11.9194C198.233 22.9101 181.007 49.9224 181.007 72.1269Z" fill="#E6E1D7"/>
<path d="M179.316 73.0038C179.921 34.8588 216.816 0.372089 242.298 5.7998C217.339 1.91159 182.294 35.0324 179.316 73.0038Z" fill="url(#paint3_radial_9_304)"/>
<path d="M106.853 69.1447L91.89 63.7373L83.791 72.4469L74.0214 72.0704L64.0227 80.6989L53.9867 73.9774L47.5508 84.5307L42.9722 86.7893L34.898 73.5401L28.253 87.0057L15.4459 99.8334L7.63069 115.614L4.4115 117.28V129.282L108.885 74.6739V68.038L106.853 69.1447Z" fill="#DDFF00"/>
<path d="M30.7351 53.8264L27.6852 55.4223V56.6102L30.7351 55.0143V53.8264Z" fill="#E6E1D7"/>
<path d="M36.4714 50.8285L32.5003 52.9045V54.0923L36.4714 52.0164V50.8285Z" fill="#E6E1D7"/>
<path d="M49.1442 45.3917V44.2038L38.2368 49.9065V51.0944L49.1442 45.3917Z" fill="#E6E1D7"/>
<path d="M34.1187 55.2848L27.6852 58.6478V59.8379L34.1187 56.4749V55.2848Z" fill="#E6E1D7"/>
<path d="M35.8839 55.5506L39.8549 53.4769V52.2868L35.8839 54.3628V55.5506Z" fill="#E6E1D7"/>
<path d="M44.9914 50.7904V49.6025L41.6204 51.3651V52.553L44.9914 50.7904Z" fill="#E6E1D7"/>
<path d="M46.7565 49.8683L49.0097 48.6894V47.5016L46.7565 48.6804V49.8683Z" fill="#E6E1D7"/>
<path d="M30.7351 60.2818L27.6852 61.8754V63.0656L30.7351 61.4697V60.2818Z" fill="#E6E1D7"/>
<path d="M32.5003 60.5478L36.4714 58.4719V57.284L32.5003 59.3577V60.5478Z" fill="#E6E1D7"/>
<path d="M38.2368 57.55L46.7566 53.0961V51.9082L38.2368 56.3599V57.55Z" fill="#E6E1D7"/>
<path d="M34.1187 61.7404L27.6852 65.1034V66.2935L34.1187 62.9305V61.7404Z" fill="#E6E1D7"/>
<path d="M39.8549 58.7424L35.8839 60.8184V62.0063L39.8549 59.9303V58.7424Z" fill="#E6E1D7"/>
<path d="M41.6204 57.8206V59.0085L44.9914 57.2459V56.058L41.6204 57.8206Z" fill="#E6E1D7"/>
<path d="M30.7351 66.7376L27.6852 68.3312V69.5213L30.7351 67.9255V66.7376Z" fill="#E6E1D7"/>
<path d="M32.5003 67.0035L36.4714 64.9275V63.7374L32.5003 65.8134V67.0035Z" fill="#E6E1D7"/>
<path d="M46.0146 59.9393V58.7492L38.2368 62.8154V64.0033L46.0146 59.9393Z" fill="#E6E1D7"/>
<path d="M22.0162 60.1401C19.4319 58.2715 15.0749 59.2677 10.8947 62.6826L13.9694 69.6408L23.9158 64.4408C23.9158 62.4504 23.3083 61.0732 22.0162 60.1401Z" fill="#DDFF00"/>
<path d="M13.9694 69.6384L4.02301 74.8362C4.02301 70.8579 6.71688 66.0928 10.8971 62.6802L13.9694 69.6384Z" fill="#4E4E4E"/>
<path d="M13.9694 69.6383L8.12354 79.9798C5.45705 79.6192 4.02301 77.8204 4.02301 74.8384L13.9694 69.6383Z" fill="#A5BF00"/>
<path d="M17.0441 76.5968C21.2244 73.1819 23.9182 68.4191 23.9182 64.4408L13.9718 69.6408L8.12598 79.9823C10.79 80.3407 13.9096 79.1574 17.0441 76.5968Z" fill="#F8F6EE"/>
<path d="M84.3737 25.7884L81.3239 27.3843V28.5722L84.3737 26.9786V25.7884Z" fill="#E6E1D7"/>
<path d="M90.1099 22.7905L86.1388 24.8664V26.0566L90.1099 23.9806V22.7905Z" fill="#E6E1D7"/>
<path d="M102.648 17.4261V16.236L91.8754 21.8688V23.0567L102.648 17.4261Z" fill="#E6E1D7"/>
<path d="M106.659 14.1418L104.413 15.3139V16.504L106.659 15.3297V14.1418Z" fill="#E6E1D7"/>
<path d="M87.7572 27.2491L81.3239 30.6121V31.8L87.7572 28.437V27.2491Z" fill="#E6E1D7"/>
<path d="M89.5223 27.5149L93.4934 25.439V24.2511L89.5223 26.3271V27.5149Z" fill="#E6E1D7"/>
<path d="M98.6297 22.7545V21.5667L95.2586 23.3271V24.5172L98.6297 22.7545Z" fill="#E6E1D7"/>
<path d="M100.395 21.8327L104.732 19.5651V18.375L100.395 20.6425V21.8327Z" fill="#E6E1D7"/>
<path d="M84.3737 32.244L81.3239 33.8399V35.0278L84.3737 33.4342V32.244Z" fill="#E6E1D7"/>
<path d="M86.1388 32.5099L90.1099 30.434V29.2461L86.1388 31.3221V32.5099Z" fill="#E6E1D7"/>
<path d="M91.8754 29.5121L102.648 23.8816V22.6914L91.8754 28.3243V29.5121Z" fill="#E6E1D7"/>
<path d="M87.7572 33.7047L81.3239 37.0677V38.2556L87.7572 34.8926V33.7047Z" fill="#E6E1D7"/>
<path d="M93.4934 30.7068L89.5223 32.7806V33.9707L93.4934 31.8947V30.7068Z" fill="#E6E1D7"/>
<path d="M95.2586 29.7826V30.9727L98.6297 29.21V28.0222L95.2586 29.7826Z" fill="#E6E1D7"/>
<path d="M104.732 24.8306L100.395 27.0982V28.2883L104.732 26.0185V24.8306Z" fill="#E6E1D7"/>
<path d="M84.3737 38.6997L81.3239 40.2955V41.4834L84.3737 39.8876V38.6997Z" fill="#E6E1D7"/>
<path d="M86.1388 38.9654L90.1099 36.8894V35.7016L86.1388 37.7775V38.9654Z" fill="#E6E1D7"/>
<path d="M102.648 30.3371V29.1469L91.8754 34.7798V35.9676L102.648 30.3371Z" fill="#E6E1D7"/>
<path d="M67.8071 41.4991L63.0293 36.0466C61.0898 38.0166 59.728 40.0272 58.7794 42.3286C57.3553 45.7818 57.4424 48.6083 59.0258 50.4161L67.8071 41.4991Z" fill="#4A4A4A"/>
<path d="M67.8072 41.4991L63.0294 36.0466C67.8794 31.1216 73.9518 29.573 76.5884 32.5844C79.2275 35.5958 77.4349 42.0288 72.585 46.9539C70.6455 48.9239 68.701 50.2673 66.5101 51.1532L67.8072 41.4991Z" fill="#DDFF00"/>
<path d="M67.8072 41.4992L66.51 51.1509C63.2261 52.4786 60.607 52.2216 59.0235 50.4139L67.8072 41.4992Z" fill="#F8F6EE"/>
<defs>
<linearGradient id="paint0_linear_9_304" x1="216.835" y1="100.627" x2="205.241" y2="100.627" gradientUnits="userSpaceOnUse">
<stop stop-color="#E6E1D7"/>
<stop offset="1" stop-color="#D6D1C6"/>
</linearGradient>
<linearGradient id="paint1_linear_9_304" x1="248.209" y1="25.3937" x2="208.385" y2="97.2035" gradientUnits="userSpaceOnUse">
<stop stop-color="#D6D1C6"/>
<stop offset="1" stop-color="#F8F6EE"/>
</linearGradient>
<linearGradient id="paint2_linear_9_304" x1="222.156" y1="7.70928" x2="191.039" y2="67.2396" gradientUnits="userSpaceOnUse">
<stop stop-color="#F8F6EE"/>
<stop offset="1" stop-color="#D6D1C6"/>
</linearGradient>
<radialGradient id="paint3_radial_9_304" cx="0" cy="0" r="1" gradientUnits="userSpaceOnUse" gradientTransform="translate(214.61 12.1483) scale(130.52 118.165)">
<stop stop-color="#F8F6EE"/>
<stop offset="1" stop-color="#D6D1C6"/>
</radialGradient>
</defs>
</svg>
