<svg width="310" height="190" viewBox="0 0 310 190" fill="none" xmlns="http://www.w3.org/2000/svg">
<path opacity="0.5" d="M85.5896 56.5351C83.4727 52.8675 0.96991 105.391 0.96991 105.391L147.515 190H161.451L85.5896 56.5351Z" fill="#3E3B3D"/>
<path d="M161.451 190L13.874 104.796V89.5202L161.451 174.724V190Z" fill="#1A1A1A"/>
<path d="M309.03 104.796L161.451 190V174.724L309.03 89.5202V104.796Z" fill="#222222"/>
<path d="M161.451 174.724L13.874 89.5202L161.451 4.31604L309.03 89.5202L161.451 174.724Z" fill="url(#paint0_linear_9_140)"/>
<path d="M298.04 89.5202L161.451 168.381L24.8613 89.5202L161.451 10.6591L298.04 89.5202Z" fill="#B4B4B4"/>
<path d="M93.1561 89.5203L59.01 109.235L24.8613 89.5203L59.01 69.8057L93.1561 89.5203Z" fill="#DDFF00"/>
<path d="M161.451 89.5203L127.305 109.235L93.156 89.5203L127.305 69.8056L161.451 89.5203Z" fill="#DDFF00"/>
<path d="M161.451 50.091L127.305 69.8056L93.156 50.091L127.305 30.3737L161.451 50.091Z" fill="#DDFF00"/>
<path d="M229.746 50.091L195.597 69.8056L161.451 50.091L195.597 30.3737L229.746 50.091Z" fill="#DDFF00"/>
<path d="M161.451 128.952L127.305 148.667L93.156 128.952L127.305 109.235L161.451 128.952Z" fill="#DDFF00"/>
<path d="M229.746 128.952L195.597 148.667L161.451 128.952L195.597 109.235L229.746 128.952Z" fill="#DDFF00"/>
<path d="M229.746 89.5203L195.597 109.235L161.451 89.5203L195.597 69.8057L229.746 89.5203Z" fill="#DDFF00"/>
<path d="M298.04 89.5203L263.892 109.235L229.746 89.5203L263.892 69.8056L298.04 89.5203Z" fill="#DDFF00"/>
<path d="M211.348 104.014L211.335 108.386C211.327 111.206 213.145 114.035 216.808 116.225C224.255 120.677 236.501 120.801 244.164 116.5C248.058 114.316 250.019 111.409 250.026 108.495L250.039 104.123L211.348 104.014Z" fill="#DBD7CC"/>
<path d="M244.567 96.2815L244.078 95.9983C247.909 98.2893 249.65 101.305 249.317 104.25C249.026 106.827 247.151 109.349 243.702 111.282C242.164 112.144 240.434 112.822 238.592 113.318C231.592 115.199 223 114.417 217.312 111.017C210.127 106.723 210.296 99.8789 217.686 95.7334L217.208 96.0061C209.545 100.305 209.371 107.399 216.821 111.851C222.717 115.375 231.626 116.188 238.881 114.238C240.787 113.726 242.582 113.022 244.177 112.126C247.751 110.121 249.697 107.505 249.998 104.835C250.343 101.783 248.538 98.6581 244.567 96.2815Z" fill="url(#paint1_linear_9_140)"/>
<path d="M244.083 93.8813C244.006 93.8346 243.928 93.7904 243.85 93.7437L240.366 91.7332C240.424 91.767 240.481 91.8008 240.538 91.8346L221.164 91.6371L217.696 93.6138C210.306 97.7619 210.137 104.604 217.322 108.897C223.005 112.295 231.59 113.079 238.585 111.204C240.431 110.71 242.167 110.03 243.709 109.165C247.167 107.224 249.045 104.695 249.325 102.113C249.647 99.1724 247.907 96.1671 244.083 93.8813Z" fill="url(#paint2_linear_9_140)"/>
<path d="M243.709 109.165C236.32 113.313 224.504 113.193 217.322 108.897C213.789 106.786 212.034 104.058 212.041 101.336L212.036 103.456C212.028 106.178 213.784 108.905 217.317 111.017C224.501 115.31 236.314 115.43 243.704 111.284C247.46 109.178 249.351 106.373 249.359 103.559L249.364 101.44C249.356 104.253 247.465 107.058 243.709 109.165Z" fill="#DBD7CC"/>
<path d="M240.268 100.783C234.842 103.827 226.169 103.739 220.893 100.588C218.301 99.0376 217.01 97.0349 217.018 95.0375L217.01 97.3102C217.005 99.3077 218.293 101.31 220.886 102.861C226.158 106.014 234.834 106.1 240.26 103.056C243.018 101.508 244.406 99.4505 244.411 97.3856L244.416 95.1128C244.413 97.1778 243.026 99.235 240.268 100.783Z" fill="#DBD7CC"/>
<path d="M240.476 89.5282C239.065 86.4892 238.717 81.845 238.566 78.6527C238.538 77.7903 238.517 76.9072 238.52 75.9539C238.517 77.1202 237.733 78.2839 236.172 79.1592C233.104 80.8813 228.2 80.832 225.216 79.0475C223.748 78.1696 223.021 77.0371 223.023 75.9098C223.021 76.6137 222.997 77.2501 222.977 77.9046C222.86 81.7748 222.53 85.7567 221.075 89.2996C221.047 89.3594 221.01 89.4009 220.977 89.4685C218.361 91.001 217.021 93.027 217.015 95.0374C217.01 97.0348 218.299 99.0375 220.891 100.588C226.166 103.741 234.839 103.827 240.265 100.783C243.024 99.2349 244.411 97.1777 244.416 95.1127C244.426 92.6867 242.593 90.7724 240.476 89.5282Z" fill="url(#paint3_linear_9_140)"/>
<path d="M218.215 72.5485L218.213 73.3953C218.208 75.2265 219.389 77.0655 221.769 78.4863C226.605 81.3773 234.561 81.4578 239.538 78.6655C242.068 77.2473 243.341 75.359 243.346 73.4654L243.348 72.6186L218.215 72.5485Z" fill="url(#paint4_linear_9_140)"/>
<path d="M239.795 67.5277C238.579 66.8005 237.166 66.2524 235.655 65.881L233.431 65.3355C234.25 65.5355 235.016 65.8342 235.673 66.2264L226.055 66.1303C226.688 65.7745 227.41 65.5043 228.182 65.3199L225.956 65.8524C224.535 66.1927 223.197 66.6914 222.029 67.3485C217.052 70.1408 216.938 74.7487 221.777 77.6422C225.34 79.7721 230.595 80.3773 235.107 79.4319C236.72 79.0942 238.237 78.5565 239.548 77.8214C242.148 76.3617 243.421 74.4058 243.354 72.4603C243.286 70.6811 242.104 68.907 239.795 67.5277Z" fill="url(#paint5_linear_9_140)"/>
<path d="M224.005 64.5536L223.992 68.9433C223.99 69.9355 224.629 70.9303 225.917 71.6991C228.535 73.2654 232.842 73.307 235.535 71.7953C236.904 71.0264 237.595 70.0056 237.598 68.9796L237.611 64.5899L224.005 64.5536Z" fill="url(#paint6_linear_9_140)"/>
<path d="M221.686 63.3433L224.935 66.5563C225.205 66.8239 225.538 67.0784 225.927 67.3122C228.546 68.8785 232.852 68.92 235.546 67.4083C235.99 67.159 236.361 66.8836 236.663 66.5901L239.93 63.3978L221.686 63.3433Z" fill="#CBC7BC"/>
<path d="M240.855 58.33L239.073 55.2416L222.597 55.1949L220.797 58.2754C219.566 60.382 220.369 62.808 223.234 64.5197C227.307 66.9561 234.005 67.0237 238.198 64.6704C241.208 62.9768 242.104 60.4963 240.855 58.33Z" fill="url(#paint7_linear_9_140)"/>
<path d="M237.06 53.3274C233.714 51.3273 228.21 51.2702 224.769 53.2027C221.327 55.1352 221.249 58.3222 224.595 60.3223C227.94 62.3223 233.444 62.3795 236.886 60.447C240.328 58.5171 240.408 55.3274 237.06 53.3274Z" fill="url(#paint8_linear_9_140)"/>
<path d="M233.543 53.499C232.088 52.6289 229.696 52.6055 228.197 53.4445C226.701 54.2834 226.668 55.6705 228.122 56.5406C229.577 57.4108 231.969 57.4341 233.468 56.5952C234.964 55.7536 234.998 54.3691 233.543 53.499Z" fill="#CBC7BC"/>
<path d="M235.299 54.317C235.101 54.1975 234.891 54.0885 234.673 53.9897L233.164 53.3014C233.296 53.3612 233.423 53.4287 233.543 53.4988C234.255 53.9248 234.611 54.4729 234.613 55.0209C234.616 55.5924 234.231 56.1638 233.468 56.5924C233.114 56.7898 232.712 56.9404 232.283 57.0418C230.894 57.3742 229.234 57.2028 228.122 56.5378C226.668 55.6677 226.701 54.2833 228.197 53.4417C228.299 53.3845 228.403 53.3326 228.512 53.2832L226.997 53.9638C226.818 54.0443 226.647 54.13 226.481 54.2235C224.01 55.6106 223.956 57.8963 226.356 59.3301C228.19 60.4262 230.93 60.7094 233.221 60.1613C233.927 59.9925 234.59 59.7457 235.172 59.4184C236.434 58.7119 237.065 57.769 237.06 56.8236C237.06 55.9248 236.473 55.0183 235.299 54.317Z" fill="url(#paint9_linear_9_140)"/>
<path d="M234.161 52.5326C233.808 51.8625 232.629 50.7612 230.442 50.8936C229.221 50.969 227.727 51.6443 227.335 52.9482C226.984 54.1197 227.816 55.2054 228.821 55.6729C230.2 56.3145 231.688 56.2833 233.018 55.5898C233.909 55.0781 234.405 54.343 234.416 53.5171C234.426 53.0339 234.226 52.6573 234.161 52.5326Z" fill="url(#paint10_radial_9_140)"/>
<path d="M240.587 89.6061C241.616 90.6321 242.361 91.8997 242.359 93.4036C242.354 95.2842 241.174 97.1595 238.834 98.5699C234.226 101.344 226.857 101.263 222.379 98.3907C220.177 96.9777 219.08 95.1543 219.086 93.3335C219.088 92.0348 219.691 90.736 220.818 89.588C218.327 91.1075 217.028 93.0763 217.023 95.0374C217.018 97.0348 218.306 99.0375 220.899 100.588C226.174 103.741 234.847 103.83 240.273 100.783C243.031 99.2349 244.419 97.1777 244.424 95.1127C244.426 92.7309 242.652 90.8503 240.587 89.6061Z" fill="url(#paint11_linear_9_140)"/>
<path d="M141.227 63.1198L141.214 67.4913C141.206 70.3121 143.024 73.1407 146.687 75.3278C154.134 79.7798 166.381 79.9045 174.043 75.6057C177.937 73.4212 179.898 70.5147 179.906 67.5978L179.919 63.2262L141.227 63.1198Z" fill="url(#paint12_linear_9_140)"/>
<path d="M174.446 55.3872L173.958 55.1041C177.789 57.3951 179.529 60.4107 179.197 63.3562C178.906 65.9329 177.03 68.455 173.583 70.3875C172.046 71.2499 170.316 71.9278 168.474 72.4239C161.474 74.3045 152.882 73.5226 147.193 70.12C140.009 65.8264 140.178 58.9821 147.567 54.8366L147.089 55.1093C139.427 59.4081 139.256 66.5017 146.702 70.9538C152.599 74.4785 161.508 75.2915 168.763 73.3408C170.669 72.8291 172.464 72.1252 174.059 71.2291C177.633 69.2238 179.578 66.6082 179.88 63.938C180.223 60.8886 178.417 57.7639 174.446 55.3872Z" fill="url(#paint13_linear_9_140)"/>
<path d="M173.963 52.987C173.885 52.9402 173.807 52.8961 173.729 52.8493L170.246 50.8389C170.303 50.8727 170.36 50.9064 170.417 50.9402L151.043 50.7454L147.575 52.722C140.185 56.8702 140.017 63.7119 147.201 68.0054C152.884 71.4029 161.469 72.1873 168.466 70.312C170.313 69.8185 172.048 69.1379 173.591 68.273C177.048 66.3327 178.926 63.8028 179.21 61.2209C179.526 58.278 177.786 55.2701 173.963 52.987Z" fill="url(#paint14_linear_9_140)"/>
<path d="M173.589 68.2705C166.199 72.4186 154.383 72.2991 147.201 68.003C143.669 65.8912 141.913 63.1639 141.921 60.4418L141.915 62.5613C141.908 65.2834 143.663 68.0107 147.196 70.1225C154.38 74.4161 166.194 74.5355 173.583 70.39C177.339 68.2835 179.23 65.4782 179.238 62.6678L179.243 60.5483C179.236 63.3587 177.345 66.164 173.589 68.2705Z" fill="url(#paint15_linear_9_140)"/>
<path d="M170.147 59.8884C164.721 62.9326 156.048 62.8469 150.773 59.6936C148.18 58.1429 146.889 56.1403 146.897 54.1428L146.892 56.4156C146.887 58.413 148.175 60.4157 150.767 61.9663C156.04 65.1196 164.716 65.208 170.142 62.1612C172.9 60.6131 174.287 58.5559 174.293 56.4909L174.298 54.2181C174.293 56.2831 172.905 58.3403 170.147 59.8884Z" fill="url(#paint16_linear_9_140)"/>
<path d="M170.355 48.6339C168.944 45.5949 168.596 40.9506 168.446 37.7584C168.417 36.896 168.396 36.0129 168.399 35.0596C168.396 36.2285 167.612 37.3895 166.051 38.2649C162.983 39.987 158.077 39.9376 155.095 38.1532C153.627 37.2779 152.9 36.1428 152.903 35.0155C152.9 35.7194 152.877 36.3558 152.856 37.0103C152.739 40.8805 152.409 44.8624 150.954 48.4053C150.926 48.4651 150.89 48.5066 150.856 48.5742C148.24 50.1067 146.9 52.1327 146.895 54.1431C146.889 56.1405 148.178 58.1432 150.77 59.6938C156.045 62.8472 164.718 62.9355 170.144 59.8887C172.903 58.3406 174.29 56.2834 174.295 54.2184C174.306 51.7924 172.472 49.8781 170.355 48.6339Z" fill="url(#paint17_linear_9_140)"/>
<path d="M148.095 31.6542L148.092 32.501C148.087 34.3322 149.269 36.1712 151.648 37.592C156.484 40.4829 164.44 40.5635 169.417 37.7712C171.947 36.353 173.22 34.4646 173.225 32.5711L173.228 31.7243L148.095 31.6542Z" fill="url(#paint18_linear_9_140)"/>
<path d="M169.674 26.6334C168.459 25.9061 167.046 25.3581 165.534 24.9866L163.311 24.4412C164.129 24.6412 164.895 24.9399 165.552 25.3321L155.934 25.236C156.568 24.8802 157.29 24.61 158.061 24.4256L155.835 24.9581C154.414 25.2983 153.077 25.797 151.905 26.4542C146.928 29.2465 146.814 33.8543 151.653 36.7479C155.217 38.8778 160.472 39.483 164.983 38.5375C166.596 38.1999 168.113 37.6622 169.425 36.9271C172.025 35.4674 173.298 33.5141 173.23 31.566C173.165 29.7867 171.983 28.0127 169.674 26.6334Z" fill="url(#paint19_linear_9_140)"/>
<path d="M170.466 48.7118C171.495 49.7378 172.241 51.0054 172.238 52.5093C172.233 54.3898 171.054 56.2652 168.711 57.6756C164.103 60.4497 156.734 60.3692 152.256 57.4964C150.053 56.0834 148.957 54.26 148.962 52.4392C148.965 51.1404 149.567 49.8417 150.695 48.6936C148.204 50.2131 146.905 52.182 146.9 54.1431C146.895 56.1405 148.183 58.1432 150.775 59.6938C156.051 62.8471 164.724 62.9355 170.15 59.8886C172.908 58.3406 174.295 56.2834 174.3 54.2184C174.306 51.8365 172.531 49.956 170.466 48.7118Z" fill="url(#paint20_linear_9_140)"/>
<path d="M165.394 27.3269C162.708 28.8335 158.414 28.7893 155.804 27.2308C154.521 26.4646 153.882 25.4724 153.884 24.4827L153.874 28.1997C153.871 29.1893 154.508 30.1789 155.793 30.9478C158.404 32.5088 162.697 32.553 165.383 31.0439C166.75 30.2776 167.435 29.2594 167.438 28.236L167.448 24.5191C167.446 25.5425 166.76 26.5607 165.394 27.3269Z" fill="url(#paint21_linear_9_140)"/>
<path d="M152.526 23.0388L152.521 24.4777C152.518 25.6648 153.284 26.857 154.825 27.7765C157.96 29.6519 163.116 29.7038 166.342 27.8934C167.981 26.9739 168.807 25.7505 168.809 24.5219L168.815 23.0829L152.526 23.0388Z" fill="url(#paint22_linear_9_140)"/>
<path d="M166.511 19.784C163.375 17.9086 158.22 17.8567 154.993 19.6671C151.767 21.4775 151.695 24.4646 154.83 26.3373C157.965 28.2127 163.121 28.2646 166.347 26.4542C169.573 24.6464 169.646 21.6593 166.511 19.784Z" fill="url(#paint23_linear_9_140)"/>
<path d="M150.04 12.9061L153.77 23.844C154.025 24.5894 154.643 25.3037 155.627 25.8933C158.334 27.5116 162.786 27.5557 165.573 25.9947C166.63 25.4024 167.295 24.6622 167.565 23.8855L171.357 12.9684L150.04 12.9061Z" fill="url(#paint24_linear_9_140)"/>
<path d="M149.838 10.3889L149.832 11.6694C149.827 13.2539 150.851 14.8435 152.908 16.0721C157.092 18.5735 163.973 18.6436 168.277 16.228C170.464 14.9994 171.565 13.3682 171.57 11.7292L171.573 10.4486L149.838 10.3889Z" fill="url(#paint25_linear_9_140)"/>
<path d="M168.5 6.04346C164.316 3.54211 157.435 3.47198 153.131 5.88761C148.827 8.30324 148.728 12.2877 152.913 14.7891C157.097 17.2904 163.978 17.3605 168.282 14.9449C172.586 12.5319 172.685 8.5448 168.5 6.04346Z" fill="url(#paint26_linear_9_140)"/>
<path d="M167.586 8.61759L166.724 6.2643C167.147 7.42017 166.568 8.67473 164.996 9.55527C162.562 10.9215 158.674 10.88 156.31 9.46696C154.822 8.57603 154.292 7.35263 154.71 6.22794L153.835 8.57603C153.354 9.86436 153.96 11.2644 155.666 12.2826C158.373 13.9008 162.825 13.945 165.612 12.3839C167.409 11.3761 168.074 9.94229 167.586 8.61759Z" fill="url(#paint27_linear_9_140)"/>
<path d="M165.121 4.52401C162.757 3.11099 158.866 3.07203 156.435 4.43569C154.001 5.80195 153.947 8.05394 156.31 9.46695C158.674 10.88 162.565 10.9189 164.996 9.55527C167.43 8.19161 167.485 5.93962 165.121 4.52401Z" fill="url(#paint28_linear_9_140)"/>
<path d="M160.503 3.46939C159.033 3.49537 157.573 3.79927 156.435 4.43564C155.942 4.71357 155.614 5.04345 155.316 5.38111C155.37 6.6149 156.949 7.78376 159.082 8.05129C161.357 8.33701 163.334 7.49544 163.5 6.17593C163.646 5.02526 162.334 3.93174 160.503 3.46939Z" fill="#96AD02"/>
<path d="M164.103 1.97837C162.37 -1.02688 157.97 -0.502191 156.968 2.83294C156.056 5.86416 159.233 9.04344 162.552 7.37068C163.7 6.79145 164.607 5.48234 164.622 3.93945C164.625 3.54983 164.562 2.77839 164.103 1.97837Z" fill="url(#paint29_radial_9_140)"/>
<path d="M143.663 107.536L143.661 108.614C143.653 111.173 145.305 113.739 148.627 115.726C155.383 119.765 166.495 119.877 173.446 115.975C176.978 113.993 178.755 111.357 178.763 108.713L178.765 107.635L143.663 107.536Z" fill="url(#paint30_linear_9_140)"/>
<path d="M173.285 99.3803C170.799 97.8712 167.776 96.9621 164.625 96.5959L149.744 99.105C146.222 101.004 143.78 103.843 143.661 107.539C143.653 110.097 145.305 112.664 148.627 114.651C155.383 118.69 166.495 118.801 173.446 114.9C176.978 112.918 178.755 110.282 178.763 107.531C178.63 104.248 176.786 101.508 173.285 99.3803Z" fill="url(#paint31_linear_9_140)"/>
<path d="M172.908 99.2608C166.633 95.5101 156.31 95.4036 149.856 99.027C143.398 102.65 143.253 108.627 149.528 112.381C152.464 114.136 156.287 115.092 160.183 115.243C164.614 115.414 169.144 114.542 172.581 112.614C173.137 112.303 173.646 111.973 174.108 111.627C179.015 107.975 178.643 102.687 172.908 99.2608ZM173.355 110.838C172.919 111.162 172.441 111.471 171.916 111.765C168.682 113.581 164.417 114.401 160.246 114.24C156.578 114.1 152.978 113.199 150.214 111.547C144.308 108.014 144.445 102.388 150.523 98.9777C156.601 95.5672 166.318 95.6659 172.225 99.1959C177.622 102.422 177.973 107.401 173.355 110.838Z" fill="url(#paint32_linear_9_140)"/>
<path d="M173.615 95.1748L147.17 96.3878C141.988 100.842 142.489 107.307 149.162 111.357C153.682 114.097 163.739 116.427 172.924 111.606C173.09 111.513 173.225 111.365 173.316 111.167C173.225 111.365 173.093 111.51 172.924 111.606C174.352 110.76 178.7 108.183 178.776 103.178C178.81 100.98 177.869 97.9125 173.615 95.1748Z" fill="url(#paint33_linear_9_140)"/>
<path d="M173.209 94.8763C172.669 94.5542 172.103 94.2581 171.508 93.9879L167.635 92.2243C168.004 92.3931 168.357 92.5775 168.693 92.7775L153.999 92.6295C154.279 92.471 154.573 92.3256 154.874 92.1905L150.991 93.9308C150.505 94.149 150.035 94.3853 149.583 94.6373C142.967 98.349 142.817 104.476 149.248 108.321C151.957 109.939 155.401 110.897 158.973 111.183C163.885 111.578 169.041 110.708 172.869 108.56C173.685 108.102 174.402 107.609 175.02 107.087C179.428 103.373 178.849 98.2477 173.209 94.8763Z" fill="url(#paint34_linear_9_140)"/>
<path d="M150.853 96.3023L150.851 96.9309C150.845 98.4452 151.822 99.9647 153.791 101.141C157.791 103.534 164.37 103.599 168.485 101.289C170.576 100.115 171.63 98.5543 171.633 96.988L171.635 96.3595L150.853 96.3023Z" fill="url(#paint35_linear_9_140)"/>
<path d="M168.207 91.0267C168.147 90.9929 154.544 90.8579 154.544 90.8579C152.877 91.78 150.923 93.4527 150.853 96.3021C150.848 97.8164 151.827 99.3359 153.794 100.513C157.794 102.905 164.373 102.97 168.487 100.661C170.578 99.4866 171.63 97.9255 171.635 96.3333C171.583 94.1514 170.43 92.3644 168.207 91.0267Z" fill="url(#paint36_linear_9_140)"/>
<path d="M168.147 90.9955L167.36 90.6293C170.235 92.3488 170.531 94.9618 168.287 96.8554C167.973 97.1229 167.607 97.3749 167.191 97.606C165.238 98.7022 162.609 99.1463 160.103 98.9437C158.282 98.7983 156.526 98.3099 155.144 97.484C151.866 95.5229 151.942 92.4007 155.316 90.5072L154.544 90.8579C150.734 92.9956 150.648 96.5229 154.352 98.7359C155.91 99.6684 157.895 100.219 159.952 100.383C162.781 100.611 165.75 100.11 167.955 98.871C168.425 98.6087 168.838 98.3229 169.194 98.0216C171.729 95.8865 171.394 92.9358 168.147 90.9955Z" fill="url(#paint37_linear_9_140)"/>
<path d="M169.596 93.0812L167.277 86.4993L155.266 86.4655L152.91 93.0318C152.355 94.5799 153.095 96.2579 155.142 97.4839C158.42 99.4449 163.814 99.4995 167.186 97.606C169.35 96.3929 170.157 94.6734 169.596 93.0812Z" fill="url(#paint38_linear_9_140)"/>
<path d="M171.108 81.7955C170.03 79.7097 167.731 78.385 165.059 77.7564C166.217 78.0422 167.3 78.4655 168.233 79.0214C171.965 81.2526 171.877 84.8059 168.038 86.9618C164.199 89.1151 158.064 89.0554 154.331 86.8241C150.729 84.6709 150.721 81.2916 154.181 79.1227C152.684 80.0006 151.523 81.1617 151.082 82.6786C149.206 89.1229 160.251 93.2502 168.212 89.0787C169.059 88.5748 171.63 87.0397 171.669 84.0605C171.677 83.5384 171.586 82.7202 171.108 81.7955Z" fill="url(#paint39_linear_9_140)"/>
<path d="M168.235 79.0214C164.503 76.7902 158.368 76.7278 154.529 78.8837C150.69 81.037 150.604 84.5929 154.334 86.8215C155.957 87.793 158.035 88.3514 160.183 88.4969C162.97 88.6865 165.872 88.1774 168.041 86.9592C168.485 86.7098 168.879 86.4397 169.225 86.1566C171.846 84.0007 171.531 80.9954 168.235 79.0214Z" fill="url(#paint40_linear_9_140)"/>
<path d="M168.235 79.0214C164.503 76.7902 158.368 76.7278 154.529 78.8837C153.001 79.7409 152.095 80.8214 151.76 81.9487C151.89 82.037 151.986 82.1331 152.126 82.2162C153.749 83.1877 155.827 83.7461 157.975 83.8916C160.762 84.0812 163.664 83.5721 165.833 82.3539C166.277 82.1045 166.672 81.8344 167.017 81.5513C167.856 80.8604 168.363 80.0811 168.596 79.2785C168.469 79.1954 168.37 79.1045 168.235 79.0214Z" fill="#DBD7CC"/>
<path d="M170.778 74.055C170.786 73.1121 170.633 71.242 169.518 69.3043C165.321 62.0184 154.653 63.2938 152.225 71.3744C150.014 78.7226 157.713 86.4345 165.763 82.3746C168.544 80.972 170.744 77.8005 170.778 74.055Z" fill="url(#paint41_radial_9_140)"/>
<path d="M167.828 70.6525C167.085 71.9383 165.202 72.2396 163.62 71.3253C162.038 70.411 161.357 68.6291 162.098 67.3434C162.84 66.0576 164.724 65.7563 166.305 66.6706C167.89 67.5849 168.57 69.3668 167.828 70.6525Z" fill="white"/>
<path d="M247.86 87.1462L247.858 88.2242C247.85 90.7827 249.499 93.349 252.824 95.336C259.58 99.375 270.692 99.4867 277.643 95.588C281.175 93.6061 282.952 90.9697 282.959 88.3229L282.962 87.2449L247.86 87.1462Z" fill="url(#paint42_linear_9_140)"/>
<path d="M277.481 78.9876C274.996 77.4785 271.972 76.5694 268.822 76.2031L253.941 78.7123C250.419 80.611 247.977 83.45 247.86 87.1462C247.852 89.7047 249.504 92.271 252.826 94.258C259.582 98.297 270.694 98.4087 277.645 94.5074C281.178 92.5255 282.954 89.8891 282.962 87.1384C282.827 83.8578 280.985 81.1149 277.481 78.9876Z" fill="url(#paint43_linear_9_140)"/>
<path d="M277.107 78.868C270.832 75.1173 260.51 75.0108 254.055 78.6342C247.598 82.2577 247.452 88.2344 253.728 91.9877C256.663 93.7436 260.486 94.6995 264.383 94.8501C268.814 95.0216 273.344 94.1488 276.78 92.2215C277.336 91.9098 277.845 91.5799 278.307 91.2345C283.214 87.585 282.84 82.2966 277.107 78.868ZM277.554 90.4474C277.118 90.7721 276.64 91.0812 276.115 91.3747C272.881 93.1903 268.616 94.0111 264.442 93.8501C260.775 93.7098 257.175 92.8085 254.411 91.1565C248.502 87.624 248.639 81.9979 254.72 78.5875C260.798 75.177 270.515 75.2757 276.422 78.8057C281.822 82.0317 282.172 87.0084 277.554 90.4474Z" fill="url(#paint44_linear_9_140)"/>
<path d="M277.814 74.7823L251.369 75.9953C246.187 80.45 246.689 86.915 253.362 90.9644C257.881 93.7073 267.938 96.0347 277.123 91.2138C277.289 91.1203 277.424 90.9722 277.515 90.7748C277.424 90.9722 277.292 91.1177 277.123 91.2138C278.552 90.367 282.9 87.7878 282.975 82.7851C283.009 80.5876 282.066 77.5226 277.814 74.7823Z" fill="url(#paint45_linear_9_140)"/>
<path d="M277.409 74.4863C276.868 74.1642 276.302 73.8681 275.707 73.598L271.835 71.8343C272.203 72.0032 272.557 72.1876 272.892 72.3876L258.198 72.2395C258.479 72.0811 258.772 71.9356 259.073 71.8006L255.19 73.5409C254.704 73.7591 254.234 73.9954 253.782 74.2474C247.167 77.9591 247.016 84.0865 253.447 87.9307C256.156 89.5489 259.601 90.5074 263.175 90.7931C268.086 91.1879 273.242 90.3178 277.071 88.1697C277.887 87.7126 278.604 87.219 279.222 86.6969C283.627 82.9826 283.048 77.8578 277.409 74.4863Z" fill="url(#paint46_linear_9_140)"/>
<path d="M255.052 75.9124L255.05 76.5409C255.045 78.0553 256.024 79.5748 257.99 80.7514C261.99 83.1437 268.57 83.2086 272.684 80.8995C274.775 79.7254 275.829 78.1643 275.832 76.5981L275.835 75.9695L255.052 75.9124Z" fill="url(#paint47_linear_9_140)"/>
<path d="M272.406 70.6368C272.346 70.603 258.741 70.4679 258.741 70.4679C257.073 71.39 255.12 73.0628 255.052 75.9122C255.047 77.4265 256.024 78.946 257.993 80.1226C261.993 82.5149 268.572 82.5798 272.687 80.2707C274.777 79.0967 275.829 77.5356 275.835 75.9434C275.783 73.7589 274.629 71.9745 272.406 70.6368Z" fill="url(#paint48_linear_9_140)"/>
<path d="M272.346 70.603L271.559 70.2368C274.435 71.9563 274.731 74.5693 272.487 76.4629C272.172 76.7304 271.806 76.9823 271.39 77.2135C269.437 78.3096 266.809 78.7538 264.302 78.5512C262.481 78.4057 260.725 77.9174 259.343 77.0914C256.066 75.1304 256.141 72.0082 259.515 70.1147L258.746 70.4627C254.936 72.6004 254.85 76.1278 258.554 78.3408C260.112 79.2733 262.097 79.8239 264.154 79.9876C266.983 80.2162 269.951 79.7149 272.157 78.4759C272.627 78.2135 273.04 77.9278 273.396 77.6265C275.926 75.494 275.593 72.5433 272.346 70.603Z" fill="url(#paint49_linear_9_140)"/>
<path d="M273.796 72.6887L271.476 66.1068L259.466 66.073L257.11 72.6394C256.554 74.1874 257.294 75.8654 259.341 77.0914C262.619 79.0524 268.014 79.107 271.385 77.2135C273.549 76.003 274.357 74.2835 273.796 72.6887Z" fill="url(#paint50_linear_9_140)"/>
<path d="M275.307 61.4056C274.229 59.3199 271.931 57.9952 269.258 57.3666C270.416 57.6523 271.5 58.0731 272.432 58.6315C276.165 60.8627 276.076 64.4161 272.237 66.5693C268.398 68.7226 262.263 68.6629 258.53 66.4317C254.928 64.2784 254.92 60.8991 258.38 58.7302C256.884 59.6082 255.723 60.7692 255.281 62.2862C253.403 68.7304 264.45 72.8578 272.411 68.6863C273.258 68.1824 275.829 66.6473 275.868 63.668C275.876 63.1459 275.783 62.3303 275.307 61.4056Z" fill="url(#paint51_linear_9_140)"/>
<path d="M272.432 58.6315C268.699 56.4003 262.564 56.338 258.725 58.4938C254.886 60.6471 254.801 64.203 258.53 66.4316C260.154 67.4031 262.232 67.9615 264.38 68.107C267.167 68.2966 270.068 67.7875 272.237 66.5693C272.681 66.32 273.076 66.0498 273.422 65.7667C276.045 63.6108 275.731 60.603 272.432 58.6315Z" fill="url(#paint52_linear_9_140)"/>
<path d="M272.432 58.6315C268.7 56.4003 262.564 56.338 258.725 58.4938C257.198 59.351 256.291 60.4315 255.956 61.5588C256.086 61.6471 256.182 61.7432 256.323 61.8264C257.946 62.7978 260.024 63.3563 262.172 63.5017C264.959 63.6913 267.861 63.1822 270.029 61.964C270.474 61.7147 270.868 61.4445 271.214 61.1614C272.053 60.4705 272.559 59.6913 272.793 58.8887C272.668 58.8055 272.57 58.712 272.432 58.6315Z" fill="#DBD7CC"/>
<path d="M274.975 53.6651C274.983 52.7222 274.832 50.852 273.715 48.9143C269.518 41.6285 258.85 42.9038 256.421 50.9845C254.213 58.3353 261.91 66.0445 269.959 61.9847C272.744 60.5821 274.944 57.4106 274.975 53.6651Z" fill="url(#paint53_radial_9_140)"/>
<path d="M272.027 50.2625C271.284 51.5483 269.401 51.8496 267.819 50.9353C266.237 50.021 265.557 48.2391 266.297 46.9534C267.04 45.6677 268.923 45.3664 270.505 46.2807C272.089 47.195 272.77 48.9768 272.027 50.2625Z" fill="white"/>
<path d="M36.8174 81.6812L36.8044 86.0527C36.7966 88.8735 38.6148 91.7021 42.2772 93.8918C49.7241 98.3438 61.9711 98.4685 69.6336 94.1697C73.5271 91.9852 75.4882 89.0787 75.496 86.1617L75.509 81.7902L36.8174 81.6812Z" fill="#DBD7CC"/>
<path d="M70.0335 73.9511L69.5452 73.668C73.3764 75.9589 75.1167 78.9746 74.7843 81.9201C74.4933 84.4968 72.618 87.0189 69.1712 88.954C67.6335 89.8163 65.9036 90.4969 64.062 90.9904C57.0619 92.8709 48.4695 92.0891 42.7811 88.6864C35.5965 84.3929 35.7654 77.5486 43.1551 73.403L42.6772 73.6758C35.0147 77.9746 34.8407 85.0682 42.2902 89.5202C48.1864 93.045 57.093 93.8554 64.3503 91.9073C66.2568 91.3956 68.0517 90.6917 69.6465 89.7956C73.2206 87.7903 75.1661 85.1747 75.4674 82.5045C75.8103 79.4525 74.0076 76.3252 70.0335 73.9511Z" fill="url(#paint54_linear_9_140)"/>
<path d="M69.5504 71.5484C69.4725 71.5016 69.3946 71.4575 69.3166 71.4107L65.8335 69.4003C65.8906 69.4341 65.9477 69.4678 66.0049 69.5016L46.6305 69.3068L43.1629 71.2834C35.7732 75.4316 35.6043 82.2733 42.7889 86.5669C48.4721 89.9643 57.0567 90.7487 64.0542 88.8734C65.901 88.3799 67.6361 87.6993 69.179 86.8344C72.6362 84.8941 74.5141 82.3642 74.7973 79.7823C75.1141 76.842 73.3739 73.8341 69.5504 71.5484Z" fill="url(#paint55_linear_9_140)"/>
<path d="M69.1764 86.8319C61.7867 90.98 49.9709 90.8605 42.7889 86.5644C39.2564 84.4526 37.5005 81.7253 37.5083 79.0032L37.5031 81.1227C37.4953 83.8448 39.2512 86.5721 42.7837 88.6839C49.9683 92.9775 61.7815 93.0969 69.1712 88.9514C72.9271 86.8449 74.8181 84.0396 74.8259 81.2292L74.8311 79.1097C74.8233 81.9227 72.9323 84.7254 69.1764 86.8319Z" fill="#DBD7CC"/>
<path d="M65.7374 78.4501C60.3113 81.4943 51.6384 81.4086 46.363 78.2553C43.7681 76.7046 42.4798 74.702 42.4876 72.7045L42.4824 74.9773C42.4772 76.9747 43.7655 78.9774 46.3578 80.5281C51.6332 83.6814 60.3061 83.7697 65.7321 80.7229C68.4906 79.1748 69.8777 77.1176 69.8829 75.0526L69.8881 72.7799C69.8829 74.8448 68.4932 76.9046 65.7374 78.4501Z" fill="#DBD7CC"/>
<path d="M65.9452 67.1978C64.5348 64.1562 64.1867 59.5145 64.036 56.3223C64.0075 55.4625 63.9867 54.5768 63.9893 53.6235C63.9867 54.7924 63.2023 55.956 61.6412 56.8314C58.5736 58.5535 53.6696 58.5041 50.6852 56.7197C49.2176 55.8443 48.4903 54.7119 48.4929 53.582C48.4903 54.2859 48.4669 54.9223 48.4461 55.5768C48.3293 59.447 47.9994 63.4289 46.5448 66.9718C46.5162 67.0316 46.4799 67.0731 46.4461 67.1407C43.8305 68.6732 42.4902 70.6992 42.485 72.7096C42.4798 74.707 43.7681 76.7097 46.3604 78.2603C51.6358 81.4136 60.3087 81.502 65.7348 78.4552C68.4933 76.9071 69.8803 74.8499 69.8855 72.7849C69.8959 70.3563 68.0595 68.442 65.9452 67.1978Z" fill="url(#paint56_linear_9_140)"/>
<path d="M43.685 50.2156L43.6824 51.065C43.6772 52.8962 44.8591 54.7352 47.2383 56.156C52.0748 59.0469 60.0308 59.1275 65.0101 56.3352C67.54 54.917 68.8127 53.0286 68.8179 51.1351L68.8205 50.2883L43.685 50.2156Z" fill="url(#paint57_linear_9_140)"/>
<path d="M65.262 45.1948C64.0464 44.4675 62.6334 43.9195 61.1217 43.548L58.8983 43.0026C59.7165 43.2026 60.4827 43.5013 61.1399 43.8935L51.5215 43.7974C52.1553 43.4416 52.8774 43.1714 53.6489 42.987L51.4228 43.5195C50.002 43.8597 48.6643 44.3584 47.4929 45.0156C42.5162 47.8079 42.4019 52.4157 47.2409 55.3093C50.8046 57.4392 56.0593 58.0444 60.5685 57.0989C62.1815 56.7613 63.6984 56.2236 65.0101 55.4885C67.6101 54.0288 68.8829 52.0755 68.8154 50.1274C68.753 48.3481 67.5712 46.5767 65.262 45.1948Z" fill="url(#paint58_linear_9_140)"/>
<path d="M66.0542 67.2732C67.0828 68.2992 67.8283 69.5668 67.8257 71.0707C67.8205 72.9512 66.6412 74.8266 64.2983 76.237C59.6904 79.0111 52.3215 78.9306 47.8435 76.0578C45.6408 74.6448 44.5447 72.8214 44.5499 71.0006C44.5525 69.7018 45.1551 68.4031 46.2824 67.255C43.7915 68.7745 42.4927 70.7434 42.4875 72.7045C42.4823 74.7019 43.7707 76.7046 46.3629 78.2552C51.6384 81.4085 60.3112 81.4943 65.7373 78.45C68.4958 76.902 69.8828 74.8448 69.888 72.7798C69.8958 70.4005 68.1218 68.52 66.0542 67.2732Z" fill="url(#paint59_linear_9_140)"/>
<path d="M60.9814 45.8882C58.2956 47.3948 54.002 47.3532 51.3916 45.7921C50.1084 45.0259 49.4695 44.0337 49.4721 43.044L49.4617 46.761C49.4591 47.7506 50.098 48.7428 51.3812 49.5091C53.9916 51.0702 58.2852 51.1143 60.971 49.6052C62.3372 48.839 63.023 47.8207 63.0256 46.7974L63.036 43.0804C63.036 44.1038 62.3476 45.122 60.9814 45.8882Z" fill="url(#paint60_linear_9_140)"/>
<path d="M48.1136 41.6026L48.1084 43.0416C48.1058 44.2287 48.8721 45.4209 50.4124 46.3404C53.5475 48.2131 58.7034 48.2677 61.9295 46.4573C63.5685 45.5378 64.3944 44.3144 64.397 43.0858L64.4022 41.6468L48.1136 41.6026Z" fill="url(#paint61_linear_9_140)"/>
<path d="M62.0983 38.3478C58.9632 36.4725 53.8073 36.4205 50.5812 38.2309C47.3552 40.0414 47.2825 43.0284 50.4176 44.9012C53.5527 46.7766 58.7087 46.8285 61.9347 45.0181C65.1607 43.2077 65.2335 40.2206 62.0983 38.3478Z" fill="url(#paint62_linear_9_140)"/>
<path d="M45.6305 31.4671L49.3604 42.405C49.615 43.1505 50.2332 43.8674 51.2176 44.4544C53.9241 46.0726 58.3762 46.1168 61.1632 44.5557C62.2204 43.9635 62.8853 43.2232 63.1555 42.4466L66.9478 31.5295L45.6305 31.4671Z" fill="url(#paint63_linear_9_140)"/>
<path d="M45.4253 28.9502L45.4227 30.2308C45.4175 31.8152 46.4409 33.4049 48.4981 34.6334C52.6826 37.1348 59.5632 37.2049 63.8672 34.7893C66.0542 33.5607 67.1556 31.9295 67.1608 30.2905L67.1633 29.01L45.4253 28.9502Z" fill="url(#paint64_linear_9_140)"/>
<path d="M64.0879 24.6073C59.9034 22.106 53.0228 22.0359 48.7188 24.4515C44.4148 26.8671 44.3161 30.8516 48.5006 33.353C52.6851 35.8543 59.5658 35.9244 63.8697 33.5088C68.1737 31.0932 68.2724 27.1087 64.0879 24.6073Z" fill="url(#paint65_linear_9_140)"/>
<path d="M63.1763 27.1789L62.3139 24.8256C62.7373 25.9841 62.1581 27.2361 60.5866 28.1166C58.1528 29.4829 54.2644 29.4413 51.9008 28.0283C50.4124 27.1374 49.8825 25.914 50.3007 24.7893L49.4254 27.1374C48.9449 28.4257 49.5501 29.8257 51.2566 30.8439C53.9631 32.4621 58.4152 32.5063 61.2022 30.9452C62.9997 29.9374 63.662 28.5036 63.1763 27.1789Z" fill="url(#paint66_linear_9_140)"/>
<path d="M60.7113 23.0879C58.3476 21.6749 54.4566 21.6359 52.0254 22.9996C49.5916 24.3658 49.537 26.6178 51.9007 28.0308C54.2644 29.4438 58.1554 29.4828 60.5866 28.1191C63.0204 26.7529 63.0749 24.5009 60.7113 23.0879Z" fill="url(#paint67_linear_9_140)"/>
<path d="M56.0904 22.0308C54.6203 22.0568 53.1605 22.3607 52.0228 22.997C51.5293 23.275 51.202 23.6048 50.9033 23.9425C50.9605 25.1763 52.5371 26.3452 54.6696 26.6127C56.945 26.8984 58.9217 26.0594 59.0879 24.7373C59.2333 23.5893 57.9242 22.4957 56.0904 22.0308Z" fill="#DAD6CB"/>
<path d="M60.21 22.5009C60.2126 22.1113 60.1503 21.3398 59.6905 20.5424C57.958 17.5371 53.5579 18.0644 52.5553 21.397C51.6436 24.4282 54.8203 27.6075 58.1398 25.9347C59.2905 25.3555 60.197 24.0464 60.21 22.5009Z" fill="url(#paint68_radial_9_140)"/>
<defs>
<linearGradient id="paint0_linear_9_140" x1="13.8727" y1="89.5207" x2="309.029" y2="89.5207" gradientUnits="userSpaceOnUse">
<stop stop-color="#484848"/>
<stop offset="1" stop-color="#646464"/>
</linearGradient>
<linearGradient id="paint1_linear_9_140" x1="211.349" y1="105.503" x2="250.04" y2="105.503" gradientUnits="userSpaceOnUse">
<stop stop-color="#EEE8DE"/>
<stop offset="0.4729" stop-color="#F4F1E8"/>
<stop offset="1" stop-color="#F8F6EE"/>
</linearGradient>
<linearGradient id="paint2_linear_9_140" x1="212.04" y1="101.918" x2="249.363" y2="101.918" gradientUnits="userSpaceOnUse">
<stop stop-color="#EEE8DE"/>
<stop offset="0.4729" stop-color="#F4F1E8"/>
<stop offset="1" stop-color="#F8F6EE"/>
</linearGradient>
<linearGradient id="paint3_linear_9_140" x1="222.982" y1="77.7353" x2="236.757" y2="101.925" gradientUnits="userSpaceOnUse">
<stop stop-color="#CBC7BC"/>
<stop offset="1" stop-color="#EEE8DE"/>
</linearGradient>
<linearGradient id="paint4_linear_9_140" x1="218.214" y1="76.6294" x2="243.35" y2="76.6294" gradientUnits="userSpaceOnUse">
<stop stop-color="#D7D3C8"/>
<stop offset="1" stop-color="#F2ECE2"/>
</linearGradient>
<linearGradient id="paint5_linear_9_140" x1="218.216" y1="72.5915" x2="243.35" y2="72.5915" gradientUnits="userSpaceOnUse">
<stop stop-color="#EEE8DE"/>
<stop offset="0.4729" stop-color="#F4F1E8"/>
<stop offset="1" stop-color="#F8F6EE"/>
</linearGradient>
<linearGradient id="paint6_linear_9_140" x1="223.992" y1="68.7292" x2="237.608" y2="68.7292" gradientUnits="userSpaceOnUse">
<stop stop-color="#CBC7BC"/>
<stop offset="1" stop-color="#EEE8DE"/>
</linearGradient>
<linearGradient id="paint7_linear_9_140" x1="220.236" y1="60.7913" x2="241.4" y2="60.7913" gradientUnits="userSpaceOnUse">
<stop stop-color="#D7D3C8"/>
<stop offset="1" stop-color="#F2ECE2"/>
</linearGradient>
<linearGradient id="paint8_linear_9_140" x1="222.136" y1="56.8256" x2="239.52" y2="56.8256" gradientUnits="userSpaceOnUse">
<stop stop-color="#EEE8DE"/>
<stop offset="0.4729" stop-color="#F4F1E8"/>
<stop offset="1" stop-color="#F8F6EE"/>
</linearGradient>
<linearGradient id="paint9_linear_9_140" x1="224.593" y1="56.8623" x2="237.063" y2="56.8623" gradientUnits="userSpaceOnUse">
<stop stop-color="#D7D3C8"/>
<stop offset="1" stop-color="#F2ECE2"/>
</linearGradient>
<radialGradient id="paint10_radial_9_140" cx="0" cy="0" r="1" gradientUnits="userSpaceOnUse" gradientTransform="translate(232.894 51.4742) scale(8.86561 8.86562)">
<stop stop-color="#F8F6EE"/>
<stop offset="0.4084" stop-color="#F5F3EB"/>
<stop offset="0.7602" stop-color="#ECE9E0"/>
<stop offset="1" stop-color="#E1DED4"/>
</radialGradient>
<linearGradient id="paint11_linear_9_140" x1="217.279" y1="96.2987" x2="243.439" y2="96.2987" gradientUnits="userSpaceOnUse">
<stop stop-color="#EEE8DE"/>
<stop offset="0.4729" stop-color="#F4F1E8"/>
<stop offset="1" stop-color="#F8F6EE"/>
</linearGradient>
<linearGradient id="paint12_linear_9_140" x1="141.215" y1="70.9337" x2="179.919" y2="70.9337" gradientUnits="userSpaceOnUse">
<stop stop-color="#D2F300"/>
<stop offset="1" stop-color="#A1BA00"/>
</linearGradient>
<linearGradient id="paint13_linear_9_140" x1="141.228" y1="64.6082" x2="179.919" y2="64.6082" gradientUnits="userSpaceOnUse">
<stop stop-color="#DBFD00"/>
<stop offset="1" stop-color="#DEFF08"/>
</linearGradient>
<linearGradient id="paint14_linear_9_140" x1="141.919" y1="61.0235" x2="179.242" y2="61.0235" gradientUnits="userSpaceOnUse">
<stop stop-color="#DDFF00"/>
<stop offset="1" stop-color="#B7D300"/>
</linearGradient>
<linearGradient id="paint15_linear_9_140" x1="141.913" y1="66.9331" x2="179.242" y2="66.9331" gradientUnits="userSpaceOnUse">
<stop stop-color="#96AD03"/>
<stop offset="1" stop-color="#C2E000"/>
</linearGradient>
<linearGradient id="paint16_linear_9_140" x1="146.891" y1="59.2645" x2="174.299" y2="59.2645" gradientUnits="userSpaceOnUse">
<stop stop-color="#C2DF00"/>
<stop offset="1" stop-color="#9BB208"/>
</linearGradient>
<linearGradient id="paint17_linear_9_140" x1="152.861" y1="36.8407" x2="166.636" y2="61.0305" gradientUnits="userSpaceOnUse">
<stop stop-color="#9CB400"/>
<stop offset="1" stop-color="#DDFF00"/>
</linearGradient>
<linearGradient id="paint18_linear_9_140" x1="148.093" y1="35.7348" x2="173.229" y2="35.7348" gradientUnits="userSpaceOnUse">
<stop stop-color="#8FA500"/>
<stop offset="1" stop-color="#859900"/>
</linearGradient>
<linearGradient id="paint19_linear_9_140" x1="148.095" y1="31.6969" x2="173.229" y2="31.6969" gradientUnits="userSpaceOnUse">
<stop stop-color="#DDFF00"/>
<stop offset="1" stop-color="#99B100"/>
</linearGradient>
<linearGradient id="paint20_linear_9_140" x1="147.158" y1="55.4041" x2="173.318" y2="55.4041" gradientUnits="userSpaceOnUse">
<stop stop-color="#BEDC00"/>
<stop offset="1" stop-color="#BCD802"/>
</linearGradient>
<linearGradient id="paint21_linear_9_140" x1="153.873" y1="28.3134" x2="167.449" y2="28.3134" gradientUnits="userSpaceOnUse">
<stop stop-color="#9EB506"/>
<stop offset="1" stop-color="#7A8D00"/>
</linearGradient>
<linearGradient id="paint22_linear_9_140" x1="152.522" y1="26.1287" x2="168.815" y2="26.1287" gradientUnits="userSpaceOnUse">
<stop stop-color="#DDFF00"/>
<stop offset="1" stop-color="#A1BA00"/>
</linearGradient>
<linearGradient id="paint23_linear_9_140" x1="152.526" y1="23.0619" x2="168.815" y2="23.0619" gradientUnits="userSpaceOnUse">
<stop stop-color="#8FA500"/>
<stop offset="1" stop-color="#444E00"/>
</linearGradient>
<linearGradient id="paint24_linear_9_140" x1="150.041" y1="20.0205" x2="171.357" y2="20.0205" gradientUnits="userSpaceOnUse">
<stop stop-color="#8FA500"/>
<stop offset="1" stop-color="#DDFF00"/>
</linearGradient>
<linearGradient id="paint25_linear_9_140" x1="149.834" y1="14.1905" x2="171.575" y2="14.1905" gradientUnits="userSpaceOnUse">
<stop stop-color="#B9D600"/>
<stop offset="1" stop-color="#DDFF00"/>
</linearGradient>
<linearGradient id="paint26_linear_9_140" x1="149.838" y1="10.4181" x2="171.575" y2="10.4181" gradientUnits="userSpaceOnUse">
<stop stop-color="#9BB300"/>
<stop offset="1" stop-color="#C2E000"/>
</linearGradient>
<linearGradient id="paint27_linear_9_140" x1="153.676" y1="9.87969" x2="167.742" y2="9.87969" gradientUnits="userSpaceOnUse">
<stop stop-color="#A9B940"/>
<stop offset="1" stop-color="#809400"/>
</linearGradient>
<linearGradient id="paint28_linear_9_140" x1="154.573" y1="6.99652" x2="166.859" y2="6.99652" gradientUnits="userSpaceOnUse">
<stop stop-color="#4F5B00"/>
<stop offset="1" stop-color="#A8C200"/>
</linearGradient>
<radialGradient id="paint29_radial_9_140" cx="0" cy="0" r="1" gradientUnits="userSpaceOnUse" gradientTransform="translate(163.073 -0.0312731) scale(8.13651 8.13651)">
<stop stop-color="#DDFF00"/>
<stop offset="1" stop-color="#DDFF00"/>
</radialGradient>
<linearGradient id="paint30_linear_9_140" x1="143.66" y1="113.182" x2="178.764" y2="113.182" gradientUnits="userSpaceOnUse">
<stop stop-color="#D7D3C8"/>
<stop offset="1" stop-color="#F2ECE2"/>
</linearGradient>
<linearGradient id="paint31_linear_9_140" x1="143.663" y1="107.173" x2="178.764" y2="107.173" gradientUnits="userSpaceOnUse">
<stop stop-color="#EEE8DE"/>
<stop offset="0.4729" stop-color="#F4F1E8"/>
<stop offset="1" stop-color="#F8F6EE"/>
</linearGradient>
<linearGradient id="paint32_linear_9_140" x1="144.916" y1="105.82" x2="177.52" y2="105.82" gradientUnits="userSpaceOnUse">
<stop stop-color="#CBC7BC"/>
<stop offset="1" stop-color="#EEE8DE"/>
</linearGradient>
<linearGradient id="paint33_linear_9_140" x1="143.673" y1="104.784" x2="178.777" y2="104.784" gradientUnits="userSpaceOnUse">
<stop stop-color="#D7D3C8"/>
<stop offset="1" stop-color="#F2ECE2"/>
</linearGradient>
<linearGradient id="paint34_linear_9_140" x1="144.524" y1="101.734" x2="177.936" y2="101.734" gradientUnits="userSpaceOnUse">
<stop stop-color="#EEE8DE"/>
<stop offset="0.4729" stop-color="#F4F1E8"/>
<stop offset="1" stop-color="#F8F6EE"/>
</linearGradient>
<linearGradient id="paint35_linear_9_140" x1="150.853" y1="99.6408" x2="171.636" y2="99.6408" gradientUnits="userSpaceOnUse">
<stop stop-color="#CBC7BC"/>
<stop offset="1" stop-color="#EEE8DE"/>
</linearGradient>
<linearGradient id="paint36_linear_9_140" x1="150.854" y1="96.6037" x2="171.636" y2="96.6037" gradientUnits="userSpaceOnUse">
<stop stop-color="#D7D3C8"/>
<stop offset="1" stop-color="#F2ECE2"/>
</linearGradient>
<linearGradient id="paint37_linear_9_140" x1="151.629" y1="95.4722" x2="170.869" y2="95.4722" gradientUnits="userSpaceOnUse">
<stop stop-color="#EEE8DE"/>
<stop offset="0.4729" stop-color="#F4F1E8"/>
<stop offset="1" stop-color="#F8F6EE"/>
</linearGradient>
<linearGradient id="paint38_linear_9_140" x1="152.733" y1="92.7285" x2="169.77" y2="92.7285" gradientUnits="userSpaceOnUse">
<stop stop-color="#CBC7BC"/>
<stop offset="1" stop-color="#EEE8DE"/>
</linearGradient>
<linearGradient id="paint39_linear_9_140" x1="150.872" y1="84.2594" x2="171.671" y2="84.2594" gradientUnits="userSpaceOnUse">
<stop stop-color="#D7D3C8"/>
<stop offset="1" stop-color="#F2ECE2"/>
</linearGradient>
<linearGradient id="paint40_linear_9_140" x1="151.59" y1="82.9227" x2="170.976" y2="82.9227" gradientUnits="userSpaceOnUse">
<stop stop-color="#EEE8DE"/>
<stop offset="0.4729" stop-color="#F4F1E8"/>
<stop offset="1" stop-color="#F8F6EE"/>
</linearGradient>
<radialGradient id="paint41_radial_9_140" cx="0" cy="0" r="1" gradientUnits="userSpaceOnUse" gradientTransform="translate(165.582 66.906) scale(18.2242)">
<stop stop-color="#F8F6EE"/>
<stop offset="0.4487" stop-color="#F6F3EB"/>
<stop offset="0.8353" stop-color="#EEEAE0"/>
<stop offset="1" stop-color="#E9E4D9"/>
</radialGradient>
<linearGradient id="paint42_linear_9_140" x1="247.858" y1="92.7915" x2="282.962" y2="92.7915" gradientUnits="userSpaceOnUse">
<stop stop-color="#D7D3C8"/>
<stop offset="1" stop-color="#F2ECE2"/>
</linearGradient>
<linearGradient id="paint43_linear_9_140" x1="247.861" y1="86.7818" x2="282.962" y2="86.7818" gradientUnits="userSpaceOnUse">
<stop stop-color="#EEE8DE"/>
<stop offset="0.4729" stop-color="#F4F1E8"/>
<stop offset="1" stop-color="#F8F6EE"/>
</linearGradient>
<linearGradient id="paint44_linear_9_140" x1="249.114" y1="85.4284" x2="281.719" y2="85.4284" gradientUnits="userSpaceOnUse">
<stop stop-color="#CBC7BC"/>
<stop offset="1" stop-color="#EEE8DE"/>
</linearGradient>
<linearGradient id="paint45_linear_9_140" x1="247.871" y1="84.3929" x2="282.976" y2="84.3929" gradientUnits="userSpaceOnUse">
<stop stop-color="#D7D3C8"/>
<stop offset="1" stop-color="#F2ECE2"/>
</linearGradient>
<linearGradient id="paint46_linear_9_140" x1="248.723" y1="81.3426" x2="282.135" y2="81.3426" gradientUnits="userSpaceOnUse">
<stop stop-color="#EEE8DE"/>
<stop offset="0.4729" stop-color="#F4F1E8"/>
<stop offset="1" stop-color="#F8F6EE"/>
</linearGradient>
<linearGradient id="paint47_linear_9_140" x1="255.051" y1="79.2498" x2="275.835" y2="79.2498" gradientUnits="userSpaceOnUse">
<stop stop-color="#CBC7BC"/>
<stop offset="1" stop-color="#EEE8DE"/>
</linearGradient>
<linearGradient id="paint48_linear_9_140" x1="255.053" y1="76.2127" x2="275.835" y2="76.2127" gradientUnits="userSpaceOnUse">
<stop stop-color="#D7D3C8"/>
<stop offset="1" stop-color="#F2ECE2"/>
</linearGradient>
<linearGradient id="paint49_linear_9_140" x1="255.828" y1="75.0813" x2="275.068" y2="75.0813" gradientUnits="userSpaceOnUse">
<stop stop-color="#EEE8DE"/>
<stop offset="0.4729" stop-color="#F4F1E8"/>
<stop offset="1" stop-color="#F8F6EE"/>
</linearGradient>
<linearGradient id="paint50_linear_9_140" x1="256.932" y1="72.3375" x2="273.968" y2="72.3375" gradientUnits="userSpaceOnUse">
<stop stop-color="#CBC7BC"/>
<stop offset="1" stop-color="#EEE8DE"/>
</linearGradient>
<linearGradient id="paint51_linear_9_140" x1="255.071" y1="63.8685" x2="275.87" y2="63.8685" gradientUnits="userSpaceOnUse">
<stop stop-color="#D7D3C8"/>
<stop offset="1" stop-color="#F2ECE2"/>
</linearGradient>
<linearGradient id="paint52_linear_9_140" x1="255.789" y1="62.5318" x2="275.175" y2="62.5318" gradientUnits="userSpaceOnUse">
<stop stop-color="#EEE8DE"/>
<stop offset="0.4729" stop-color="#F4F1E8"/>
<stop offset="1" stop-color="#F8F6EE"/>
</linearGradient>
<radialGradient id="paint53_radial_9_140" cx="0" cy="0" r="1" gradientUnits="userSpaceOnUse" gradientTransform="translate(269.781 46.5151) scale(18.2245 18.2245)">
<stop stop-color="#F8F6EE"/>
<stop offset="0.4487" stop-color="#F6F3EB"/>
<stop offset="0.8353" stop-color="#EEEAE0"/>
<stop offset="1" stop-color="#E9E4D9"/>
</radialGradient>
<linearGradient id="paint54_linear_9_140" x1="36.8163" y1="83.1708" x2="75.5074" y2="83.1708" gradientUnits="userSpaceOnUse">
<stop stop-color="#EEE8DE"/>
<stop offset="0.4729" stop-color="#F4F1E8"/>
<stop offset="1" stop-color="#F8F6EE"/>
</linearGradient>
<linearGradient id="paint55_linear_9_140" x1="37.508" y1="79.5859" x2="74.831" y2="79.5859" gradientUnits="userSpaceOnUse">
<stop stop-color="#EEE8DE"/>
<stop offset="0.4729" stop-color="#F4F1E8"/>
<stop offset="1" stop-color="#F8F6EE"/>
</linearGradient>
<linearGradient id="paint56_linear_9_140" x1="48.4503" y1="55.403" x2="62.2251" y2="79.5928" gradientUnits="userSpaceOnUse">
<stop stop-color="#CBC7BC"/>
<stop offset="1" stop-color="#EEE8DE"/>
</linearGradient>
<linearGradient id="paint57_linear_9_140" x1="43.6819" y1="54.2975" x2="68.8182" y2="54.2975" gradientUnits="userSpaceOnUse">
<stop stop-color="#D7D3C8"/>
<stop offset="1" stop-color="#F2ECE2"/>
</linearGradient>
<linearGradient id="paint58_linear_9_140" x1="43.6843" y1="50.2596" x2="68.8182" y2="50.2596" gradientUnits="userSpaceOnUse">
<stop stop-color="#EEE8DE"/>
<stop offset="0.4729" stop-color="#F4F1E8"/>
<stop offset="1" stop-color="#F8F6EE"/>
</linearGradient>
<linearGradient id="paint59_linear_9_140" x1="42.7468" y1="73.9668" x2="68.907" y2="73.9668" gradientUnits="userSpaceOnUse">
<stop stop-color="#EEE8DE"/>
<stop offset="0.4729" stop-color="#F4F1E8"/>
<stop offset="1" stop-color="#F8F6EE"/>
</linearGradient>
<linearGradient id="paint60_linear_9_140" x1="49.4622" y1="46.8761" x2="63.0375" y2="46.8761" gradientUnits="userSpaceOnUse">
<stop stop-color="#CBC7BC"/>
<stop offset="1" stop-color="#EEE8DE"/>
</linearGradient>
<linearGradient id="paint61_linear_9_140" x1="48.1108" y1="44.6913" x2="64.4038" y2="44.6913" gradientUnits="userSpaceOnUse">
<stop stop-color="#D7D3C8"/>
<stop offset="1" stop-color="#F2ECE2"/>
</linearGradient>
<linearGradient id="paint62_linear_9_140" x1="48.1147" y1="41.6243" x2="64.4036" y2="41.6243" gradientUnits="userSpaceOnUse">
<stop stop-color="#EEE8DE"/>
<stop offset="0.4729" stop-color="#F4F1E8"/>
<stop offset="1" stop-color="#F8F6EE"/>
</linearGradient>
<linearGradient id="paint63_linear_9_140" x1="45.63" y1="38.5826" x2="66.9457" y2="38.5826" gradientUnits="userSpaceOnUse">
<stop stop-color="#CBC7BC"/>
<stop offset="1" stop-color="#EEE8DE"/>
</linearGradient>
<linearGradient id="paint64_linear_9_140" x1="45.4227" y1="32.7529" x2="67.1636" y2="32.7529" gradientUnits="userSpaceOnUse">
<stop stop-color="#D7D3C8"/>
<stop offset="1" stop-color="#F2ECE2"/>
</linearGradient>
<linearGradient id="paint65_linear_9_140" x1="45.4263" y1="28.9804" x2="67.1636" y2="28.9804" gradientUnits="userSpaceOnUse">
<stop stop-color="#EEE8DE"/>
<stop offset="0.4729" stop-color="#F4F1E8"/>
<stop offset="1" stop-color="#F8F6EE"/>
</linearGradient>
<linearGradient id="paint66_linear_9_140" x1="49.2651" y1="28.4421" x2="63.3306" y2="28.4421" gradientUnits="userSpaceOnUse">
<stop stop-color="#D7D3C8"/>
<stop offset="1" stop-color="#F2ECE2"/>
</linearGradient>
<linearGradient id="paint67_linear_9_140" x1="50.1617" y1="25.5591" x2="62.4479" y2="25.5591" gradientUnits="userSpaceOnUse">
<stop stop-color="#EEE8DE"/>
<stop offset="0.4729" stop-color="#F4F1E8"/>
<stop offset="1" stop-color="#F8F6EE"/>
</linearGradient>
<radialGradient id="paint68_radial_9_140" cx="0" cy="0" r="1" gradientUnits="userSpaceOnUse" gradientTransform="translate(58.0676 19.5525) scale(7.51728 7.51728)">
<stop stop-color="#F8F6EE"/>
<stop offset="0.4487" stop-color="#F6F3EB"/>
<stop offset="0.8353" stop-color="#EEEAE0"/>
<stop offset="1" stop-color="#E9E4D9"/>
</radialGradient>
</defs>
</svg>
