<svg width="224" height="190" viewBox="0 0 224 190" fill="none" xmlns="http://www.w3.org/2000/svg">
<path opacity="0.5" d="M101.918 108.699L72.6332 125.717C72.7873 125.795 72.9603 125.864 73.1025 125.945C76.3975 127.846 76.4023 130.939 73.1286 132.84C71.8746 133.568 70.3077 134.011 68.6626 134.184L68.3189 134.21C67.8993 134.246 67.4963 134.253 67.1241 134.436L80.2306 142.054L61.3567 153.023C61.4421 153.056 61.544 153.065 61.627 153.101C62.0465 153.272 62.4282 153.459 62.7766 153.66C66.0788 155.566 66.1001 158.66 62.8075 160.573C61.5535 161.301 59.9866 161.744 58.3414 161.917L57.9977 161.943C57.5781 161.978 57.1752 161.986 56.803 162.168L69.9095 169.787L63.7817 173.347H73.5245V188.49H37.7252L35.1272 190L0.133934 169.796L34.9162 149.583L39.4367 152.193C41.3568 150.32 40.9349 147.865 38.1401 146.25C37.4337 145.843 36.5755 145.487 35.5705 145.212C33.4726 144.641 31.0333 144.615 28.926 145.176C25.759 146.008 24.0617 147.604 23.8152 149.258C23.7867 149.448 23.3814 149.526 23.1586 149.396L10.4574 142.064L45.2397 121.851L58.2869 129.382C58.6591 129.199 58.7041 129 58.7776 128.784L58.8653 128.524C59.1877 127.471 60.1336 126.487 61.6388 125.717L54.4704 121.578C54.231 121.438 54.378 121.213 54.7075 121.196C56.592 121.092 58.4458 120.625 59.8918 119.784C63.1725 117.878 63.1465 114.789 59.8443 112.883C59.1379 112.475 58.2798 112.12 57.2747 111.845C55.1768 111.274 52.7234 111.255 50.6302 111.809C47.4632 112.641 45.766 114.237 45.5194 115.891C45.491 116.081 45.0856 116.159 44.8628 116.029L32.1617 108.697L66.9298 88.4931L79.9746 96.0242C80.3634 95.8345 80.406 95.6354 80.4795 95.4173L80.5672 95.1566C80.9347 93.9168 82.1554 92.7387 84.2012 91.9327C87.0529 90.8328 90.8386 90.8589 93.6429 92.0109C94.0696 92.184 94.4583 92.3736 94.8115 92.5775C98.1065 94.4786 98.1113 97.5721 94.8376 99.4732C93.5836 100.201 92.0001 100.651 90.3716 100.817L90.0279 100.843C89.6083 100.879 89.2053 100.886 88.8308 101.069L101.918 108.699ZM149.601 123.785L114.833 143.989L127.534 151.321C127.759 151.451 128.162 151.373 128.19 151.181C128.435 149.526 130.132 147.931 133.299 147.099C135.39 146.544 137.845 146.561 139.943 147.134C140.946 147.409 141.802 147.763 142.506 148.17C145.813 150.079 145.829 153.174 142.546 155.083C141.114 155.915 139.261 156.382 137.376 156.486C137.047 156.503 136.897 156.728 137.139 156.868L149.824 164.193L184.592 143.989L149.601 123.785Z" fill="#5D6C00"/>
<path d="M89.8193 138.849L84.2581 142.059L96.3689 149.128L101.928 145.918L89.8193 138.849Z" fill="#A03030"/>
<path d="M84.2581 142.059L61.4136 181.423L73.5221 188.49L96.3689 149.128L84.2581 142.059Z" fill="#DDFF00"/>
<path d="M96.3689 149.128L73.5221 188.49L79.0809 185.28L101.928 145.918L96.3689 149.128Z" fill="#728302"/>
<path d="M124.097 131.368C122.843 132.096 121.276 132.539 119.631 132.712L119.287 132.738C118.867 132.774 118.464 132.781 118.09 132.963L118.083 135.839C118.455 135.656 118.86 135.647 119.277 135.614L119.621 135.588C121.266 135.415 122.836 134.971 124.087 134.244C125.723 133.293 126.541 132.051 126.545 130.806L126.552 127.931C126.55 129.175 125.732 130.418 124.097 131.368Z" fill="#EEE8DE"/>
<path d="M96.414 160.795L96.4069 163.671L131.189 143.457L131.196 140.582L96.414 160.795Z" fill="#EEE8DE"/>
<path d="M61.4207 140.592L61.4136 143.465L96.4069 163.671L96.414 160.795L61.4207 140.592Z" fill="#CBC7BC"/>
<path d="M118.09 132.963C118.462 132.781 118.867 132.774 119.287 132.738L119.631 132.712C121.276 132.539 122.845 132.096 124.097 131.368C127.389 129.455 127.368 126.362 124.066 124.456C123.72 124.254 123.336 124.069 122.919 123.896C120.1 122.751 116.312 122.725 113.46 123.827C111.414 124.633 110.21 125.804 109.826 127.051L109.739 127.312C109.665 127.528 109.62 127.727 109.248 127.909L96.203 120.378L61.4207 140.592L96.414 160.795L131.196 140.582L118.09 132.963Z" fill="#F7F5ED"/>
<path d="M122.919 123.896C120.1 122.751 116.312 122.725 113.46 123.828C111.414 124.634 110.21 125.805 109.826 127.052L109.739 127.312C109.665 127.528 109.62 127.727 109.248 127.91L101.816 123.619C101.586 124.643 100.83 125.634 99.4743 126.421C98.0283 127.263 96.1746 127.73 94.29 127.834C93.9606 127.85 93.8136 128.076 94.053 128.215L106.74 135.54L124.855 125.013C124.609 124.823 124.367 124.631 124.068 124.458C123.72 124.254 123.336 124.069 122.919 123.896Z" fill="#CBC7BC"/>
<path d="M134.42 99.485C133.166 100.213 131.599 100.656 129.954 100.829L129.61 100.855C129.191 100.891 128.788 100.898 128.413 101.08L128.406 103.956C128.778 103.773 129.184 103.764 129.601 103.731L129.945 103.704C131.59 103.531 133.159 103.088 134.411 102.36C136.042 101.412 136.857 100.172 136.862 98.9279L136.869 96.0525C136.867 97.297 136.049 98.5391 134.42 99.485Z" fill="#EEE8DE"/>
<path d="M84.443 116.041L71.7419 108.709L71.7324 111.584L84.4335 118.916C84.6587 119.046 85.0617 118.968 85.0901 118.776L85.0972 115.901C85.0735 116.093 84.6682 116.171 84.443 116.041Z" fill="#CBC7BC"/>
<path d="M99.4269 112.893C98.7205 112.485 97.8624 112.132 96.8573 111.854C94.7594 111.283 92.3201 111.257 90.2128 111.819C87.0458 112.651 85.3485 114.246 85.102 115.901L85.0948 118.776C85.339 117.122 87.0363 115.526 90.2057 114.694C92.313 114.13 94.7522 114.156 96.8501 114.73C97.8576 115.007 98.7133 115.36 99.4198 115.768C101.084 116.728 101.916 117.989 101.911 119.248L101.921 116.372C101.923 115.116 101.091 113.855 99.4269 112.893Z" fill="#CBC7BC"/>
<path d="M106.738 128.912L106.73 131.788L141.51 111.574L141.52 108.699L106.738 128.912Z" fill="#EEE8DE"/>
<path d="M94.053 121.59C93.97 121.542 93.9344 121.485 93.9344 121.429L93.9274 124.304C93.9274 124.358 93.9653 124.418 94.0458 124.465L106.73 131.79L106.737 128.915L94.053 121.59Z" fill="#CBC7BC"/>
<path d="M128.413 101.08C128.785 100.898 129.191 100.891 129.61 100.855L129.954 100.829C131.599 100.656 133.169 100.213 134.42 99.485C137.694 97.5815 137.689 94.4903 134.394 92.5892C134.043 92.3853 133.652 92.1957 133.225 92.0227C130.421 90.8706 126.635 90.8445 123.781 91.9444C121.736 92.7504 120.531 93.9214 120.147 95.1683L120.06 95.4291C119.986 95.6448 119.941 95.8439 119.569 96.0264L106.524 88.4954L71.7419 108.709L84.443 116.041C84.6682 116.171 85.0711 116.093 85.0996 115.901C85.3438 114.246 87.041 112.651 90.2104 111.819C92.3178 111.254 94.757 111.281 96.8549 111.854C97.8623 112.132 98.7181 112.485 99.4245 112.893C102.727 114.798 102.753 117.887 99.4719 119.793C98.0259 120.635 96.1722 121.102 94.2877 121.206C93.9582 121.222 93.8112 121.448 94.0506 121.587L106.737 128.912L141.52 108.699L128.413 101.08Z" fill="#F7F5ED"/>
<path d="M145.881 53.7344C144.628 54.4621 143.044 54.9125 141.415 55.0784L141.072 55.1045C140.652 55.1401 140.249 55.1472 139.875 55.3297L139.868 58.2051C140.24 58.0226 140.645 58.0155 141.062 57.9799L141.406 57.9538C143.037 57.7903 144.62 57.3375 145.872 56.6098C147.503 55.6616 148.318 54.4218 148.323 53.1773L148.33 50.3019C148.328 51.5464 147.512 52.7885 145.881 53.7344Z" fill="#EEE8DE"/>
<path d="M95.9067 70.2899L83.2056 62.9579L83.1985 65.8334L95.8996 73.1653C96.1248 73.2957 96.5278 73.2175 96.5562 73.0278L96.5633 70.1524C96.5349 70.3421 96.1319 70.4203 95.9067 70.2899Z" fill="#CBC7BC"/>
<path d="M110.888 67.142C110.182 66.7343 109.324 66.3787 108.319 66.1038C106.221 65.5325 103.767 65.5135 101.674 66.0706C98.5071 66.9026 96.8099 68.498 96.5633 70.1526L96.5562 73.028C96.8004 71.3734 98.4977 69.778 101.667 68.946C103.758 68.3913 106.214 68.4079 108.312 68.9815C109.319 69.2589 110.175 69.6121 110.881 70.0198C112.545 70.9799 113.377 72.241 113.372 73.4997L113.38 70.6243C113.384 69.3632 112.552 68.1021 110.888 67.142Z" fill="#CBC7BC"/>
<path d="M118.199 83.1617L118.192 86.0348L152.96 65.831L152.967 62.9556L118.199 83.1617Z" fill="#EEE8DE"/>
<path d="M105.514 75.8368C105.431 75.7894 105.396 75.7325 105.396 75.6756L105.389 78.551C105.389 78.6079 105.424 78.6648 105.507 78.7122L118.192 86.0371L118.199 83.1617L105.514 75.8368Z" fill="#CBC7BC"/>
<path d="M139.875 55.3298C140.249 55.1473 140.652 55.1402 141.072 55.1046L141.415 55.0785C143.046 54.915 144.63 54.4622 145.881 53.7345C149.155 51.831 149.15 48.7398 145.855 46.8387C145.505 46.6348 145.113 46.4452 144.687 46.2722C141.882 45.1201 138.097 45.094 135.245 46.1939C133.199 46.9999 131.979 48.178 131.611 49.4178L131.523 49.6786C131.45 49.8943 131.407 50.0934 131.018 50.2854L117.974 42.7543L83.2056 62.9581L95.9067 70.29C96.1319 70.4204 96.5349 70.3422 96.5633 70.1502C96.8075 68.4955 98.5047 66.9002 101.674 66.0682C103.765 65.5135 106.221 65.5301 108.319 66.1013C109.326 66.3787 110.182 66.7319 110.888 67.1396C114.19 69.0455 114.216 72.1343 110.936 74.0401C109.49 74.8817 107.636 75.3487 105.751 75.453C105.422 75.4696 105.275 75.6948 105.514 75.8346L118.201 83.1594L152.969 62.9557L139.875 55.3298Z" fill="#F7F5ED"/>
<path d="M166.806 61.55L154.105 54.2181L154.098 57.0935L166.799 64.4255C167.024 64.5558 167.427 64.4776 167.455 64.288L167.463 61.4126C167.434 61.6022 167.031 61.6804 166.806 61.55Z" fill="#CBC7BC"/>
<path d="M181.78 58.3996C181.076 57.9919 180.221 57.641 179.218 57.3637C177.12 56.7924 174.666 56.7734 172.573 57.3281C169.406 58.1602 167.709 59.7555 167.463 61.4101L167.455 64.2855C167.7 62.6309 169.397 61.0356 172.564 60.2035C174.655 59.6488 177.11 59.6654 179.208 60.2391C180.211 60.5141 181.067 60.8673 181.771 61.275C183.435 62.235 184.265 63.4961 184.262 64.7573L184.269 61.8818C184.274 60.6207 183.444 59.3596 181.78 58.3996Z" fill="#CBC7BC"/>
<path d="M176.414 67.097C176.331 67.0496 176.295 66.9927 176.295 66.9358L176.288 69.8112C176.288 69.8658 176.326 69.925 176.406 69.9724L189.091 77.2973L189.098 74.4219L176.414 67.097Z" fill="#CBC7BC"/>
<path d="M189.098 74.4218L189.091 77.2973L223.859 57.0911L223.866 54.2181L189.098 74.4218Z" fill="#EEE8DE"/>
<path d="M188.873 34.0119L154.105 54.2156L166.806 61.5476C167.031 61.678 167.434 61.5997 167.463 61.4101C167.709 59.7555 169.404 58.1601 172.573 57.3281C174.664 56.7734 177.12 56.79 179.218 57.3637C180.221 57.6386 181.076 57.9918 181.78 58.3996C185.087 60.3078 185.104 63.4037 181.821 65.3119C180.389 66.144 178.535 66.6133 176.651 66.7153C176.321 66.7319 176.174 66.9571 176.414 67.0969L189.098 74.4217L223.866 54.218L188.873 34.0119Z" fill="#F7F5ED"/>
<path d="M212.45 27.8606L196.226 55.9012L201.785 52.6915L218.009 24.6509L212.45 27.8606Z" fill="#91A700"/>
<path d="M220.474 0L216.804 16.3849L220.147 32.426L222.937 33.8459L223.264 1.41992L220.474 0Z" fill="url(#paint0_linear_9_262)"/>
<path d="M220.474 0L193.216 17.3331L200.107 21.1946L184.115 48.8346L196.226 55.901L212.341 28.0501L220.147 32.426L220.474 0Z" fill="#DDFF00"/>
<path d="M123.784 91.9445C121.738 92.7505 120.534 93.9215 120.15 95.1684L120.062 95.4291C119.989 95.6448 119.944 95.844 119.571 96.0265L106.527 88.4954L103.312 90.3634C105.443 92.255 105.097 94.8057 102.243 96.465C100.797 97.3066 98.9433 97.7735 97.0588 97.8778C96.7293 97.8944 96.5823 98.1196 96.8217 98.2595L109.506 105.584L132.967 91.9516C130.189 90.892 126.552 90.8754 123.784 91.9445Z" fill="#CBC7BC"/>
<defs>
<linearGradient id="paint0_linear_9_262" x1="217.79" y1="48.2645" x2="222.029" y2="1.10157" gradientUnits="userSpaceOnUse">
<stop stop-color="#B4D000"/>
<stop offset="1" stop-color="#C7E601"/>
</linearGradient>
</defs>
</svg>
