<svg width="102" height="150" viewBox="0 0 102 150" fill="none" xmlns="http://www.w3.org/2000/svg">
<path opacity="0.5" d="M77.9411 109.622H58.3782C26.662 109.622 -13.7708 149.988 4.96104 149.988C23.6929 149.988 64.5201 149.988 64.5201 149.988L77.3172 135.172L77.9411 109.622Z" fill="#899E00"/>
<path d="M65.6444 143.359C84.6283 143.359 100.018 134.473 100.018 123.513C100.018 112.553 84.6283 103.667 65.6444 103.667C46.6606 103.667 31.2711 112.553 31.2711 123.513C31.2711 134.473 46.6606 143.359 65.6444 143.359Z" fill="#F7F5ED"/>
<path d="M101.998 118.606V128.817C102.084 134.254 98.5354 139.704 91.3504 143.852C77.1523 152.049 54.1328 152.049 39.9347 143.852C32.9204 139.802 29.3721 134.51 29.2873 129.203V118.991C29.3721 124.298 32.9204 129.59 39.9347 133.64C54.1328 141.838 77.1523 141.838 91.3504 133.64C98.5354 129.494 102.085 124.042 101.998 118.606Z" fill="url(#paint0_linear_9_494)"/>
<path d="M65.6441 139.789C85.7229 139.789 102 130.392 102 118.799C102 107.207 85.7229 97.8093 65.6441 97.8093C45.5653 97.8093 29.2883 107.207 29.2883 118.799C29.2883 130.392 45.5653 139.789 65.6441 139.789Z" fill="#DDFF00"/>
<path d="M100.015 107.633V117.288C100.097 122.428 96.7413 127.582 89.9495 131.503C76.5261 139.253 54.7615 139.253 41.3381 131.503C34.7064 127.675 31.3512 122.671 31.2723 117.654V107.999C31.3523 113.016 34.7076 118.02 41.3381 121.848C54.7615 129.598 76.5261 129.598 89.9495 121.848C96.7425 117.927 100.098 112.771 100.015 107.633Z" fill="#99B100"/>
<path d="M65.6444 127.661C84.6283 127.661 100.018 118.775 100.018 107.815C100.018 96.8547 84.6283 87.9695 65.6444 87.9695C46.6606 87.9695 31.2711 96.8547 31.2711 107.815C31.2711 118.775 46.6606 127.661 65.6444 127.661Z" fill="#F7F5ED"/>
<path d="M101.998 102.908V113.12C102.084 118.555 98.5354 124.007 91.3504 128.155C77.1523 136.352 54.1328 136.352 39.9347 128.155C32.9204 124.105 29.3721 118.813 29.2873 113.506V103.294C29.3721 108.601 32.9204 113.893 39.9347 117.943C54.1328 126.141 77.1523 126.141 91.3504 117.943C98.5354 113.795 102.085 108.345 101.998 102.908Z" fill="url(#paint1_linear_9_494)"/>
<path d="M65.6441 124.091C85.7229 124.091 102 114.693 102 103.101C102 91.5086 85.7229 82.1111 65.6441 82.1111C45.5653 82.1111 29.2883 91.5086 29.2883 103.101C29.2883 114.693 45.5653 124.091 65.6441 124.091Z" fill="#DDFF00"/>
<path d="M100.015 91.9346V101.59C100.097 106.73 96.7413 111.884 89.9495 115.805C76.5261 123.555 54.7615 123.555 41.3381 115.805C34.7064 111.977 31.3512 106.973 31.2723 101.956V92.3008C31.3523 97.3184 34.7076 102.322 41.3381 106.15C54.7615 113.9 76.5261 113.9 89.9495 106.15C96.7425 102.229 100.098 97.0747 100.015 91.9346Z" fill="#99B100"/>
<path d="M65.6444 111.964C84.6283 111.964 100.018 103.079 100.018 92.1182C100.018 81.1578 84.6283 72.2726 65.6444 72.2726C46.6606 72.2726 31.2711 81.1578 31.2711 92.1182C31.2711 103.079 46.6606 111.964 65.6444 111.964Z" fill="#F7F5ED"/>
<path d="M101.998 87.2115V97.4233C102.084 102.859 98.5354 108.311 91.3504 112.458C77.1523 120.656 54.1328 120.656 39.9347 112.458C32.9204 108.409 29.3721 103.117 29.2873 97.8095V87.5976C29.3721 92.9049 32.9204 98.1968 39.9347 102.247C54.1328 110.444 77.1523 110.444 91.3504 102.247C98.5354 98.0991 102.085 92.647 101.998 87.2115Z" fill="url(#paint2_linear_9_494)"/>
<path d="M65.6441 108.394C85.7229 108.394 102 98.9967 102 87.4044C102 75.812 85.7229 66.4145 65.6441 66.4145C45.5653 66.4145 29.2883 75.812 29.2883 87.4044C29.2883 98.9967 45.5653 108.394 65.6441 108.394Z" fill="#F7F5ED"/>
<path d="M84.6128 76.3543C74.1361 70.3054 57.1502 70.3054 46.6735 76.3543C36.1968 82.4032 36.1968 92.21 46.6735 98.2578C57.1502 104.307 74.1361 104.307 84.6128 98.2578C95.0895 92.21 95.0895 82.4032 84.6128 76.3543Z" fill="#99B100"/>
<path d="M65.6444 102.619C78.887 102.619 89.6222 96.4205 89.6222 88.7748C89.6222 81.1291 78.887 74.931 65.6444 74.931C52.4018 74.931 41.6666 81.1291 41.6666 88.7748C41.6666 96.4205 52.4018 102.619 65.6444 102.619Z" fill="#DDFF00"/>
<path d="M80.5843 81.6167C72.3327 76.8522 58.9551 76.8522 50.7035 81.6167C42.4519 86.3812 42.4519 94.1042 50.7035 98.8687C58.9551 103.633 72.3338 103.633 80.5843 98.8687C88.8359 94.1042 88.8359 86.38 80.5843 81.6167Z" fill="#C4E200"/>
<path d="M78.5698 84.2481C71.4307 80.1264 59.8568 80.1264 52.7177 84.2481C45.5786 88.3698 45.5786 95.0521 52.7177 99.1737C59.8568 103.295 71.4307 103.295 78.5698 99.1737C85.7089 95.0521 85.7089 88.3698 78.5698 84.2481Z" fill="#AEC800"/>
<path d="M76.5554 86.8792C70.5289 83.4004 60.7586 83.4004 54.732 86.8792C48.7055 90.3581 48.7055 95.9997 54.732 99.4786C60.7586 102.957 70.5289 102.957 76.5554 99.4786C82.582 95.9997 82.582 90.3581 76.5554 86.8792Z" fill="#94AB00"/>
<path d="M74.5411 89.5104C69.6271 86.6731 61.6604 86.6731 56.7464 89.5104C51.8324 92.3477 51.8324 96.9473 56.7464 99.7846C61.6604 102.622 69.6271 102.622 74.5411 99.7846C79.4551 96.9462 79.4551 92.3465 74.5411 89.5104Z" fill="#8EA400"/>
<path d="M72.5268 92.1405C68.7254 89.946 62.5623 89.946 58.7608 92.1405C54.9593 94.3349 54.9593 97.8939 58.7608 100.088C62.5623 102.283 68.7254 102.283 72.5268 100.088C76.3283 97.8939 76.3283 94.3361 72.5268 92.1405Z" fill="#778A00"/>
<path d="M88.4673 66.6005C75.862 59.3225 55.4255 59.3225 42.8214 66.6005C30.2174 73.8785 30.2162 85.6772 42.8214 92.9541C55.4267 100.231 75.862 100.232 88.4673 92.9541C101.071 85.6761 101.071 73.8773 88.4673 66.6005ZM88.1011 92.7422C75.6984 99.9024 55.5903 99.9024 43.1876 92.7422C30.7848 85.5819 30.7848 73.9715 43.1876 66.8112C55.5903 59.6509 75.6984 59.6509 88.1011 66.8112C100.504 73.9726 100.504 85.5819 88.1011 92.7422Z" fill="#DDFF00"/>
<path opacity="0.6" d="M88.4673 47.9652C75.8621 40.6884 55.4255 40.6884 42.8215 47.9652C30.2162 55.2432 30.2162 67.042 42.8215 74.3188C55.4267 81.5968 75.8621 81.5968 88.4673 74.3188C101.071 67.042 101.071 55.2432 88.4673 47.9652ZM88.1012 74.1081C75.6984 81.2683 55.5903 81.2683 43.1876 74.1081C30.7849 66.9478 30.7849 55.3374 43.1876 48.1771C55.5903 41.0168 75.6984 41.0168 88.1012 48.1771C100.504 55.3374 100.504 66.9466 88.1012 74.1081Z" fill="#DDFF00"/>
<path opacity="0.2" d="M88.4673 29.331C75.8621 22.053 55.4255 22.053 42.8215 29.331C30.2162 36.6078 30.2162 48.4078 42.8215 55.6846C55.4267 62.9614 75.8621 62.9614 88.4673 55.6846C101.071 48.4066 101.071 36.6078 88.4673 29.331ZM88.1012 55.4727C75.6984 62.6329 55.5903 62.6329 43.1876 55.4727C30.7849 48.3124 30.7849 36.702 43.1876 29.5417C55.5903 22.3815 75.6984 22.3815 88.1012 29.5417C100.504 36.702 100.504 48.3124 88.1012 55.4727Z" fill="#DDFF00"/>
<path d="M60.914 27.8064V29.7231C60.914 29.749 60.9093 29.769 60.8999 29.7843C60.8905 29.7996 60.874 29.8137 60.8504 29.8267L60.5761 29.9844C60.5314 30.0103 60.509 30.0009 60.509 29.9562V28.4021L60.1959 28.7612C60.1511 28.806 60.1288 28.806 60.1288 28.7612V28.4999C60.1288 28.4634 60.1453 28.4269 60.177 28.3892L60.4678 28.0395C60.5173 27.9819 60.5585 27.943 60.5926 27.923L60.8481 27.7758C60.8905 27.7523 60.914 27.7617 60.914 27.8064ZM69.3258 55.5657L69.0703 55.7129C69.0361 55.7329 68.9949 55.7718 68.9455 55.8294L68.6559 56.1791C68.6241 56.2168 68.6076 56.2533 68.6076 56.2897V56.5511C68.6076 56.5958 68.63 56.5958 68.6747 56.5511L68.9879 56.192V57.7461C68.9879 57.7908 69.0102 57.8002 69.055 57.7743L69.3293 57.6154C69.3528 57.6013 69.3693 57.5871 69.3787 57.573C69.3881 57.5577 69.3929 57.5377 69.3929 57.5118V55.594C69.3917 55.5492 69.3693 55.5398 69.3258 55.5657ZM57.4657 36.1805L57.2103 36.3277C57.1761 36.3477 57.1349 36.3865 57.0855 36.4442L56.7947 36.7939C56.7629 36.8315 56.7464 36.868 56.7464 36.9045V37.1659C56.7464 37.2106 56.7688 37.2106 56.8135 37.1659L57.1267 36.8068V38.3608C57.1267 38.4056 57.1491 38.415 57.1938 38.3891L57.4681 38.2313C57.4916 38.2184 57.5081 38.2031 57.5175 38.1889C57.527 38.1736 57.5317 38.1536 57.5317 38.1277V36.2099C57.5329 36.164 57.5105 36.1546 57.4657 36.1805ZM62.5775 50.5458L62.3221 50.6929C62.2879 50.7129 62.2467 50.7518 62.1973 50.8095L61.9065 51.1591C61.8747 51.1968 61.8582 51.2333 61.8582 51.2698V51.5312C61.8582 51.5759 61.8806 51.5759 61.9253 51.5312L62.2385 51.1721V52.7261C62.2385 52.7708 62.2608 52.7803 62.3056 52.7544L62.5799 52.5966C62.6034 52.5825 62.6199 52.5684 62.6293 52.5542C62.6388 52.5389 62.6435 52.5189 62.6435 52.493V50.5752C62.6446 50.5293 62.6223 50.5199 62.5775 50.5458ZM64.845 84.4576L64.5895 84.6047C64.5554 84.6247 64.5142 84.6636 64.4647 84.7213L64.1739 85.0709C64.1422 85.1086 64.1257 85.1451 64.1257 85.1816V85.4429C64.1257 85.4877 64.148 85.4877 64.1928 85.4429L64.5059 85.0839V86.6379C64.5059 86.6826 64.5283 86.6921 64.573 86.6662L64.8473 86.5072C64.8709 86.4943 64.8874 86.479 64.8968 86.4649C64.9062 86.4495 64.9109 86.4295 64.9109 86.4036V84.4858C64.9121 84.4411 64.8897 84.4317 64.845 84.4576ZM56.8041 97.0451L56.5486 97.1923C56.5145 97.2123 56.4733 97.2512 56.4238 97.3089L56.1331 97.6585C56.1013 97.6962 56.0848 97.7327 56.0848 97.7692V98.0305C56.0848 98.0753 56.1072 98.0753 56.1519 98.0305L56.4651 97.6715V99.2255C56.4651 99.2702 56.4874 99.2796 56.5322 99.2537L56.8065 99.096C56.83 99.0818 56.8465 99.0677 56.8559 99.0536C56.8653 99.0383 56.87 99.0183 56.87 98.9924V97.0746C56.8712 97.0287 56.8488 97.0192 56.8041 97.0451ZM73.2885 32.9135L73.033 33.0607C72.9989 33.0807 72.9577 33.1195 72.9082 33.1772L72.6175 33.5269C72.5857 33.5646 72.5692 33.601 72.5692 33.6375V33.8989C72.5692 33.9436 72.5916 33.9436 72.6363 33.8989L72.9494 33.5398V35.0939C72.9494 35.1386 72.9718 35.148 73.0166 35.1221L73.2909 34.9644C73.3144 34.9502 73.3309 34.9361 73.3403 34.9208C73.3497 34.9055 73.3544 34.8855 73.3544 34.8596V32.9418C73.3556 32.897 73.3332 32.8876 73.2885 32.9135ZM74.0267 95.51L73.7712 95.6571C73.737 95.6771 73.6959 95.716 73.6464 95.7737L73.3568 96.1233C73.325 96.161 73.3085 96.1975 73.3085 96.234V96.4953C73.3085 96.5401 73.3309 96.5401 73.3756 96.4953L73.6888 96.1363V97.6903C73.6888 97.735 73.7112 97.7444 73.7559 97.7185L74.0302 97.5608C74.0537 97.5467 74.0702 97.5325 74.0796 97.5184C74.0891 97.5031 74.0938 97.4831 74.0938 97.4572V95.5394C74.0938 95.4935 74.0714 95.4841 74.0267 95.51ZM81.6967 70.0958L81.4412 70.243C81.4071 70.263 81.3659 70.3018 81.3164 70.3595L81.0256 70.7092C80.9939 70.7469 80.9774 70.7834 80.9774 70.8199V71.0812C80.9774 71.126 80.9997 71.126 81.0445 71.0812L81.3576 70.7221V72.2762C81.3576 72.3209 81.38 72.3303 81.4247 72.3044L81.6991 72.1455C81.7226 72.1313 81.7391 72.1172 81.7485 72.1031C81.7579 72.0878 81.7626 72.0678 81.7626 72.0419V70.1252C81.7638 70.0793 81.7414 70.0699 81.6967 70.0958ZM33.5385 48.0676L33.2831 48.2147C33.2489 48.2347 33.2077 48.2736 33.1583 48.3313L32.8675 48.6809C32.8357 48.7186 32.8192 48.7551 32.8192 48.7916V49.053C32.8192 49.0977 32.8416 49.0977 32.8863 49.053L33.1995 48.6939V50.2479C33.1995 50.2927 33.2218 50.3021 33.2666 50.2762L33.5409 50.1172C33.5644 50.1043 33.5809 50.089 33.5903 50.0749C33.5998 50.0607 33.6045 50.0395 33.6045 50.0136V48.0958C33.6056 48.0511 33.5833 48.0417 33.5385 48.0676ZM85.0108 88.7559L84.7553 88.903C84.7212 88.923 84.6799 88.9619 84.6305 89.0196L84.3397 89.3692C84.3079 89.4069 84.2914 89.4434 84.2914 89.4799V89.7412C84.2914 89.786 84.3138 89.786 84.3586 89.7412L84.6717 89.3822V90.9362C84.6717 90.9809 84.6941 90.9903 84.7388 90.9644L85.0131 90.8055C85.0367 90.7926 85.0532 90.7773 85.0626 90.7631C85.072 90.7478 85.0767 90.7278 85.0767 90.7019V88.7841C85.0779 88.7394 85.0555 88.7299 85.0108 88.7559ZM77.4302 85.8527L77.1747 85.9998C77.1406 86.0198 77.0994 86.0587 77.0499 86.1164L76.7592 86.466C76.7274 86.5037 76.7109 86.5402 76.7109 86.5767V86.8381C76.7109 86.8828 76.7332 86.8828 76.778 86.8381L77.0911 86.479V88.033C77.0911 88.0777 77.1135 88.0871 77.1582 88.0612L77.4326 87.9023C77.4561 87.8894 77.4726 87.8741 77.482 87.8599C77.4914 87.8446 77.4961 87.8246 77.4961 87.7987V85.8821C77.4973 85.8362 77.4749 85.8268 77.4302 85.8527ZM78.6004 75.5667L78.345 75.7138C78.3108 75.7339 78.2696 75.7727 78.2202 75.8304L77.9294 76.18C77.8976 76.2177 77.8811 76.2542 77.8811 76.2907V76.5521C77.8811 76.5968 77.9035 76.5968 77.9482 76.5521L78.2614 76.193V77.747C78.2614 77.7918 78.2837 77.8012 78.3285 77.7753L78.6028 77.6163C78.6263 77.6022 78.6428 77.5881 78.6522 77.574C78.6617 77.5587 78.6664 77.5386 78.6664 77.5127V75.5949C78.6675 75.5502 78.6452 75.5408 78.6004 75.5667ZM46.8831 33.6352L46.6276 33.7824C46.5935 33.8024 46.5523 33.8412 46.5028 33.8989L46.212 34.2486C46.1803 34.2862 46.1638 34.3227 46.1638 34.3592V34.6206C46.1638 34.6653 46.1861 34.6653 46.2309 34.6206L46.544 34.2615V35.8155C46.544 35.8603 46.5664 35.8697 46.6111 35.8438L46.8855 35.686C46.909 35.6719 46.9255 35.6578 46.9349 35.6436C46.9443 35.6283 46.949 35.6083 46.949 35.5824V33.6646C46.9502 33.6199 46.9278 33.6093 46.8831 33.6352ZM81.0657 100.174L80.8102 100.322C80.7761 100.342 80.7349 100.38 80.6854 100.438L80.3958 100.788C80.364 100.825 80.3475 100.862 80.3475 100.898V101.16C80.3475 101.204 80.3699 101.204 80.4146 101.16L80.7278 100.801V102.355C80.7278 102.399 80.7502 102.409 80.7949 102.383L81.0692 102.225C81.0928 102.211 81.1092 102.197 81.1187 102.183C81.1281 102.168 81.1328 102.148 81.1328 102.122V100.204C81.1328 100.158 81.1104 100.148 81.0657 100.174ZM47.5883 27.0459L47.3328 27.1931C47.2987 27.2131 47.2575 27.2519 47.208 27.3096L46.9172 27.6593C46.8855 27.697 46.869 27.7334 46.869 27.7699V28.0313C46.869 28.076 46.8913 28.076 46.9361 28.0313L47.2492 27.6722V29.2263C47.2492 29.271 47.2716 29.2804 47.3163 29.2545L47.5906 29.0967C47.6142 29.0838 47.6307 29.0685 47.6401 29.0544C47.6495 29.0391 47.6542 29.019 47.6542 28.9931V27.0765C47.6554 27.0306 47.633 27.02 47.5883 27.0459ZM65.9799 67.4387L65.7244 67.5858C65.6903 67.6059 65.6491 67.6447 65.5996 67.7024L65.31 68.0521C65.2782 68.0897 65.2618 68.1262 65.2618 68.1627V68.4241C65.2618 68.4688 65.2841 68.4688 65.3289 68.4241L65.642 68.065V69.619C65.642 69.6638 65.6644 69.6732 65.7091 69.6473L65.9834 69.4895C66.007 69.4754 66.0235 69.4613 66.0329 69.4471C66.0423 69.4318 66.047 69.4118 66.047 69.3859V67.4681C66.047 67.4222 66.0246 67.4128 65.9799 67.4387ZM38.8646 33.5563L38.6091 33.7035C38.575 33.7235 38.5338 33.7623 38.4843 33.82L38.1935 34.1697C38.1617 34.2074 38.1453 34.2439 38.1453 34.2803V34.5417C38.1453 34.5864 38.1676 34.5864 38.2124 34.5417L38.5255 34.1826V35.7367C38.5255 35.7814 38.5479 35.7908 38.5926 35.7649L38.8669 35.606C38.8905 35.593 38.907 35.5777 38.9164 35.5636C38.9258 35.5483 38.9305 35.5283 38.9305 35.5024V33.5846C38.9305 33.5398 38.9081 33.5304 38.8646 33.5563ZM50.7764 39.066L50.5209 39.2132C50.4868 39.2332 50.4456 39.2721 50.3961 39.3297L50.1053 39.6794C50.0736 39.7171 50.0571 39.7536 50.0571 39.7901V40.0514C50.0571 40.0962 50.0794 40.0962 50.1242 40.0514L50.4373 39.6923V41.2464C50.4373 41.2911 50.4597 41.3005 50.5044 41.2746L50.7787 41.1157C50.8023 41.1027 50.8188 41.0874 50.8282 41.0733C50.8376 41.058 50.8423 41.038 50.8423 41.0121V39.0943C50.8435 39.0495 50.8211 39.0401 50.7764 39.066ZM89.6634 23.8296L89.4079 23.9767C89.3738 23.9967 89.3326 24.0356 89.2831 24.0933L88.9935 24.4429C88.9617 24.4806 88.9453 24.5171 88.9453 24.5536V24.8149C88.9453 24.8597 88.9676 24.8597 89.0124 24.8149L89.3255 24.4559V26.0099C89.3255 26.0546 89.3479 26.0641 89.3926 26.0382L89.6669 25.8804C89.6905 25.8674 89.707 25.8521 89.7164 25.838C89.7258 25.8227 89.7305 25.8027 89.7305 25.7768V23.859C89.7305 23.8131 89.707 23.8037 89.6634 23.8296ZM73.1048 101.388L72.8494 101.535C72.8152 101.555 72.774 101.594 72.7246 101.652L72.435 102.002C72.4032 102.039 72.3867 102.076 72.3867 102.112V102.374C72.3867 102.418 72.4091 102.418 72.4538 102.374L72.767 102.014V103.568C72.767 103.613 72.7893 103.623 72.8341 103.597L73.1084 103.438C73.1319 103.425 73.1484 103.41 73.1578 103.395C73.1672 103.38 73.172 103.36 73.172 103.334V101.418C73.172 101.372 73.1496 101.362 73.1048 101.388ZM55.9306 84.0432L55.6751 84.1903C55.6409 84.2103 55.5997 84.2492 55.5503 84.3069L55.2595 84.6565C55.2277 84.6942 55.2112 84.7307 55.2112 84.7672V85.0286C55.2112 85.0733 55.2336 85.0733 55.2783 85.0286L55.5915 84.6695V86.2235C55.5915 86.2682 55.6139 86.2777 55.6586 86.2518L55.9329 86.0928C55.9565 86.0787 55.9729 86.0646 55.9824 86.0504C55.9918 86.0351 55.9965 86.0151 55.9965 85.9892V84.0714C55.9977 84.0267 55.9753 84.0173 55.9306 84.0432ZM77.0217 22.9089L76.7662 23.0561C76.7321 23.0761 76.6909 23.1149 76.6414 23.1726L76.3506 23.5223C76.3188 23.56 76.3024 23.5965 76.3024 23.633V23.8943C76.3024 23.939 76.3247 23.939 76.3695 23.8943L76.6826 23.5352V25.0893C76.6826 25.134 76.705 25.1434 76.7497 25.1175L77.024 24.9598C77.0476 24.9456 77.0641 24.9315 77.0735 24.9174C77.0829 24.9021 77.0876 24.882 77.0876 24.8561V22.9383C77.0888 22.8924 77.0664 22.883 77.0217 22.9089ZM94.0512 93.1589L93.7957 93.3061C93.7616 93.3261 93.7203 93.3649 93.6709 93.4226L93.3801 93.7723C93.3483 93.81 93.3318 93.8464 93.3318 93.8829V94.1443C93.3318 94.189 93.3542 94.189 93.399 94.1443L93.7121 93.7852V95.3392C93.7121 95.384 93.7345 95.3934 93.7792 95.3675L94.0535 95.2086C94.0771 95.1944 94.0936 95.1803 94.103 95.1662C94.1124 95.1509 94.1171 95.1309 94.1171 95.105V93.1872C94.1171 93.1424 94.0947 93.133 94.0512 93.1589ZM61.2554 57.6919L61 57.8391C60.9658 57.8591 60.9246 57.8979 60.8752 57.9556L60.5856 58.3053C60.5538 58.3429 60.5373 58.3794 60.5373 58.4159V58.6773C60.5373 58.722 60.5597 58.722 60.6044 58.6773L60.9176 58.3182V59.8722C60.9176 59.917 60.9399 59.9264 60.9847 59.9005L61.259 59.7416C61.2825 59.7286 61.299 59.7133 61.3084 59.6992C61.3178 59.6839 61.3225 59.6639 61.3225 59.638V57.7213C61.3225 57.6754 61.3002 57.666 61.2554 57.6919ZM91.1303 87.0923L90.8748 87.2395C90.8407 87.2595 90.7995 87.2984 90.7501 87.356L90.4604 87.7057C90.4286 87.7434 90.4122 87.7799 90.4122 87.8164V88.0777C90.4122 88.1225 90.4345 88.1225 90.4793 88.0777L90.7924 87.7187V89.2727C90.7924 89.3174 90.8148 89.3268 90.8595 89.3009L91.1338 89.1432C91.1574 89.1291 91.1739 89.1149 91.1833 89.1008C91.1927 89.0855 91.1974 89.0655 91.1974 89.0396V87.1218C91.1974 87.0759 91.1751 87.0664 91.1303 87.0923ZM38.2489 71.3131L37.9934 71.4603C37.9592 71.4803 37.918 71.5192 37.8686 71.5768L37.5778 71.9265C37.546 71.9642 37.5295 72.0007 37.5295 72.0372V72.2985C37.5295 72.3433 37.5519 72.3433 37.5966 72.2985L37.9098 71.9394V73.4935C37.9098 73.5382 37.9322 73.5476 37.9769 73.5217L38.2512 73.3628C38.2748 73.3487 38.2912 73.3345 38.3007 73.3204C38.3101 73.3051 38.3148 73.2851 38.3148 73.2592V71.3426C38.316 71.2967 38.2936 71.2872 38.2489 71.3131ZM87.8892 50.0383L87.6338 50.1855C87.5996 50.2055 87.5584 50.2444 87.509 50.3021L87.2182 50.6517C87.1864 50.6894 87.1699 50.7259 87.1699 50.7624V51.0237C87.1699 51.0685 87.1923 51.0685 87.237 51.0237L87.5502 50.6647V52.2187C87.5502 52.2634 87.5725 52.2729 87.6173 52.247L87.8916 52.088C87.9151 52.0739 87.9316 52.0598 87.941 52.0456C87.9505 52.0303 87.9552 52.0103 87.9552 51.9844V50.0666C87.9552 50.0219 87.934 50.0125 87.8892 50.0383ZM99.0594 60.661L98.8039 60.8082C98.7697 60.8282 98.7285 60.8671 98.6791 60.9247L98.3883 61.2744C98.3565 61.3121 98.34 61.3486 98.34 61.3851V61.6464C98.34 61.6912 98.3624 61.6912 98.4071 61.6464L98.7203 61.2874V62.8414C98.7203 62.8861 98.7427 62.8955 98.7874 62.8696L99.0617 62.7107C99.0853 62.6966 99.1017 62.6824 99.1112 62.6683C99.1206 62.6542 99.1253 62.633 99.1253 62.6071V60.6893C99.1265 60.6445 99.1041 60.6351 99.0594 60.661ZM72.3078 81.6874L72.0524 81.8346C72.0182 81.8546 71.977 81.8934 71.9276 81.9511L71.6379 82.3008C71.6062 82.3385 71.5897 82.3749 71.5897 82.4114V82.6728C71.5897 82.7175 71.612 82.7175 71.6568 82.6728L71.9699 82.3137V83.8677C71.9699 83.9125 71.9923 83.9219 72.037 83.896L72.3114 83.7371C72.3349 83.7241 72.3514 83.7088 72.3608 83.6947C72.3702 83.6794 72.3749 83.6594 72.3749 83.6335V81.7168C72.3749 81.6709 72.3526 81.6615 72.3078 81.6874ZM97.8067 74.8038L97.5512 74.951C97.5171 74.971 97.4759 75.0098 97.4265 75.0675L97.1368 75.4172C97.105 75.4548 97.0886 75.4913 97.0886 75.5278V75.7892C97.0886 75.8339 97.1109 75.8339 97.1557 75.7892L97.4688 75.4301V76.9841C97.4688 77.0289 97.4912 77.0383 97.5359 77.0124L97.8102 76.8546C97.8338 76.8405 97.8503 76.8264 97.8597 76.8123C97.8691 76.797 97.8738 76.7769 97.8738 76.751V74.8332C97.8738 74.7885 97.8514 74.7791 97.8067 74.8038ZM54.0151 45.6153L53.7596 45.7624C53.7255 45.7824 53.6843 45.8213 53.6348 45.879L53.3452 46.2287C53.3134 46.2663 53.297 46.3028 53.297 46.3393V46.6007C53.297 46.6454 53.3193 46.6454 53.3641 46.6007L53.6772 46.2416V47.7956C53.6772 47.8404 53.6996 47.8498 53.7443 47.8239L54.0186 47.6661C54.0422 47.652 54.0587 47.6379 54.0681 47.6237C54.0775 47.6084 54.0822 47.5884 54.0822 47.5625V45.6459C54.0822 45.6 54.0598 45.5894 54.0151 45.6153ZM42.4989 96.1327L42.2434 96.2799C42.2093 96.2999 42.1681 96.3388 42.1186 96.3964L41.8278 96.7461C41.796 96.7838 41.7796 96.8203 41.7796 96.8568V97.1181C41.7796 97.1629 41.8019 97.1629 41.8467 97.1181L42.1598 96.759V98.3131C42.1598 98.3578 42.1822 98.3672 42.2269 98.3413L42.5012 98.1836C42.5248 98.1694 42.5413 98.1553 42.5507 98.1412C42.5601 98.1259 42.5648 98.1059 42.5648 98.08V96.1633C42.566 96.1162 42.5436 96.1068 42.4989 96.1327ZM40.7847 51.8384L40.5293 51.9856C40.4951 52.0056 40.4539 52.0445 40.4045 52.1021L40.1137 52.4518C40.0819 52.4895 40.0654 52.526 40.0654 52.5625V52.8238C40.0654 52.8685 40.0878 52.8685 40.1325 52.8238L40.4457 52.4647V54.0188C40.4457 54.0635 40.4681 54.0729 40.5128 54.047L40.7871 53.8881C40.8106 53.8751 40.8271 53.8598 40.8365 53.8457C40.846 53.8304 40.8507 53.8104 40.8507 53.7845V51.8679C40.8519 51.8219 40.8295 51.8125 40.7847 51.8384ZM52.5494 66.0224L52.2939 66.1696C52.2598 66.1896 52.2186 66.2284 52.1691 66.2861L51.8795 66.6358C51.8477 66.6734 51.8312 66.7099 51.8312 66.7464V67.0078C51.8312 67.0525 51.8536 67.0525 51.8983 67.0078L52.2115 66.6487V68.2027C52.2115 68.2475 52.2339 68.2569 52.2786 68.231L52.5529 68.0721C52.5765 68.0591 52.5929 68.0438 52.6024 68.0297C52.6118 68.0144 52.6165 67.9944 52.6165 67.9685V66.0518C52.6165 66.0059 52.5941 65.9965 52.5494 66.0224ZM60.5396 102.239L60.2842 102.386C60.25 102.407 60.2088 102.445 60.1594 102.503L59.8686 102.853C59.8368 102.89 59.8203 102.927 59.8203 102.963V103.225C59.8203 103.269 59.8427 103.269 59.8874 103.225L60.2006 102.866V104.42C60.2006 104.464 60.223 104.474 60.2677 104.448L60.542 104.289C60.5655 104.275 60.582 104.261 60.5914 104.247C60.6009 104.231 60.6056 104.211 60.6056 104.185V102.269C60.6068 102.224 60.5844 102.213 60.5396 102.239ZM62.2738 72.1937L62.0183 72.3409C61.9842 72.3609 61.943 72.3998 61.8935 72.4575L61.6027 72.8071C61.5709 72.8448 61.5545 72.8813 61.5545 72.9178V73.1791C61.5545 73.2239 61.5768 73.2239 61.6216 73.1791L61.9347 72.8201V74.3741C61.9347 74.4188 61.9571 74.4282 62.0018 74.4023L62.2761 74.2434C62.2997 74.2305 62.3162 74.2151 62.3256 74.201C62.335 74.1857 62.3397 74.1657 62.3397 74.1398V72.2232C62.3409 72.1773 62.3185 72.1678 62.2738 72.1937ZM94.9871 49.1342L94.7316 49.2814C94.6975 49.3014 94.6563 49.3402 94.6068 49.3979L94.3172 49.7476C94.2854 49.7852 94.269 49.8217 94.269 49.8582V50.1196C94.269 50.1643 94.2913 50.1643 94.3361 50.1196L94.6492 49.7605V51.3145C94.6492 51.3593 94.6716 51.3687 94.7163 51.3428L94.9906 51.1839C95.0142 51.1697 95.0307 51.1556 95.0401 51.1415C95.0495 51.1262 95.0542 51.1062 95.0542 51.0803V49.1624C95.0542 49.1177 95.0318 49.1083 94.9871 49.1342ZM60.2006 78.9514L59.9451 79.0985C59.911 79.1186 59.8698 79.1574 59.8203 79.2151L59.5307 79.5648C59.4989 79.6024 59.4824 79.6389 59.4824 79.6754V79.9368C59.4824 79.9815 59.5048 79.9815 59.5495 79.9368L59.8627 79.5777V81.1317C59.8627 81.1765 59.8851 81.1859 59.9298 81.16L60.2041 81.001C60.2277 80.9869 60.2441 80.9728 60.2536 80.9587C60.263 80.9434 60.2677 80.9233 60.2677 80.8974V78.9797C60.2677 78.9349 60.2453 78.9255 60.2006 78.9514ZM53.3393 78.1249L53.0839 78.2721C53.0497 78.2921 53.0085 78.331 52.9591 78.3886L52.6683 78.7383C52.6365 78.776 52.62 78.8125 52.62 78.849V79.1103C52.62 79.1551 52.6424 79.1551 52.6871 79.1103L53.0003 78.7513V80.3053C53.0003 80.35 53.0227 80.3594 53.0674 80.3335L53.3417 80.1746C53.3653 80.1616 53.3817 80.1463 53.3912 80.1322C53.4006 80.1169 53.4053 80.0969 53.4053 80.071V78.1544C53.4065 78.1085 53.3841 78.099 53.3393 78.1249ZM87.1723 78.8666L86.9168 79.0138C86.8827 79.0338 86.8415 79.0726 86.792 79.1303L86.5024 79.48C86.4706 79.5177 86.4541 79.5542 86.4541 79.5907V79.852C86.4541 79.8968 86.4765 79.8968 86.5212 79.852L86.8344 79.4929V81.047C86.8344 81.0917 86.8568 81.1011 86.9015 81.0752L87.1758 80.9163C87.1993 80.9021 87.2158 80.888 87.2252 80.8739C87.2347 80.8586 87.2394 80.8386 87.2394 80.8127V78.8949C87.2394 78.8513 87.217 78.8419 87.1723 78.8666ZM98.0928 35.3976L97.8373 35.5448C97.8032 35.5648 97.762 35.6036 97.7125 35.6613L97.4217 36.011C97.39 36.0486 97.3735 36.0851 97.3735 36.1216V36.383C97.3735 36.4277 97.3958 36.4277 97.4406 36.383L97.7537 36.0239V37.5779C97.7537 37.6227 97.7761 37.6321 97.8208 37.6062L98.0952 37.4484C98.1187 37.4343 98.1352 37.4202 98.1446 37.4061C98.154 37.3907 98.1587 37.3707 98.1587 37.3448V35.427C98.1599 35.3811 98.1375 35.3717 98.0928 35.3976ZM49.4013 73.3757L49.1458 73.5229C49.1117 73.5429 49.0705 73.5818 49.0211 73.6395L48.7303 73.9891C48.6985 74.0268 48.682 74.0633 48.682 74.0998V74.3611C48.682 74.4059 48.7044 74.4059 48.7491 74.3611L49.0623 74.0021V75.5561C49.0623 75.6008 49.0846 75.6102 49.1294 75.5843L49.4037 75.4266C49.4272 75.4125 49.4437 75.3983 49.4531 75.3842C49.4625 75.3689 49.4672 75.3489 49.4672 75.323V73.4063C49.4684 73.3593 49.4449 73.3498 49.4013 73.3757ZM60.3842 17.9043L60.1288 18.0514C60.0946 18.0714 60.0534 18.1103 60.004 18.168L59.7132 18.5176C59.6814 18.5553 59.6649 18.5918 59.6649 18.6283V18.8897C59.6649 18.9344 59.6873 18.9344 59.732 18.8897L60.0452 18.5306V20.0846C60.0452 20.1293 60.0676 20.1388 60.1123 20.1129L60.3866 19.9551C60.4101 19.941 60.4266 19.9268 60.436 19.9115C60.4455 19.8962 60.4502 19.8762 60.4502 19.8503V17.9325C60.4513 17.8878 60.429 17.8784 60.3842 17.9043ZM33.1665 77.2537L32.911 77.4009C32.8769 77.4209 32.8357 77.4598 32.7862 77.5174L32.4966 77.8671C32.4648 77.9048 32.4484 77.9413 32.4484 77.9778V78.2391C32.4484 78.2839 32.4707 78.2839 32.5155 78.2391L32.8286 77.8801V79.4341C32.8286 79.4788 32.851 79.4882 32.8957 79.4623L33.17 79.3034C33.1936 79.2904 33.2101 79.2751 33.2195 79.261C33.2289 79.2457 33.2336 79.2257 33.2336 79.1998V77.282C33.2336 77.2373 33.2112 77.2278 33.1665 77.2537ZM75.138 45.308L74.8826 45.4552C74.8484 45.4752 74.8072 45.514 74.7578 45.5717L74.4682 45.9214C74.4364 45.9591 74.4199 45.9955 74.4199 46.032V46.2934C74.4199 46.3381 74.4422 46.3381 74.487 46.2934L74.8001 45.9343V47.4883C74.8001 47.5331 74.8225 47.5425 74.8672 47.5166L75.1416 47.3577C75.1651 47.3435 75.1816 47.3294 75.191 47.3153C75.2004 47.3 75.2051 47.28 75.2051 47.2541V45.3363C75.2051 45.2927 75.1828 45.2833 75.138 45.308ZM93.3942 61.6135L93.1388 61.7606C93.1046 61.7806 93.0634 61.8195 93.014 61.8772L92.7244 62.2268C92.6926 62.2645 92.6761 62.301 92.6761 62.3375V62.5989C92.6761 62.6436 92.6985 62.6436 92.7432 62.5989L93.0564 62.2398V63.7938C93.0564 63.8385 93.0787 63.848 93.1235 63.8221L93.3978 63.6631C93.4213 63.6502 93.4378 63.6349 93.4472 63.6207C93.4566 63.6054 93.4613 63.5854 93.4613 63.5595V61.6417C93.4613 61.597 93.439 61.5876 93.3942 61.6135ZM41.5688 86.0728L41.3133 86.22C41.2792 86.24 41.238 86.2788 41.1886 86.3365L40.8978 86.6862C40.866 86.7238 40.8495 86.7603 40.8495 86.7968V87.0582C40.8495 87.1029 40.8719 87.1029 40.9166 87.0582L41.2298 86.6991V88.2532C41.2298 88.2979 41.2521 88.3073 41.2969 88.2814L41.5712 88.1225C41.5947 88.1083 41.6112 88.0942 41.6206 88.0801C41.63 88.0648 41.6347 88.0448 41.6347 88.0189V86.1011C41.6359 86.0563 41.6136 86.0469 41.5688 86.0728ZM58.0744 90.5006L57.8189 90.6478C57.7848 90.6678 57.7436 90.7066 57.6941 90.7643L57.4033 91.114C57.3716 91.1516 57.3551 91.1881 57.3551 91.2246V91.486C57.3551 91.5307 57.3774 91.5307 57.4222 91.486L57.7353 91.1269V92.6809C57.7353 92.7257 57.7577 92.7351 57.8024 92.7092L58.0768 92.5514C58.1003 92.5373 58.1168 92.5232 58.1262 92.5079C58.1356 92.4926 58.1403 92.4725 58.1403 92.4466V90.5288C58.1415 90.4841 58.1191 90.4747 58.0744 90.5006ZM73.9513 59.738L73.6959 59.8852C73.6617 59.9052 73.6205 59.9441 73.5711 60.0017L73.2814 60.3514C73.2497 60.3891 73.2332 60.4256 73.2332 60.4621V60.7234C73.2332 60.7682 73.2555 60.7682 73.3003 60.7234L73.6134 60.3643V61.9184C73.6134 61.9631 73.6358 61.9725 73.6805 61.9466L73.9548 61.7877C73.9784 61.7736 73.9949 61.7594 74.0043 61.7453C74.0137 61.7312 74.0184 61.71 74.0184 61.6841V59.7675C74.0184 59.7227 73.9961 59.7121 73.9513 59.738ZM43.363 0.0141871L43.1075 0.161348C43.0734 0.181362 43.0322 0.220211 42.9827 0.277899L42.692 0.627559C42.6602 0.665232 42.6437 0.701721 42.6437 0.738217V0.999575C42.6437 1.04431 42.666 1.04431 42.7108 0.999575L43.0239 0.640502V2.19452C43.0239 2.23926 43.0463 2.24868 43.0911 2.22278L43.3654 2.06503C43.3889 2.0509 43.4054 2.03677 43.4148 2.02264C43.4242 2.00734 43.4289 1.98732 43.4289 1.96142V0.0436211C43.4301 -0.00229311 43.4077 -0.0117132 43.363 0.0141871ZM64.2952 91.1187L64.0397 91.2658C64.0056 91.2858 63.9644 91.3247 63.9149 91.3824L63.6241 91.732C63.5924 91.7697 63.5759 91.8062 63.5759 91.8427V92.1041C63.5759 92.1488 63.5982 92.1488 63.643 92.1041L63.9561 91.745V93.299C63.9561 93.3437 63.9785 93.3532 64.0232 93.3273L64.2976 93.1683C64.3211 93.1542 64.3376 93.1401 64.347 93.1259C64.3564 93.1106 64.3611 93.0906 64.3611 93.0647V91.1469C64.3623 91.1022 64.3399 91.0928 64.2952 91.1187ZM32.7804 69.8545L32.5249 70.0016C32.4907 70.0216 32.4495 70.0605 32.4001 70.1182L32.1093 70.4678C32.0775 70.5055 32.061 70.542 32.061 70.5785V70.8399C32.061 70.8846 32.0834 70.8846 32.1281 70.8399L32.4413 70.4808V72.0348C32.4413 72.0796 32.4637 72.089 32.5084 72.0631L32.7827 71.9041C32.8063 71.89 32.8227 71.8759 32.8322 71.8617C32.8416 71.8464 32.8463 71.8264 32.8463 71.8005V69.8827C32.8475 69.838 32.8251 69.8286 32.7804 69.8545ZM55.96 52.3694L55.7045 52.5166C55.6704 52.5366 55.6292 52.5754 55.5797 52.6331L55.2889 52.9828C55.2572 53.0204 55.2407 53.0569 55.2407 53.0934V53.3548C55.2407 53.3995 55.263 53.3995 55.3078 53.3548L55.6209 52.9957V54.5497C55.6209 54.5945 55.6433 54.6039 55.688 54.578L55.9623 54.4202C55.9859 54.4061 56.0024 54.392 56.0118 54.3778C56.0212 54.3625 56.0259 54.3425 56.0259 54.3166V52.3988C56.0271 52.3529 56.0047 52.3435 55.96 52.3694ZM81.579 47.9204L81.3235 48.0676C81.2894 48.0876 81.2481 48.1264 81.1987 48.1841L80.9079 48.5338C80.8761 48.5714 80.8596 48.608 80.8596 48.6445V48.9058C80.8596 48.9505 80.882 48.9505 80.9268 48.9058L81.2399 48.5467V50.1008C81.2399 50.1455 81.2623 50.1549 81.307 50.129L81.5813 49.9713C81.6049 49.9571 81.6214 49.943 81.6308 49.9289C81.6402 49.9136 81.6449 49.8936 81.6449 49.8677V47.9498C81.6461 47.9039 81.6237 47.8945 81.579 47.9204ZM79.9873 92.6491L79.7318 92.7963C79.6977 92.8163 79.6565 92.8552 79.607 92.9128L79.3174 93.2625C79.2856 93.3002 79.2691 93.3367 79.2691 93.3732V93.6345C79.2691 93.6793 79.2915 93.6793 79.3362 93.6345L79.6494 93.2755V94.8295C79.6494 94.8742 79.6718 94.8836 79.7165 94.8577L79.9908 94.7C80.0144 94.6859 80.0308 94.6717 80.0403 94.6576C80.0497 94.6423 80.0544 94.6223 80.0544 94.5964V92.6797C80.0544 92.6327 80.032 92.6232 79.9873 92.6491ZM44.2495 71.6828L43.994 71.83C43.9599 71.85 43.9187 71.8888 43.8692 71.9465L43.5796 72.2962C43.5478 72.3338 43.5314 72.3703 43.5314 72.4068V72.6682C43.5314 72.7129 43.5537 72.7129 43.5985 72.6682L43.9116 72.3091V73.8631C43.9116 73.9079 43.934 73.9173 43.9787 73.8914L44.253 73.7325C44.2766 73.7183 44.2931 73.7042 44.3025 73.6901C44.3119 73.6748 44.3166 73.6548 44.3166 73.6289V71.7111C44.3166 71.6663 44.2942 71.6569 44.2495 71.6828ZM99.1853 29.5394L98.9298 29.6866C98.8957 29.7066 98.8545 29.7454 98.8051 29.8031L98.5143 30.1528C98.4825 30.1904 98.466 30.2269 98.466 30.2634V30.5248C98.466 30.5695 98.4884 30.5695 98.5331 30.5248L98.8463 30.1657V31.7197C98.8463 31.7645 98.8686 31.7739 98.9134 31.748L99.1877 31.5891C99.2112 31.5761 99.2277 31.5608 99.2371 31.5467C99.2465 31.5314 99.2513 31.5114 99.2513 31.4855V29.5677C99.2513 29.5241 99.2301 29.5147 99.1853 29.5394ZM66.9653 77.1643L66.7098 77.3114C66.6757 77.3314 66.6345 77.3703 66.585 77.428L66.2942 77.7776C66.2624 77.8153 66.246 77.8518 66.246 77.8883V78.1497C66.246 78.1944 66.2683 78.1944 66.3131 78.1497L66.6262 77.7906V79.3446C66.6262 79.3893 66.6486 79.3988 66.6933 79.3729L66.9676 79.2139C66.9912 79.201 67.0077 79.1857 67.0171 79.1715C67.0265 79.1562 67.0312 79.1362 67.0312 79.1103V77.1937C67.0324 77.1478 67.01 77.1384 66.9653 77.1643ZM98.9805 82.6669L98.725 82.8141C98.6909 82.8341 98.6497 82.8729 98.6002 82.9306L98.3106 83.2803C98.2788 83.318 98.2623 83.3544 98.2623 83.3909V83.6523C98.2623 83.697 98.2847 83.697 98.3294 83.6523L98.6426 83.2932V84.8472C98.6426 84.892 98.665 84.9014 98.7097 84.8755L98.984 84.7177C99.0075 84.7036 99.024 84.6895 99.0334 84.6754C99.0429 84.6612 99.0476 84.64 99.0476 84.6141V82.6975C99.0476 82.6516 99.0252 82.641 98.9805 82.6669ZM62.5822 12.1874L62.3268 12.3345C62.2926 12.3545 62.2514 12.3934 62.202 12.4511L61.9112 12.8007C61.8794 12.8384 61.8629 12.8749 61.8629 12.9114V13.1727C61.8629 13.2175 61.8853 13.2175 61.93 13.1727L62.2432 12.8137V14.3677C62.2432 14.4124 62.2656 14.4218 62.3103 14.3959L62.5846 14.237C62.6081 14.2229 62.6246 14.2088 62.634 14.1946C62.6435 14.1793 62.6482 14.1593 62.6482 14.1334V12.2156C62.6493 12.1709 62.627 12.1615 62.5822 12.1874ZM77.356 38.3185L77.1006 38.4656C77.0664 38.4856 77.0252 38.5245 76.9758 38.5822L76.6862 38.9318C76.6544 38.9695 76.6379 39.006 76.6379 39.0425V39.3038C76.6379 39.3486 76.6603 39.3486 76.705 39.3038L77.0182 38.9448V40.4988C77.0182 40.5435 77.0405 40.5529 77.0853 40.527L77.3596 40.3693C77.3831 40.3552 77.3996 40.341 77.409 40.3269C77.4184 40.3128 77.4231 40.2916 77.4231 40.2657V38.3479C77.422 38.302 77.4008 38.2925 77.356 38.3185ZM71.3695 65.5527V66.5639C71.3695 66.7299 71.3236 66.8842 71.2318 67.0278C71.14 67.1714 71.0116 67.2903 70.8456 67.3869L70.5266 67.5705C70.3582 67.6671 70.2287 67.6977 70.1369 67.6612C70.0451 67.6247 70.0003 67.5223 70.0003 67.3539V66.3426C70.0003 66.1743 70.0463 66.0201 70.1369 65.8776C70.2287 65.7352 70.3582 65.6162 70.5266 65.5185L70.8456 65.3349C71.0116 65.2395 71.14 65.2101 71.2318 65.2477C71.3236 65.2854 71.3695 65.3867 71.3695 65.5527ZM70.9681 65.8034C70.9681 65.7351 70.9539 65.6951 70.9269 65.6822C70.8986 65.6692 70.8515 65.6833 70.7832 65.7222L70.5949 65.8305C70.5266 65.8694 70.4783 65.9117 70.4512 65.9565C70.4242 66.0012 70.41 66.0577 70.41 66.126V67.0984C70.41 67.1667 70.4242 67.2068 70.4512 67.2197C70.4783 67.2327 70.5266 67.2197 70.5949 67.1797L70.7832 67.0714C70.8515 67.0325 70.8986 66.9901 70.9269 66.9454C70.9539 66.9007 70.9681 66.8442 70.9681 66.7759V65.8034ZM53.7549 59.2636V60.2749C53.7549 60.4409 53.709 60.5951 53.6172 60.7387C53.5254 60.8824 53.397 61.0013 53.231 61.0966L52.912 61.2803C52.7436 61.378 52.6141 61.4074 52.5223 61.3709C52.4305 61.3344 52.3857 61.232 52.3857 61.0637V60.0524C52.3857 59.884 52.4317 59.7298 52.5223 59.5873C52.6141 59.4449 52.7436 59.326 52.912 59.2283L53.231 59.0446C53.397 58.9493 53.5254 58.9198 53.6172 58.9575C53.709 58.9963 53.7549 59.0976 53.7549 59.2636ZM53.3535 59.5144C53.3535 59.4461 53.3393 59.406 53.3123 59.3931C53.284 59.3801 53.2369 59.3931 53.1686 59.4331L52.9803 59.5414C52.912 59.5803 52.8637 59.6227 52.8366 59.6674C52.8096 59.7121 52.7954 59.7686 52.7954 59.8369V60.8106C52.7954 60.8788 52.8096 60.9189 52.8366 60.9318C52.8637 60.9448 52.912 60.9318 52.9803 60.8918L53.1686 60.7835C53.2369 60.7446 53.284 60.7022 53.3123 60.6575C53.3393 60.6128 53.3535 60.5562 53.3535 60.4891V59.5144ZM90.8348 56.544V57.5554C90.8348 57.7213 90.7889 57.8756 90.6971 58.0192C90.6052 58.1628 90.4769 58.2817 90.3109 58.3783L89.9919 58.5619C89.8235 58.6585 89.694 58.6891 89.6022 58.6526C89.5104 58.6161 89.4645 58.5136 89.4645 58.3453V57.334C89.4645 57.1657 89.5104 57.0114 89.6022 56.869C89.694 56.7265 89.8235 56.6076 89.9919 56.5099L90.3109 56.3263C90.4769 56.2309 90.6052 56.2015 90.6971 56.2391C90.7889 56.2756 90.8348 56.3781 90.8348 56.544ZM90.4322 56.7948C90.4322 56.7265 90.4181 56.6865 90.391 56.6735C90.3627 56.6606 90.3156 56.6735 90.2473 56.7136L90.059 56.8219C89.9907 56.8607 89.9424 56.9031 89.9154 56.9479C89.8883 56.9926 89.8741 57.0491 89.8741 57.1174V58.0898C89.8741 58.1581 89.8883 58.1981 89.9154 58.2111C89.9424 58.224 89.9907 58.2111 90.059 58.1711L90.2473 58.0628C90.3156 58.0239 90.3627 57.9815 90.391 57.9368C90.4181 57.892 90.4322 57.8355 90.4322 57.7673V56.7948ZM56.4627 71.8147V72.826C56.4627 72.992 56.4168 73.1462 56.325 73.2898C56.2331 73.4334 56.1048 73.5523 55.9388 73.6477L55.6198 73.8314C55.4514 73.9279 55.3219 73.9585 55.2301 73.922C55.1382 73.8855 55.0935 73.7831 55.0935 73.6147V72.6034C55.0935 72.4351 55.1394 72.2797 55.2301 72.1384C55.3219 71.996 55.4514 71.8771 55.6198 71.7794L55.9388 71.5957C56.1048 71.5003 56.2331 71.4709 56.325 71.5086C56.4168 71.5474 56.4627 71.6498 56.4627 71.8147ZM56.0612 72.0666C56.0612 71.9983 56.0471 71.9583 56.02 71.9453C55.9918 71.9324 55.9447 71.9453 55.8764 71.9854L55.688 72.0937C55.6198 72.1325 55.5727 72.1749 55.5444 72.2197C55.5162 72.2644 55.5032 72.3209 55.5032 72.3892V73.3616C55.5032 73.4299 55.5173 73.4699 55.5444 73.4829C55.5715 73.4958 55.6198 73.4829 55.688 73.4429L55.8764 73.3345C55.9447 73.2957 55.9918 73.2533 56.02 73.2086C56.0471 73.1638 56.0612 73.1073 56.0612 73.039V72.0666ZM38.0676 82.3196V83.3309C38.0676 83.4969 38.0216 83.6511 37.9298 83.7948C37.838 83.9384 37.7097 84.0573 37.5437 84.1526L37.2246 84.3375C37.0563 84.434 36.9268 84.4646 36.8349 84.4281C36.7431 84.3916 36.6972 84.2892 36.6972 84.1209V83.1096C36.6972 82.9412 36.7431 82.787 36.8349 82.6445C36.9268 82.5021 37.0563 82.3832 37.2246 82.2855L37.5437 82.1018C37.7097 82.0064 37.838 81.977 37.9298 82.0147C38.0228 82.0512 38.0676 82.1536 38.0676 82.3196ZM37.6661 82.5704C37.6661 82.5021 37.652 82.4621 37.6249 82.4491C37.5966 82.4362 37.5496 82.4491 37.4813 82.4892L37.2929 82.5975C37.2246 82.6363 37.1775 82.6787 37.1493 82.7234C37.1222 82.7682 37.1081 82.8247 37.1081 82.8929V83.8654C37.1081 83.9337 37.1222 83.9737 37.1493 83.9866C37.1764 83.9996 37.2246 83.9866 37.2929 83.9466L37.4813 83.8383C37.5496 83.7995 37.5966 83.7571 37.6249 83.7123C37.652 83.6676 37.6661 83.6111 37.6661 83.5428V82.5704ZM79.182 57.6495V58.6608C79.182 58.8268 79.1361 58.981 79.0443 59.1247C78.9524 59.2683 78.8241 59.3872 78.6581 59.4826L78.3391 59.6662C78.1707 59.7628 78.0412 59.7934 77.9494 59.7569C77.8576 59.7204 77.8116 59.618 77.8116 59.4496V58.4383C77.8116 58.27 77.8576 58.1157 77.9494 57.9733C78.0412 57.8308 78.1707 57.7119 78.3391 57.6142L78.6581 57.4306C78.8241 57.3352 78.9524 57.3058 79.0443 57.3434C79.1361 57.3811 79.182 57.4835 79.182 57.6495ZM78.7794 57.9003C78.7794 57.832 78.7653 57.792 78.7382 57.779C78.7111 57.7661 78.6628 57.779 78.5945 57.8191L78.4062 57.9274C78.3379 57.9662 78.2896 58.0086 78.2626 58.0533C78.2355 58.0981 78.2213 58.1546 78.2213 58.2229V59.1965C78.2213 59.2648 78.2355 59.3048 78.2626 59.3177C78.2896 59.3307 78.3379 59.3177 78.4062 59.2777L78.5945 59.1694C78.6628 59.1305 78.7099 59.0882 78.7382 59.0434C78.7653 58.9987 78.7794 58.9422 78.7794 58.8739V57.9003ZM90.0213 44.0142V45.0255C90.0213 45.1915 89.9754 45.3457 89.8836 45.4893C89.7917 45.6329 89.6634 45.7518 89.4974 45.8472L89.1784 46.0309C89.01 46.1274 88.8805 46.158 88.7887 46.1215C88.6969 46.085 88.6521 45.9826 88.6521 45.8142V44.803C88.6521 44.6346 88.698 44.4804 88.7887 44.3379C88.8805 44.1955 89.01 44.0766 89.1784 43.9789L89.4974 43.7952C89.6634 43.6998 89.7917 43.6704 89.8836 43.7081C89.9754 43.7469 90.0213 43.8482 90.0213 44.0142ZM89.6187 44.2661C89.6187 44.1978 89.6045 44.1578 89.5775 44.1448C89.5492 44.1319 89.5021 44.1448 89.4338 44.1849L89.2455 44.2932C89.1772 44.332 89.1289 44.3744 89.1018 44.4192C89.0748 44.4639 89.0606 44.5204 89.0606 44.5887V45.5611C89.0606 45.6294 89.0748 45.6694 89.1018 45.6824C89.1289 45.6953 89.1772 45.6824 89.2455 45.6424L89.4338 45.5341C89.5021 45.4952 89.5492 45.4528 89.5775 45.4081C89.6045 45.3633 89.6187 45.3068 89.6187 45.2386V44.2661ZM41.3534 77.4621V78.4734C41.3534 78.6394 41.3075 78.7936 41.2168 78.9373C41.125 79.0809 40.9967 79.1998 40.8307 79.2952L40.5116 79.4788C40.3433 79.5754 40.2138 79.606 40.1219 79.5695C40.0301 79.533 39.9854 79.4305 39.9854 79.2622V78.2509C39.9854 78.0826 40.0313 77.9283 40.1219 77.7859C40.2138 77.6434 40.3433 77.5245 40.5116 77.4268L40.8307 77.2431C40.9967 77.1478 41.125 77.1183 41.2168 77.156C41.3086 77.1949 41.3534 77.2961 41.3534 77.4621ZM40.9519 77.7129C40.9519 77.6446 40.9378 77.6046 40.9107 77.5916C40.8825 77.5787 40.8354 77.5928 40.7671 77.6316L40.5787 77.74C40.5104 77.7788 40.4622 77.8212 40.4351 77.8659C40.408 77.9107 40.3939 77.9672 40.3939 78.0355V79.0079C40.3939 79.0762 40.408 79.1162 40.4351 79.1292C40.4622 79.1421 40.5104 79.1292 40.5787 79.0891L40.7671 78.9808C40.8354 78.942 40.8825 78.8996 40.9107 78.8549C40.9378 78.8101 40.9519 78.7536 40.9519 78.6853V77.7129ZM48.8103 52.3411V53.3524C48.8103 53.5184 48.7644 53.6726 48.6726 53.8163C48.5808 53.9599 48.4524 54.0788 48.2864 54.1742L47.9674 54.3578C47.799 54.4555 47.6695 54.485 47.5777 54.4485C47.4859 54.412 47.4411 54.3096 47.4411 54.1412V53.1299C47.4411 52.9616 47.487 52.8073 47.5777 52.6649C47.6695 52.5224 47.799 52.4035 47.9674 52.3058L48.2864 52.1222C48.4524 52.0268 48.5808 51.9974 48.6726 52.035C48.7656 52.0727 48.8103 52.1751 48.8103 52.3411ZM48.4089 52.5919C48.4089 52.5236 48.3947 52.4836 48.3677 52.4706C48.3394 52.4577 48.2923 52.4706 48.224 52.5107L48.0357 52.619C47.9674 52.6578 47.9191 52.7002 47.892 52.7449C47.865 52.7897 47.8508 52.8462 47.8508 52.9145V53.8881C47.8508 53.9564 47.865 53.9964 47.892 54.0093C47.9191 54.0223 47.9674 54.0093 48.0357 53.9693L48.224 53.861C48.2923 53.8222 48.3394 53.7798 48.3677 53.735C48.3947 53.6903 48.4089 53.6338 48.4089 53.5667V52.5919ZM76.2282 52.4224V53.4337C76.2282 53.5997 76.1823 53.7539 76.0916 53.8975C75.9998 54.0411 75.8715 54.16 75.7055 54.2566L75.3864 54.4402C75.2181 54.5368 75.0886 54.5674 74.9967 54.5309C74.9049 54.4944 74.8602 54.392 74.8602 54.2236V53.2123C74.8602 53.044 74.9061 52.8886 74.9967 52.7473C75.0886 52.6049 75.2181 52.4859 75.3864 52.3882L75.7055 52.2046C75.8715 52.1092 75.9998 52.0798 76.0916 52.1175C76.1823 52.1551 76.2282 52.2564 76.2282 52.4224ZM75.8256 52.6743C75.8256 52.606 75.8114 52.566 75.7844 52.553C75.7561 52.5401 75.709 52.5542 75.6407 52.5931L75.4524 52.7014C75.3841 52.7402 75.3358 52.7826 75.3087 52.8274C75.2817 52.8721 75.2675 52.9286 75.2675 52.9969V53.9705C75.2675 54.0388 75.2817 54.0788 75.3087 54.0918C75.3358 54.1047 75.3841 54.0918 75.4524 54.0517L75.6407 53.9434C75.709 53.9046 75.7561 53.8622 75.7844 53.8175C75.8114 53.7727 75.8256 53.7162 75.8256 53.6479V52.6743ZM39.312 58.7562V59.7675C39.312 59.9335 39.266 60.0877 39.1742 60.2313C39.0824 60.375 38.9541 60.4938 38.7881 60.5904L38.469 60.774C38.3007 60.8706 38.1712 60.9012 38.0793 60.8647C37.9875 60.8282 37.9428 60.7258 37.9428 60.5574V59.5461C37.9428 59.3778 37.9887 59.2224 38.0793 59.0811C38.1712 58.9387 38.3007 58.8198 38.469 58.722L38.7881 58.5384C38.9541 58.443 39.0824 58.4136 39.1742 58.4513C39.266 58.4889 39.312 58.5902 39.312 58.7562ZM38.9093 59.0069C38.9093 58.9386 38.8952 58.8986 38.8681 58.8857C38.8399 58.8727 38.7928 58.8869 38.7245 58.9257L38.5361 59.034C38.4678 59.0729 38.4196 59.1152 38.3925 59.16C38.3642 59.2047 38.3513 59.2612 38.3513 59.3295V60.302C38.3513 60.3702 38.3654 60.4103 38.3925 60.4232C38.4196 60.4362 38.4678 60.4232 38.5361 60.3832L38.7245 60.2749C38.7928 60.236 38.8399 60.1936 38.8681 60.1489C38.8952 60.1042 38.9093 60.0477 38.9093 59.9794V59.0069ZM39.7523 65.2077V66.219C39.7523 66.385 39.7063 66.5392 39.6157 66.6829C39.5239 66.8265 39.3955 66.9454 39.2295 67.0408L38.9105 67.2244C38.7421 67.321 38.6126 67.3516 38.5208 67.3151C38.429 67.2786 38.3831 67.1761 38.3831 67.0078V65.9965C38.3831 65.8282 38.429 65.6727 38.5208 65.5315C38.6126 65.389 38.7421 65.2701 38.9105 65.1724L39.2295 64.9887C39.3955 64.8934 39.5239 64.8639 39.6157 64.9016C39.7063 64.9393 39.7523 65.0406 39.7523 65.2077ZM39.3496 65.4585C39.3496 65.3902 39.3355 65.3502 39.3084 65.3372C39.2802 65.3243 39.2331 65.3384 39.1648 65.3773L38.9764 65.4856C38.9081 65.5244 38.8599 65.5668 38.8328 65.6115C38.8057 65.6563 38.7916 65.7128 38.7916 65.7811V66.7547C38.7916 66.823 38.8057 66.863 38.8328 66.8759C38.8599 66.8889 38.9081 66.8759 38.9764 66.8359L39.1648 66.7276C39.2331 66.6888 39.2802 66.6464 39.3084 66.6016C39.3355 66.5569 39.3496 66.5004 39.3496 66.4321V65.4585ZM76.0127 16.6752V17.6865C76.0127 17.8525 75.9668 18.0067 75.875 18.1503C75.7832 18.2939 75.6549 18.4129 75.4889 18.5082L75.1698 18.6919C75.0015 18.7896 74.872 18.819 74.7801 18.7825C74.6883 18.746 74.6436 18.6436 74.6436 18.4752V17.464C74.6436 17.2956 74.6895 17.1414 74.7801 16.9989C74.872 16.8565 75.0015 16.7376 75.1698 16.6399L75.4889 16.4562C75.6549 16.3608 75.7832 16.3314 75.875 16.3691C75.9668 16.4079 76.0127 16.5092 76.0127 16.6752ZM75.6101 16.9271C75.6101 16.8588 75.596 16.8188 75.5689 16.8059C75.5407 16.7929 75.4936 16.8059 75.4253 16.8459L75.2369 16.9542C75.1686 16.993 75.1204 17.0354 75.0933 17.0802C75.065 17.1249 75.0521 17.1814 75.0521 17.2497V18.2221C75.0521 18.2904 75.0662 18.3304 75.0933 18.3434C75.1204 18.3563 75.1686 18.3434 75.2369 18.3034L75.4253 18.1951C75.4936 18.1562 75.5407 18.1138 75.5689 18.0691C75.596 18.0243 75.6101 17.9678 75.6101 17.8996V16.9271ZM83.1977 7.32986V8.34115C83.1977 8.50714 83.1518 8.66138 83.06 8.805C82.9682 8.94863 82.8399 9.06754 82.6739 9.1629L82.3548 9.34656C82.1865 9.44309 82.0569 9.4737 81.9651 9.4372C81.8733 9.40071 81.8286 9.29829 81.8286 9.12994V8.11864C81.8286 7.95029 81.8745 7.79489 81.9651 7.65361C82.0569 7.51116 82.1865 7.39225 82.3548 7.29454L82.6739 7.11088C82.8399 7.01552 82.9682 6.98609 83.06 7.02377C83.1518 7.06144 83.1977 7.16387 83.1977 7.32986ZM82.7963 7.58062C82.7963 7.51234 82.7822 7.47231 82.7551 7.45936C82.7268 7.44641 82.6797 7.45936 82.6115 7.49939L82.4231 7.6077C82.3548 7.64655 82.3065 7.68893 82.2795 7.73367C82.2524 7.7784 82.2383 7.83492 82.2383 7.9032V8.87564C82.2383 8.94392 82.2524 8.98394 82.2795 8.9969C82.3065 9.00985 82.3548 8.9969 82.4231 8.95687L82.6115 8.84856C82.6797 8.80971 82.7268 8.76733 82.7551 8.72259C82.7822 8.67786 82.7963 8.62134 82.7963 8.55306V7.58062ZM65.9905 97.5584V98.5697C65.9905 98.7357 65.9446 98.8899 65.8527 99.0336C65.7609 99.1772 65.6326 99.2961 65.4666 99.3915L65.1476 99.5751C64.9792 99.6717 64.8497 99.7023 64.7579 99.6658C64.666 99.6293 64.6213 99.5269 64.6213 99.3585V98.3484C64.6213 98.18 64.6672 98.0258 64.7579 97.8834C64.8497 97.7409 64.9792 97.622 65.1476 97.5243L65.4666 97.3406C65.6326 97.2453 65.7609 97.2159 65.8527 97.2535C65.9446 97.29 65.9905 97.3924 65.9905 97.5584ZM65.5879 97.8092C65.5879 97.7409 65.5737 97.7009 65.5466 97.6879C65.5184 97.675 65.4713 97.6879 65.403 97.728L65.2147 97.8363C65.1464 97.8751 65.0981 97.9175 65.071 97.9622C65.0428 98.007 65.0298 98.0635 65.0298 98.1318V99.1054C65.0298 99.1737 65.0439 99.2137 65.071 99.2267C65.0981 99.2396 65.1464 99.2267 65.2147 99.1866L65.403 99.0783C65.4713 99.0395 65.5184 98.9971 65.5466 98.9523C65.5737 98.9076 65.5879 98.8511 65.5879 98.7828V97.8092ZM65.5184 22.9796V23.9908C65.5184 24.1568 65.4725 24.3111 65.3807 24.4547C65.2888 24.5983 65.1605 24.7172 64.9945 24.8126L64.6755 24.9963C64.5071 25.0928 64.3776 25.1234 64.2858 25.0869C64.1939 25.0504 64.1492 24.948 64.1492 24.7796V23.7683C64.1492 23.6 64.1951 23.4458 64.2858 23.3033C64.3776 23.1609 64.5071 23.0419 64.6755 22.9442L64.9945 22.7606C65.1605 22.6652 65.2888 22.6358 65.3807 22.6735C65.4725 22.7123 65.5184 22.8136 65.5184 22.9796ZM65.1169 23.2315C65.1169 23.1632 65.1028 23.1232 65.0757 23.1102C65.0475 23.0973 65.0004 23.1102 64.9321 23.1503L64.7437 23.2586C64.6755 23.2974 64.6272 23.3398 64.6001 23.3845C64.573 23.4293 64.5589 23.4858 64.5589 23.5541V24.5265C64.5589 24.5948 64.573 24.6348 64.6001 24.6478C64.6272 24.6607 64.6755 24.6478 64.7437 24.6077L64.9321 24.4994C65.0004 24.4606 65.0475 24.4182 65.0757 24.3735C65.1028 24.3287 65.1169 24.2722 65.1169 24.2039V23.2315ZM68.3321 103.1V104.111C68.3321 104.277 68.2862 104.431 68.1944 104.575C68.1025 104.719 67.9742 104.838 67.8082 104.934L67.4892 105.118C67.3208 105.214 67.1913 105.245 67.0995 105.208C67.0077 105.172 66.9629 105.07 66.9629 104.901V103.89C66.9629 103.722 67.0088 103.567 67.0995 103.425C67.1913 103.282 67.3208 103.164 67.4892 103.066L67.8082 102.882C67.9742 102.787 68.1025 102.757 68.1944 102.795C68.2862 102.831 68.3321 102.934 68.3321 103.1ZM67.9295 103.351C67.9295 103.282 67.9154 103.242 67.8883 103.229C67.86 103.216 67.8129 103.229 67.7447 103.269L67.5563 103.378C67.488 103.417 67.4409 103.459 67.4127 103.504C67.3844 103.548 67.3715 103.605 67.3715 103.673V104.646C67.3715 104.714 67.3856 104.754 67.4127 104.767C67.4397 104.78 67.488 104.767 67.5563 104.727L67.7447 104.619C67.8129 104.58 67.86 104.537 67.8883 104.493C67.9154 104.448 67.9295 104.391 67.9295 104.323V103.351ZM46.5617 65.5338V66.5451C46.5617 66.7111 46.5158 66.8653 46.424 67.009C46.3321 67.1526 46.2038 67.2715 46.0378 67.3669L45.7188 67.5505C45.5504 67.6471 45.4209 67.6777 45.3291 67.6412C45.2373 67.6047 45.1925 67.5023 45.1925 67.3339V66.3226C45.1925 66.1543 45.2384 65.9988 45.3291 65.8576C45.4209 65.7151 45.5504 65.5962 45.7188 65.4985L46.0378 65.3148C46.2038 65.2195 46.3321 65.1901 46.424 65.2277C46.5158 65.2654 46.5617 65.3678 46.5617 65.5338ZM46.1591 65.7846C46.1591 65.7163 46.1449 65.6763 46.1179 65.6633C46.0896 65.6504 46.0425 65.6633 45.9742 65.7034L45.7859 65.8117C45.7176 65.8505 45.6693 65.8929 45.6422 65.9376C45.6152 65.9824 45.601 66.0389 45.601 66.1072V67.0808C45.601 67.1491 45.6152 67.1891 45.6422 67.202C45.6693 67.215 45.7176 67.202 45.7859 67.162L45.9742 67.0537C46.0425 67.0149 46.0896 66.9725 46.1179 66.9277C46.1449 66.883 46.1591 66.8265 46.1591 66.7582V65.7846ZM79.7801 30.2187V31.23C79.7801 31.396 79.7342 31.5502 79.6423 31.6938C79.5505 31.8375 79.4222 31.9564 79.2562 32.0517L78.9371 32.2354C78.7688 32.3319 78.6393 32.3625 78.5475 32.326C78.4556 32.2896 78.4109 32.1871 78.4109 32.0188V31.0075C78.4109 30.8391 78.4568 30.6849 78.5475 30.5425C78.6393 30.4 78.7688 30.2811 78.9371 30.1834L79.2562 29.9997C79.4222 29.9044 79.5505 29.8749 79.6423 29.9126C79.7342 29.9503 79.7801 30.0527 79.7801 30.2187ZM79.3786 30.4695C79.3786 30.4012 79.3645 30.3612 79.3374 30.3482C79.3092 30.3353 79.2621 30.3482 79.1938 30.3882L79.0054 30.4965C78.9371 30.5354 78.8889 30.5778 78.8618 30.6225C78.8347 30.6672 78.8206 30.7238 78.8206 30.792V31.7645C78.8206 31.8328 78.8347 31.8728 78.8618 31.8857C78.8889 31.8987 78.9371 31.8857 79.0054 31.8457L79.1938 31.7374C79.2621 31.6986 79.3092 31.6562 79.3374 31.6114C79.3645 31.5667 79.3786 31.5102 79.3786 31.4419V30.4695ZM83.4744 82.6104V83.6217C83.4744 83.7877 83.4285 83.9419 83.3367 84.0855C83.2448 84.2292 83.1165 84.3481 82.9505 84.4434L82.6315 84.6271C82.4631 84.7236 82.3336 84.7542 82.2418 84.7177C82.15 84.6813 82.1052 84.5788 82.1052 84.4105V83.3992C82.1052 83.2308 82.1511 83.0766 82.2418 82.9342C82.3336 82.7917 82.4631 82.6728 82.6315 82.5751L82.9505 82.3914C83.1165 82.2961 83.2448 82.2666 83.3367 82.3043C83.4285 82.342 83.4744 82.4432 83.4744 82.6104ZM83.0718 82.8612C83.0718 82.7929 83.0577 82.7529 83.0306 82.7399C83.0023 82.727 82.9552 82.7399 82.8869 82.7799L82.6986 82.8882C82.6303 82.9271 82.582 82.9695 82.5549 83.0142C82.5267 83.059 82.5137 83.1155 82.5137 83.1837V84.1562C82.5137 84.2245 82.5279 84.2645 82.5549 84.2775C82.582 84.2904 82.6303 84.2775 82.6986 84.2374L82.8869 84.1291C82.9552 84.0902 83.0023 84.0479 83.0306 84.0031C83.0577 83.9584 83.0718 83.9019 83.0718 83.8336V82.8612ZM47.3823 81.5096V82.5209C47.3823 82.6869 47.3364 82.8411 47.2445 82.9848C47.1527 83.1284 47.0244 83.2473 46.8584 83.3427L46.5393 83.5263C46.371 83.6229 46.2415 83.6535 46.1496 83.617C46.0578 83.5805 46.0131 83.4781 46.0131 83.3097V82.2984C46.0131 82.1301 46.059 81.9747 46.1496 81.8334C46.2415 81.6909 46.371 81.572 46.5393 81.4743L46.8584 81.2907C47.0244 81.1953 47.1527 81.1659 47.2445 81.2035C47.3364 81.2424 47.3823 81.3436 47.3823 81.5096ZM46.9808 81.7604C46.9808 81.6921 46.9667 81.6521 46.9396 81.6391C46.9114 81.6262 46.8643 81.6403 46.796 81.6792L46.6076 81.7875C46.5393 81.8275 46.4911 81.8687 46.464 81.9134C46.4357 81.9582 46.4228 82.0147 46.4228 82.083V83.0566C46.4228 83.1249 46.4369 83.1649 46.464 83.1779C46.4911 83.1908 46.5393 83.1779 46.6076 83.1378L46.796 83.0295C46.8643 82.9907 46.9114 82.9483 46.9396 82.9035C46.9667 82.8588 46.9808 82.8023 46.9808 82.734V81.7604ZM51.531 88.3827V89.3939C51.531 89.5599 51.4851 89.7142 51.3933 89.8578C51.3015 90.0014 51.1731 90.1203 51.0071 90.2157L50.6881 90.3993C50.5197 90.4959 50.3902 90.5265 50.2984 90.49C50.2066 90.4535 50.1618 90.3511 50.1618 90.1827V89.1714C50.1618 89.0031 50.2078 88.8477 50.2984 88.7064C50.3902 88.5639 50.5197 88.445 50.6881 88.3473L51.0071 88.1637C51.1731 88.0683 51.3015 88.0389 51.3933 88.0765C51.4863 88.1154 51.531 88.2167 51.531 88.3827ZM51.1296 88.6334C51.1296 88.5651 51.1154 88.5251 51.0884 88.5122C51.0601 88.4992 51.013 88.5122 50.9447 88.5522L50.7564 88.6605C50.6881 88.6993 50.641 88.7417 50.6127 88.7865C50.5845 88.8312 50.5715 88.8877 50.5715 88.956V89.9284C50.5715 89.9967 50.5857 90.0367 50.6127 90.0497C50.6398 90.0626 50.6881 90.0497 50.7564 90.0097L50.9447 89.9013C51.013 89.8625 51.0601 89.8201 51.0884 89.7754C51.1154 89.7306 51.1296 89.6741 51.1296 89.6059V88.6334ZM50.4797 95.8525V96.8638C50.4797 97.0298 50.4338 97.1841 50.342 97.3277C50.2501 97.4713 50.1218 97.5902 49.9558 97.6856L49.6368 97.8692C49.4684 97.9658 49.3389 97.9964 49.2471 97.9599C49.1553 97.9234 49.1105 97.821 49.1105 97.6526V96.6413C49.1105 96.473 49.1564 96.3187 49.2471 96.1763C49.3389 96.0338 49.4684 95.9149 49.6368 95.8172L49.9558 95.6336C50.1218 95.5382 50.2501 95.5088 50.342 95.5464C50.4338 95.5853 50.4797 95.6866 50.4797 95.8525ZM50.0771 96.1033C50.0771 96.035 50.063 95.995 50.0359 95.982C50.0076 95.9691 49.9605 95.982 49.8923 96.0221L49.7039 96.1304C49.6356 96.1692 49.5873 96.2116 49.5603 96.2564C49.5332 96.3011 49.519 96.3576 49.519 96.4259V97.3995C49.519 97.4678 49.5332 97.5078 49.5603 97.5208C49.5873 97.5337 49.6356 97.5208 49.7039 97.4807L49.8923 97.3724C49.9605 97.3336 50.0076 97.2912 50.0359 97.2464C50.063 97.2017 50.0771 97.1452 50.0771 97.0781V96.1033ZM52.9697 101.136V102.148C52.9697 102.314 52.9238 102.468 52.8319 102.611C52.7401 102.755 52.6118 102.874 52.4458 102.969L52.1267 103.153C51.9584 103.249 51.8289 103.28 51.7371 103.244C51.6452 103.207 51.6005 103.105 51.6005 102.936V101.925C51.6005 101.757 51.6464 101.602 51.7371 101.46C51.8289 101.318 51.9584 101.199 52.1267 101.101L52.4458 100.917C52.6118 100.822 52.7401 100.792 52.8319 100.83C52.9238 100.869 52.9697 100.97 52.9697 101.136ZM52.5682 101.388C52.5682 101.32 52.5541 101.28 52.527 101.267C52.4988 101.254 52.4517 101.267 52.3834 101.307L52.195 101.415C52.1267 101.454 52.0785 101.496 52.0514 101.541C52.0243 101.586 52.0102 101.642 52.0102 101.711V102.683C52.0102 102.751 52.0243 102.791 52.0514 102.804C52.0785 102.817 52.1267 102.804 52.195 102.764L52.3834 102.656C52.4517 102.617 52.4988 102.575 52.527 102.53C52.5541 102.485 52.5682 102.429 52.5682 102.361V101.388ZM99.2183 67.8684V68.8797C99.2183 69.0457 99.1724 69.1999 99.0805 69.3435C98.9887 69.4872 98.8604 69.6061 98.6944 69.7014L98.3753 69.8851C98.207 69.9816 98.0775 70.0122 97.9857 69.9757C97.8938 69.9392 97.8479 69.8368 97.8479 69.6685V68.6572C97.8479 68.4888 97.8938 68.3334 97.9857 68.1921C98.0775 68.0497 98.207 67.9308 98.3753 67.8331L98.6944 67.6494C98.8604 67.554 98.9887 67.5246 99.0805 67.5623C99.1724 67.6012 99.2183 67.7024 99.2183 67.8684ZM98.8157 68.1191C98.8157 68.0509 98.8015 68.0108 98.7744 67.9979C98.7462 67.9849 98.6991 67.9991 98.6308 68.0379L98.4425 68.1462C98.3742 68.1851 98.3259 68.2275 98.2988 68.2722C98.2717 68.3169 98.2576 68.3734 98.2576 68.4417V69.4153C98.2576 69.4836 98.2717 69.5237 98.2988 69.5366C98.3259 69.5496 98.3742 69.5366 98.4425 69.4966L98.6308 69.3883C98.6991 69.3494 98.7462 69.307 98.7744 69.2623C98.8015 69.2176 98.8157 69.161 98.8157 69.0928V68.1191ZM88.6074 17.1225V18.1338C88.6074 18.2998 88.5615 18.4541 88.4696 18.5977C88.3778 18.7413 88.2495 18.8602 88.0835 18.9556L87.7644 19.1392C87.5961 19.2358 87.4666 19.2664 87.3748 19.2299C87.2829 19.1934 87.2382 19.091 87.2382 18.9226V17.9113C87.2382 17.743 87.2841 17.5887 87.3748 17.4463C87.4666 17.3038 87.5961 17.1849 87.7644 17.0872L88.0835 16.9036C88.2495 16.8082 88.3778 16.7788 88.4696 16.8165C88.5615 16.8553 88.6074 16.9565 88.6074 17.1225ZM88.2059 17.3733C88.2059 17.305 88.1918 17.265 88.1647 17.252C88.1365 17.2391 88.0894 17.252 88.0211 17.2921L87.8327 17.4004C87.7644 17.4392 87.7162 17.4816 87.6891 17.5264C87.662 17.5711 87.6479 17.6276 87.6479 17.6959V18.6683C87.6479 18.7366 87.662 18.7766 87.6891 18.7896C87.7162 18.8025 87.7644 18.7896 87.8327 18.7496L88.0211 18.6412C88.0894 18.6024 88.1365 18.56 88.1647 18.5153C88.1918 18.4705 88.2059 18.414 88.2059 18.3457V17.3733ZM90.4687 30.7932V31.8045C90.4687 31.9705 90.4228 32.1247 90.3309 32.2684C90.2391 32.412 90.1108 32.5309 89.9448 32.6263L89.6257 32.8099C89.4574 32.9065 89.3279 32.9371 89.2361 32.9006C89.1442 32.8641 89.0995 32.7617 89.0995 32.5933V31.582C89.0995 31.4137 89.1454 31.2594 89.2361 31.117C89.3279 30.9745 89.4574 30.8556 89.6257 30.7579L89.9448 30.5742C90.1108 30.4789 90.2391 30.4495 90.3309 30.4871C90.4228 30.526 90.4687 30.6272 90.4687 30.7932ZM90.066 31.0452C90.066 30.9769 90.0519 30.9368 90.0248 30.9239C89.9966 30.9109 89.9495 30.9251 89.8812 30.9639L89.6928 31.0722C89.6246 31.1123 89.5763 31.1535 89.5492 31.1982C89.5221 31.2429 89.508 31.2995 89.508 31.3677V32.3402C89.508 32.4085 89.5221 32.4485 89.5492 32.4614C89.5763 32.4744 89.6246 32.4614 89.6928 32.4214L89.8812 32.3131C89.9495 32.2742 89.9966 32.2319 90.0248 32.1871C90.0519 32.1424 90.066 32.0859 90.066 32.0176V31.0452ZM60.064 64.6838V65.6951C60.064 65.8611 60.0181 66.0153 59.9275 66.159C59.8356 66.3026 59.7073 66.4215 59.5413 66.5169L59.2223 66.7005C59.0539 66.7971 58.9244 66.8277 58.8326 66.7912C58.7407 66.7547 58.696 66.6523 58.696 66.4839V65.4726C58.696 65.3043 58.7419 65.15 58.8326 65.0076C58.9244 64.8651 59.0539 64.7462 59.2223 64.6485L59.5413 64.4648C59.7073 64.3695 59.8356 64.3401 59.9275 64.3777C60.0181 64.4166 60.064 64.5178 60.064 64.6838ZM59.6626 64.9346C59.6626 64.8663 59.6484 64.8263 59.6214 64.8133C59.5931 64.8004 59.546 64.8133 59.4777 64.8533L59.2894 64.9617C59.2211 65.0005 59.1728 65.0429 59.1457 65.0876C59.1187 65.1324 59.1045 65.1889 59.1045 65.2572V66.2296C59.1045 66.2979 59.1187 66.3379 59.1457 66.3509C59.1728 66.3638 59.2211 66.3509 59.2894 66.3108L59.4777 66.2025C59.546 66.1637 59.5931 66.1213 59.6214 66.0766C59.6484 66.0318 59.6626 65.9753 59.6626 65.907V64.9346ZM34.4662 41.6396V42.6509C34.4662 42.8169 34.4203 42.9711 34.3285 43.1147C34.2367 43.2584 34.1083 43.3773 33.9423 43.4726L33.6233 43.6574C33.4549 43.754 33.3254 43.7846 33.2336 43.7481C33.1418 43.7116 33.0971 43.6092 33.0971 43.4408V42.4295C33.0971 42.2612 33.143 42.107 33.2336 41.9645C33.3254 41.8221 33.4549 41.7032 33.6233 41.6054L33.9423 41.4218C34.1083 41.3264 34.2367 41.297 34.3285 41.3347C34.4203 41.3723 34.4662 41.4736 34.4662 41.6396ZM34.0636 41.8915C34.0636 41.8232 34.0495 41.7832 34.0224 41.7703C33.9941 41.7573 33.9471 41.7714 33.8788 41.8103L33.6904 41.9186C33.6221 41.9574 33.5739 41.9998 33.5468 42.0446C33.5185 42.0893 33.5056 42.1458 33.5056 42.2141V43.1865C33.5056 43.2548 33.5197 43.2948 33.5468 43.3078C33.5739 43.3207 33.6221 43.3078 33.6904 43.2678L33.8788 43.1595C33.9471 43.1206 33.9941 43.0782 34.0224 43.0335C34.0495 42.9888 34.0636 42.9322 34.0636 42.864V41.8915ZM84.2985 25.705V26.7163C84.2985 26.8823 84.2526 27.0365 84.1608 27.1801C84.0689 27.3238 83.9406 27.4427 83.7746 27.538L83.4556 27.7217C83.2872 27.8182 83.1577 27.8488 83.0659 27.8123C82.9741 27.7758 82.9293 27.6734 82.9293 27.505V26.4938C82.9293 26.3254 82.9752 26.1712 83.0659 26.0287C83.1577 25.8863 83.2872 25.7674 83.4556 25.6697L83.7746 25.4848C83.9406 25.3895 84.0689 25.36 84.1608 25.3977C84.2526 25.4377 84.2985 25.539 84.2985 25.705ZM83.8959 25.9569C83.8959 25.8886 83.8817 25.8486 83.8547 25.8357C83.8264 25.8227 83.7793 25.8357 83.711 25.8757L83.5227 25.984C83.4544 26.024 83.4061 26.0652 83.379 26.11C83.352 26.1547 83.3378 26.2112 83.3378 26.2795V27.2519C83.3378 27.3202 83.352 27.3602 83.379 27.3732C83.4061 27.3861 83.4544 27.3732 83.5227 27.3332L83.711 27.2249C83.7793 27.186 83.8264 27.1436 83.8547 27.0989C83.8817 27.0542 83.8959 26.9976 83.8959 26.9294V25.9569ZM76.9334 67.308V68.3193C76.9334 68.4853 76.8875 68.6395 76.7956 68.7831C76.7038 68.9268 76.5755 69.0457 76.4095 69.1422L76.0905 69.3259C75.9221 69.4224 75.7926 69.453 75.7008 69.4165C75.6089 69.38 75.563 69.2776 75.563 69.1093V68.098C75.563 67.9296 75.6089 67.7742 75.7008 67.6329C75.7926 67.4905 75.9221 67.3716 76.0905 67.2739L76.4095 67.0902C76.5755 66.9949 76.7038 66.9654 76.7956 67.0031C76.8875 67.0408 76.9334 67.142 76.9334 67.308ZM76.5319 67.5588C76.5319 67.4905 76.5178 67.4505 76.4907 67.4375C76.4637 67.4246 76.4154 67.4387 76.3471 67.4775L76.1587 67.5858C76.0905 67.6259 76.0422 67.6671 76.0151 67.7118C75.988 67.7566 75.9739 67.8131 75.9739 67.8813V68.8538C75.9739 68.9221 75.988 68.9621 76.0151 68.975C76.0422 68.988 76.0905 68.9751 76.1587 68.935L76.3471 68.8267C76.4154 68.7878 76.4625 68.7455 76.4907 68.7007C76.5178 68.656 76.5319 68.5995 76.5319 68.5312V67.5588ZM37.1881 90.5041V91.5154C37.1881 91.6814 37.1422 91.8356 37.0504 91.9793C36.9586 92.1229 36.8302 92.2418 36.6642 92.3372L36.3452 92.5208C36.1768 92.6185 36.0473 92.648 35.9555 92.6115C35.8637 92.575 35.8189 92.4725 35.8189 92.3042V91.2929C35.8189 91.1246 35.8649 90.9691 35.9555 90.8279C36.0473 90.6854 36.1768 90.5665 36.3452 90.4688L36.6642 90.2851C36.8302 90.1898 36.9586 90.1603 37.0504 90.198C37.1422 90.2369 37.1881 90.3393 37.1881 90.5041ZM36.7867 90.7561C36.7867 90.6878 36.7725 90.6478 36.7455 90.6348C36.7172 90.6218 36.6701 90.6348 36.6018 90.6748L36.4135 90.7831C36.3452 90.822 36.2969 90.8644 36.2698 90.9091C36.2416 90.9538 36.2286 91.0104 36.2286 91.0786V92.0511C36.2286 92.1194 36.2428 92.1594 36.2698 92.1723C36.2969 92.1853 36.3452 92.1723 36.4135 92.1323L36.6018 92.024C36.6701 91.9852 36.7172 91.9428 36.7455 91.898C36.7725 91.8533 36.7867 91.7968 36.7867 91.7297V90.7561ZM83.7028 41.3288V42.3401C83.7028 42.5061 83.6569 42.6603 83.5651 42.8039C83.4732 42.9475 83.3449 43.0665 83.1789 43.1618L82.8599 43.3455C82.6915 43.442 82.562 43.4726 82.4702 43.4361C82.3783 43.3996 82.3336 43.2972 82.3336 43.1288V42.1176C82.3336 41.9492 82.3795 41.7938 82.4702 41.6525C82.562 41.5101 82.6915 41.3912 82.8599 41.2935L83.1789 41.1098C83.3449 41.0144 83.4732 40.985 83.5651 41.0227C83.6569 41.0615 83.7028 41.1628 83.7028 41.3288ZM83.3002 41.5807C83.3002 41.5124 83.286 41.4724 83.259 41.4595C83.2307 41.4465 83.1836 41.4606 83.1153 41.4995L82.927 41.6078C82.8587 41.6466 82.8104 41.689 82.7833 41.7338C82.7563 41.7785 82.7421 41.835 82.7421 41.9033V42.8757C82.7421 42.944 82.7563 42.984 82.7833 42.997C82.8104 43.0099 82.8587 42.997 82.927 42.957L83.1153 42.8487C83.1836 42.8098 83.2307 42.7674 83.259 42.7227C83.286 42.6779 83.3002 42.6214 83.3002 42.5532V41.5807ZM87.7845 73.019V74.0303C87.7845 74.1963 87.7385 74.3505 87.6467 74.4942C87.5549 74.6378 87.4266 74.7567 87.2606 74.8532L86.9415 75.0369C86.7732 75.1334 86.6437 75.164 86.5518 75.1276C86.46 75.0911 86.4153 74.9886 86.4153 74.8203V73.809C86.4153 73.6406 86.4612 73.4852 86.5518 73.344C86.6437 73.2015 86.7732 73.0826 86.9415 72.9849L87.2606 72.8012C87.4266 72.7059 87.5549 72.6764 87.6467 72.7141C87.7385 72.7518 87.7845 72.853 87.7845 73.019ZM87.3818 73.2698C87.3818 73.2015 87.3677 73.1615 87.3406 73.1485C87.3124 73.1356 87.2653 73.1497 87.197 73.1886L87.0086 73.2969C86.9403 73.3357 86.8921 73.3781 86.865 73.4228C86.8379 73.4676 86.8238 73.5241 86.8238 73.5924V74.566C86.8238 74.6343 86.8379 74.6743 86.865 74.6872C86.8921 74.7002 86.9403 74.6872 87.0086 74.6472L87.197 74.5389C87.2653 74.5001 87.3124 74.4577 87.3406 74.4129C87.3677 74.3682 87.3818 74.3117 87.3818 74.2434V73.2698ZM49.4684 20.9264V21.9377C49.4684 22.1037 49.4225 22.2579 49.3307 22.4015C49.2389 22.5451 49.1105 22.664 48.9445 22.7606L48.6255 22.9442C48.4571 23.0408 48.3276 23.0714 48.2358 23.0349C48.144 22.9984 48.0992 22.896 48.0992 22.7276V21.7163C48.0992 21.548 48.1452 21.3937 48.2358 21.2513C48.3276 21.1088 48.4571 20.9899 48.6255 20.8922L48.9445 20.7086C49.1105 20.6132 49.2389 20.5838 49.3307 20.6214C49.4225 20.6591 49.4684 20.7604 49.4684 20.9264ZM49.0658 21.1783C49.0658 21.11 49.0517 21.07 49.0246 21.057C48.9963 21.0441 48.9492 21.057 48.881 21.0971L48.6926 21.2054C48.6243 21.2454 48.576 21.2866 48.549 21.3314C48.5219 21.3761 48.5078 21.4326 48.5078 21.5009V22.4733C48.5078 22.5416 48.5219 22.5816 48.549 22.5946C48.576 22.6075 48.6243 22.5946 48.6926 22.5546L48.881 22.4462C48.9492 22.4074 48.9963 22.365 49.0246 22.3203C49.0517 22.2755 49.0658 22.219 49.0658 22.1507V21.1783ZM70.5902 39.7265V40.7378C70.5902 40.9038 70.5442 41.058 70.4524 41.2016C70.3606 41.3453 70.2323 41.4642 70.0663 41.5607L69.7472 41.7444C69.5789 41.8409 69.4494 41.8715 69.3575 41.835C69.2657 41.7985 69.2198 41.6961 69.2198 41.5277V40.5164C69.2198 40.3481 69.2657 40.1939 69.3575 40.0514C69.4494 39.909 69.5789 39.7901 69.7472 39.6923L70.0663 39.5075C70.2323 39.4121 70.3606 39.3827 70.4524 39.4204C70.5454 39.4592 70.5902 39.5605 70.5902 39.7265ZM70.1887 39.9784C70.1887 39.9101 70.1746 39.8701 70.1475 39.8572C70.1192 39.8442 70.0722 39.8572 70.0039 39.8972L69.8155 40.0055C69.7472 40.0455 69.7001 40.0867 69.6719 40.1315C69.6448 40.1762 69.6307 40.2327 69.6307 40.301V41.2734C69.6307 41.3417 69.6448 41.3818 69.6719 41.3947C69.699 41.4077 69.7472 41.3947 69.8155 41.3547L70.0039 41.2464C70.0722 41.2075 70.1192 41.1651 70.1475 41.1204C70.1746 41.0757 70.1887 41.0191 70.1887 40.9509V39.9784ZM89.1301 95.3593V96.3706C89.1301 96.5366 89.0842 96.6908 88.9924 96.8344C88.9005 96.978 88.7722 97.0969 88.6062 97.1935L88.2872 97.3771C88.1188 97.4737 87.9893 97.5043 87.8975 97.4678C87.8056 97.4313 87.7609 97.3289 87.7609 97.1605V96.1492C87.7609 95.9809 87.8068 95.8266 87.8975 95.6842C87.9893 95.5417 88.1188 95.4228 88.2872 95.3251L88.6062 95.1415C88.7722 95.0461 88.9005 95.0167 88.9924 95.0543C89.0842 95.092 89.1301 95.1933 89.1301 95.3593ZM88.7286 95.61C88.7286 95.5417 88.7145 95.5017 88.6874 95.4888C88.6592 95.4758 88.6121 95.4899 88.5438 95.5288L88.3554 95.6371C88.2872 95.676 88.2389 95.7183 88.2118 95.7631C88.1847 95.8078 88.1706 95.8643 88.1706 95.9326V96.905C88.1706 96.9733 88.1847 97.0134 88.2118 97.0263C88.2389 97.0392 88.2872 97.0263 88.3554 96.9863L88.5438 96.878C88.6121 96.8391 88.6592 96.7967 88.6874 96.752C88.7145 96.7073 88.7286 96.6507 88.7286 96.5825V95.61ZM72.4938 73.1697V74.181C72.4938 74.347 72.4479 74.5012 72.3573 74.6449C72.2654 74.7885 72.1371 74.9074 71.9711 75.0028L71.6521 75.1864C71.4837 75.283 71.3542 75.3136 71.2624 75.2771C71.1706 75.2406 71.1246 75.1381 71.1246 74.9698V73.9585C71.1246 73.7902 71.1706 73.6348 71.2624 73.4935C71.3542 73.351 71.4837 73.2321 71.6521 73.1344L71.9711 72.9507C72.1371 72.8554 72.2654 72.826 72.3573 72.8636C72.4479 72.9025 72.4938 73.0037 72.4938 73.1697ZM72.0924 73.4217C72.0924 73.3534 72.0783 73.3133 72.0512 73.3004C72.0229 73.2874 71.9758 73.3016 71.9075 73.3404L71.7192 73.4487C71.6509 73.4876 71.6026 73.53 71.5756 73.5747C71.5485 73.6194 71.5343 73.6759 71.5343 73.7442V74.7178C71.5343 74.7861 71.5485 74.8262 71.5756 74.8391C71.6026 74.8521 71.6509 74.8391 71.7192 74.7991L71.9075 74.6908C71.9758 74.6519 72.0229 74.6096 72.0512 74.5648C72.0783 74.5201 72.0924 74.4636 72.0924 74.3953V73.4217ZM68.172 46.0685V47.0798C68.172 47.2458 68.1261 47.4 68.0343 47.5437C67.9424 47.6873 67.8141 47.8062 67.6481 47.9016L67.3291 48.0852C67.1607 48.1829 67.0312 48.2124 66.9394 48.1759C66.8476 48.1394 66.8016 48.037 66.8016 47.8686V46.8573C66.8016 46.689 66.8476 46.5347 66.9394 46.3923C67.0312 46.2498 67.1607 46.1309 67.3291 46.0332L67.6481 45.8496C67.8141 45.7542 67.9424 45.7248 68.0343 45.7624C68.1261 45.8013 68.172 45.9025 68.172 46.0685ZM67.7705 46.3205C67.7705 46.2522 67.7564 46.2122 67.7293 46.1992C67.7011 46.1863 67.654 46.1992 67.5857 46.2393L67.3974 46.3476C67.3291 46.3864 67.282 46.4288 67.2537 46.4735C67.2255 46.5183 67.2125 46.5748 67.2125 46.643V47.6155C67.2125 47.6838 67.2266 47.7238 67.2537 47.7368C67.2808 47.7497 67.3291 47.7368 67.3974 47.6967L67.5857 47.5884C67.654 47.5496 67.7011 47.5072 67.7293 47.4624C67.7564 47.4177 67.7705 47.3612 67.7705 47.2929V46.3205ZM47.3022 45.4057V46.417C47.3022 46.583 47.2563 46.7372 47.1645 46.8809C47.0726 47.0245 46.9443 47.1434 46.7783 47.2388L46.4593 47.4224C46.2909 47.519 46.1614 47.5496 46.0696 47.5131C45.9778 47.4766 45.9318 47.3742 45.9318 47.2058V46.1945C45.9318 46.0262 45.9778 45.8719 46.0696 45.7295C46.1614 45.587 46.2909 45.4681 46.4593 45.3704L46.7783 45.1867C46.9443 45.0914 47.0726 45.062 47.1645 45.0996C47.2563 45.1385 47.3022 45.2397 47.3022 45.4057ZM46.9008 45.6565C46.9008 45.5882 46.8866 45.5482 46.8596 45.5352C46.8313 45.5223 46.7842 45.5352 46.7159 45.5752L46.5276 45.6836C46.4593 45.7224 46.4122 45.7648 46.3839 45.8095C46.3569 45.8543 46.3427 45.9108 46.3427 45.9791V46.9515C46.3427 47.0198 46.3569 47.0598 46.3839 47.0728C46.411 47.0857 46.4593 47.0728 46.5276 47.0327L46.7159 46.9244C46.7842 46.8856 46.8313 46.8432 46.8596 46.7985C46.8866 46.7537 46.9008 46.6972 46.9008 46.6289V45.6565ZM36.6395 22.5569V23.5682C36.6395 23.7342 36.5936 23.8884 36.5018 24.0321C36.4099 24.1757 36.2816 24.2946 36.1156 24.3899L35.7966 24.5748C35.6282 24.6713 35.4987 24.7019 35.4069 24.6654C35.3151 24.6289 35.2703 24.5265 35.2703 24.3582V23.3469C35.2703 23.1785 35.3162 23.0243 35.4069 22.8818C35.4987 22.7394 35.6282 22.6205 35.7966 22.5228L36.1156 22.3391C36.2816 22.2437 36.4099 22.2143 36.5018 22.252C36.5936 22.2897 36.6395 22.3909 36.6395 22.5569ZM36.2369 22.8077C36.2369 22.7394 36.2227 22.6994 36.1957 22.6864C36.1674 22.6735 36.1203 22.6864 36.052 22.7264L35.8637 22.8348C35.7954 22.8736 35.7471 22.916 35.72 22.9607C35.693 23.0055 35.6788 23.062 35.6788 23.1302V24.1027C35.6788 24.171 35.693 24.211 35.72 24.224C35.7471 24.2369 35.7954 24.2239 35.8637 24.1839L36.052 24.0756C36.1203 24.0368 36.1674 23.9944 36.1957 23.9496C36.2227 23.9049 36.2369 23.8484 36.2369 23.7801V22.8077ZM71.3354 90.0438V91.0551C71.3354 91.2211 71.2895 91.3753 71.1988 91.519C71.107 91.6626 70.9787 91.7815 70.8127 91.8768L70.4936 92.0605C70.3253 92.157 70.1958 92.1876 70.1039 92.1511C70.0121 92.1146 69.9662 92.0122 69.9662 91.8439V90.8326C69.9662 90.6642 70.0121 90.5088 70.1039 90.3675C70.1958 90.2251 70.3253 90.1062 70.4936 90.0085L70.8127 89.8248C70.9787 89.7295 71.107 89.7 71.1988 89.7377C71.2895 89.7766 71.3354 89.8778 71.3354 90.0438ZM70.9339 90.2946C70.9339 90.2263 70.9198 90.1863 70.8927 90.1733C70.8645 90.1604 70.8174 90.1745 70.7491 90.2133L70.5607 90.3216C70.4924 90.3605 70.4454 90.4029 70.4171 90.4476C70.3888 90.4923 70.3759 90.5489 70.3759 90.6171V91.5908C70.3759 91.659 70.39 91.6991 70.4171 91.712C70.4442 91.725 70.4924 91.712 70.5607 91.672L70.7491 91.5637C70.8174 91.5248 70.8645 91.4825 70.8927 91.4377C70.9198 91.393 70.9339 91.3365 70.9339 91.2682V90.2946ZM92.0098 37.8593V38.8706C92.0098 39.0366 91.9638 39.1908 91.872 39.3344C91.7802 39.4781 91.6519 39.597 91.4859 39.6923L91.1668 39.876C90.9985 39.9725 90.869 40.0032 90.7771 39.9667C90.6853 39.9302 90.6394 39.8277 90.6394 39.6594V38.6481C90.6394 38.4797 90.6853 38.3255 90.7771 38.1831C90.869 38.0406 90.9985 37.9217 91.1668 37.824L91.4859 37.6403C91.6519 37.545 91.7802 37.5155 91.872 37.5532C91.9638 37.5921 92.0098 37.6933 92.0098 37.8593ZM91.6071 38.1112C91.6071 38.043 91.593 38.0029 91.5659 37.99C91.5377 37.977 91.4906 37.99 91.4223 38.03L91.2339 38.1383C91.1656 38.1772 91.1185 38.2196 91.0903 38.2643C91.0632 38.309 91.0491 38.3655 91.0491 38.4338V39.4063C91.0491 39.4745 91.0632 39.5146 91.0903 39.5275C91.1174 39.5405 91.1656 39.5275 91.2339 39.4875L91.4223 39.3792C91.4906 39.3403 91.5377 39.298 91.5659 39.2532C91.593 39.2085 91.6071 39.152 91.6071 39.0837V38.1112ZM45.76 90.6383V91.6496C45.76 91.8156 45.7141 91.9698 45.6234 92.1135C45.5316 92.2571 45.4032 92.376 45.2372 92.4714L44.9182 92.655C44.7499 92.7516 44.6204 92.7822 44.5285 92.7457C44.4367 92.7092 44.392 92.6068 44.392 92.4384V91.4271C44.392 91.2588 44.4379 91.1034 44.5285 90.9621C44.6204 90.8196 44.7499 90.7007 44.9182 90.603L45.2372 90.4194C45.4032 90.324 45.5316 90.2946 45.6234 90.3322C45.7141 90.3711 45.76 90.4723 45.76 90.6383ZM45.3585 90.8903C45.3585 90.822 45.3444 90.782 45.3173 90.769C45.289 90.7561 45.242 90.7702 45.1737 90.809L44.9853 90.9174C44.917 90.9562 44.8688 90.9986 44.8417 91.0433C44.8146 91.0881 44.8005 91.1446 44.8005 91.2128V92.1865C44.8005 92.2548 44.8146 92.2948 44.8417 92.3077C44.8688 92.3207 44.917 92.3077 44.9853 92.2677L45.1737 92.1594C45.242 92.1205 45.289 92.0782 45.3173 92.0334C45.3444 91.9887 45.3585 91.9322 45.3585 91.8639V90.8903ZM93.3354 80.3312V81.3425C93.3354 81.5085 93.2895 81.6627 93.1976 81.8063C93.1058 81.95 92.9775 82.0689 92.8115 82.1642L92.4924 82.3479C92.3241 82.4456 92.1946 82.475 92.1027 82.4385C92.0109 82.402 91.9662 82.2996 91.9662 82.1313V81.1199C91.9662 80.9516 92.0121 80.7974 92.1027 80.6549C92.1946 80.5125 92.3241 80.3936 92.4924 80.2959L92.8115 80.1122C92.9775 80.0168 93.1058 79.9874 93.1976 80.0251C93.2895 80.0639 93.3354 80.1652 93.3354 80.3312ZM92.9339 80.5831C92.9339 80.5148 92.9198 80.4748 92.8927 80.4619C92.8645 80.4489 92.8174 80.4619 92.7491 80.5019L92.5607 80.6102C92.4924 80.649 92.4442 80.6914 92.4171 80.7362C92.39 80.7809 92.3759 80.8374 92.3759 80.9057V81.8781C92.3759 81.9464 92.39 81.9865 92.4171 81.9994C92.4442 82.0123 92.4924 81.9994 92.5607 81.9594L92.7491 81.8511C92.8174 81.8122 92.8645 81.7698 92.8927 81.7251C92.9198 81.6804 92.9339 81.6238 92.9339 81.5555V80.5831ZM82.4054 62.7731V63.7844C82.4054 63.9504 82.3595 64.1046 82.2677 64.2482C82.1759 64.3919 82.0475 64.5108 81.8815 64.6061L81.5625 64.7898C81.3941 64.8863 81.2646 64.9169 81.1728 64.8804C81.081 64.8439 81.0362 64.7415 81.0362 64.5732V63.5619C81.0362 63.3935 81.0822 63.2381 81.1728 63.0968C81.2646 62.9544 81.3941 62.8355 81.5625 62.7378L81.8815 62.5541C82.0475 62.4587 82.1759 62.4293 82.2677 62.467C82.3595 62.5058 82.4054 62.6071 82.4054 62.7731ZM82.004 63.0238C82.004 62.9556 81.9898 62.9155 81.9628 62.9026C81.9345 62.8896 81.8874 62.9026 81.8191 62.9426L81.6308 63.0509C81.5625 63.0898 81.5142 63.1322 81.4871 63.1769C81.4601 63.2216 81.4459 63.2781 81.4459 63.3464V64.32C81.4459 64.3883 81.4601 64.4284 81.4871 64.4413C81.5142 64.4543 81.5625 64.4413 81.6308 64.4013L81.8191 64.293C81.8874 64.2541 81.9345 64.2117 81.9628 64.167C81.9898 64.1223 82.004 64.0657 82.004 63.9986V63.0238ZM64.2976 38.1525V39.1637C64.2976 39.3297 64.2516 39.484 64.1598 39.6276C64.068 39.7712 63.9397 39.8901 63.7737 39.9855L63.4546 40.1691C63.2863 40.2657 63.1568 40.2963 63.0649 40.2598C62.9731 40.2233 62.9284 40.1209 62.9284 39.9525V38.9412C62.9284 38.7729 62.9743 38.6187 63.0649 38.4762C63.1568 38.3337 63.2863 38.2148 63.4546 38.1171L63.7737 37.9335C63.9397 37.8381 64.068 37.8087 64.1598 37.8464C64.2516 37.8852 64.2976 37.9865 64.2976 38.1525ZM63.8949 38.4044C63.8949 38.3361 63.8808 38.2961 63.8537 38.2831C63.8255 38.2702 63.7784 38.2843 63.7101 38.3232L63.5217 38.4315C63.4534 38.4715 63.4052 38.5127 63.3781 38.5574C63.3498 38.6022 63.3369 38.6587 63.3369 38.727V39.6994C63.3369 39.7677 63.351 39.8077 63.3781 39.8207C63.4052 39.8336 63.4534 39.8207 63.5217 39.7806L63.7101 39.6723C63.7784 39.6335 63.8255 39.5911 63.8537 39.5464C63.8808 39.5016 63.8949 39.4451 63.8949 39.3768V38.4044ZM87.9151 64.9122V65.9235C87.9151 66.0895 87.8692 66.2437 87.7774 66.3874C87.6856 66.531 87.5572 66.6499 87.3912 66.7453L87.0722 66.9289C86.9039 67.0254 86.7743 67.0561 86.6825 67.0196C86.5907 66.9831 86.546 66.8807 86.546 66.7123V65.701C86.546 65.5326 86.5919 65.3784 86.6825 65.236C86.7743 65.0935 86.9039 64.9746 87.0722 64.8769L87.3912 64.6932C87.5572 64.5979 87.6856 64.5685 87.7774 64.6061C87.8692 64.645 87.9151 64.7462 87.9151 64.9122ZM87.5137 65.163C87.5137 65.0947 87.4996 65.0547 87.4725 65.0417C87.4442 65.0288 87.3971 65.0417 87.3288 65.0817L87.1405 65.1901C87.0722 65.2289 87.0239 65.2713 86.9969 65.316C86.9698 65.3608 86.9557 65.4173 86.9557 65.4856V66.458C86.9557 66.5263 86.9698 66.5663 86.9969 66.5793C87.0239 66.5922 87.0722 66.5793 87.1405 66.5392L87.3288 66.4309C87.3971 66.3921 87.4442 66.3497 87.4725 66.3049C87.4996 66.2602 87.5137 66.2037 87.5137 66.1354V65.163ZM40.6964 45.3869V46.3982C40.6964 46.5642 40.6505 46.7184 40.5599 46.862C40.4681 47.0057 40.3397 47.1246 40.1737 47.2199L39.8547 47.4036C39.6863 47.5001 39.5568 47.5307 39.465 47.4942C39.3732 47.4577 39.3284 47.3553 39.3284 47.187V46.1757C39.3284 46.0073 39.3744 45.8531 39.465 45.7106C39.5568 45.5682 39.6863 45.4493 39.8547 45.3516L40.1737 45.1679C40.3397 45.0726 40.4681 45.0431 40.5599 45.0808C40.6505 45.1185 40.6964 45.2197 40.6964 45.3869ZM40.2938 45.6377C40.2938 45.5694 40.2797 45.5293 40.2526 45.5164C40.2244 45.5034 40.1773 45.5164 40.109 45.5564L39.9206 45.6647C39.8523 45.7036 39.8041 45.746 39.777 45.7907C39.7499 45.8354 39.7358 45.892 39.7358 45.9602V46.9338C39.7358 47.0021 39.7499 47.0422 39.777 47.0551C39.8041 47.0681 39.8523 47.0551 39.9206 47.0151L40.109 46.9068C40.1773 46.8679 40.2244 46.8255 40.2526 46.7808C40.2797 46.7361 40.2938 46.6796 40.2938 46.6113V45.6377ZM99.1053 53.914V54.9253C99.1053 55.0913 99.0593 55.2455 98.9675 55.3891C98.8757 55.5328 98.7474 55.6517 98.5814 55.747L98.2623 55.9307C98.094 56.0284 97.9645 56.0578 97.8726 56.0213C97.7808 55.9848 97.7349 55.8824 97.7349 55.7141V54.7028C97.7349 54.5344 97.7808 54.3802 97.8726 54.2377C97.9645 54.0953 98.094 53.9764 98.2623 53.8787L98.5814 53.695C98.7474 53.5997 98.8757 53.5702 98.9675 53.6079C99.0593 53.6467 99.1053 53.748 99.1053 53.914ZM98.7038 54.1648C98.7038 54.0965 98.6897 54.0564 98.6626 54.0435C98.6344 54.0305 98.5873 54.0435 98.519 54.0835L98.3306 54.1918C98.2623 54.2307 98.2152 54.2731 98.187 54.3178C98.1599 54.3625 98.1458 54.419 98.1458 54.4873V55.4609C98.1458 55.5292 98.1599 55.5693 98.187 55.5822C98.2141 55.5952 98.2623 55.5822 98.3306 55.5422L98.519 55.4339C98.5873 55.395 98.6344 55.3526 98.6626 55.3079C98.6897 55.2632 98.7038 55.2066 98.7038 55.1384V54.1648Z" fill="url(#paint3_linear_9_494)"/>
<defs>
<linearGradient id="paint0_linear_9_494" x1="29.2893" y1="134.303" x2="102" y2="134.303" gradientUnits="userSpaceOnUse">
<stop stop-color="#CBC7BC"/>
<stop offset="1" stop-color="#EEE8DE"/>
</linearGradient>
<linearGradient id="paint1_linear_9_494" x1="29.2893" y1="118.605" x2="102" y2="118.605" gradientUnits="userSpaceOnUse">
<stop stop-color="#CBC7BC"/>
<stop offset="1" stop-color="#EEE8DE"/>
</linearGradient>
<linearGradient id="paint2_linear_9_494" x1="29.2893" y1="102.908" x2="102" y2="102.908" gradientUnits="userSpaceOnUse">
<stop stop-color="#CBC7BC"/>
<stop offset="1" stop-color="#EEE8DE"/>
</linearGradient>
<linearGradient id="paint3_linear_9_494" x1="65.6573" y1="104.767" x2="65.6573" y2="7.05084" gradientUnits="userSpaceOnUse">
<stop stop-color="#DDFF00"/>
<stop offset="1" stop-color="white"/>
</linearGradient>
</defs>
</svg>
