<svg width="35" height="23" viewBox="0 0 35 23" fill="none" xmlns="http://www.w3.org/2000/svg">
<path fill-rule="evenodd" clip-rule="evenodd" d="M22.7139 3.74579H31.6168V1.16797H22.7139V3.74579ZM27.1024 8.92304C25.1164 8.92304 23.6081 10.1671 23.4628 12.4658H30.5879C30.105 9.73768 28.9064 8.92304 27.1024 8.92304ZM27.3806 19.5851C29.2144 19.5851 30.5599 18.4138 30.8347 17.4271H34.6912C33.5888 20.9958 31.3123 23 27.2249 23C22.0088 23 19.0814 19.2489 19.0814 14.2713C19.0814 2.54931 35.8093 2.12905 34.9694 15.3659H23.4628C23.5748 18.0538 24.6719 19.5851 27.3806 19.5851ZM10.0263 19.0693C12.1312 19.0693 13.6046 18.2506 13.6046 16.0414C13.6046 13.75 12.3027 12.7561 10.1172 12.7561H4.8434V19.0693H10.0263ZM9.74804 9.31006C11.4996 9.31006 12.7087 8.48569 12.7087 6.57069C12.7087 4.55338 11.3018 3.93066 9.37883 3.93066H4.8434V9.31006H9.74804ZM10.3657 0C14.5144 0 17.3981 1.38654 17.3981 5.70076C17.3981 7.83686 16.5494 9.42874 14.406 10.5014C17.1496 11.3255 18.448 13.4893 18.448 16.3326C18.448 20.846 14.9081 23 10.6737 23H0V0H10.3657Z" fill="white"/>
</svg>
