<svg width="10" height="18" viewBox="0 0 10 18" fill="none" xmlns="http://www.w3.org/2000/svg">
<path d="M9.38457 16.7689H9.36668C9.29511 16.7689 9.22647 16.7404 9.17587 16.6898C9.12526 16.6392 9.09683 16.5706 9.09682 16.499V11.6985C9.09678 11.6103 9.0778 11.5231 9.04115 11.4428C9.00451 11.3625 8.95106 11.2911 8.88442 11.2332L6.25911 8.95892L8.88442 6.68462C8.95106 6.62679 9.00451 6.55532 9.04115 6.47505C9.0778 6.39478 9.09678 6.30758 9.09682 6.21934V1.23113H9.38457C9.54782 1.23113 9.7044 1.16627 9.81984 1.05083C9.93528 0.935391 10.0001 0.77882 10.0001 0.615563C10.0001 0.452305 9.93528 0.295735 9.81984 0.180294C9.7044 0.0648538 9.54782 3.44039e-09 9.38457 0H1.25326C1.09 3.44039e-09 0.93343 0.0648538 0.817989 0.180294C0.702549 0.295735 0.637695 0.452305 0.637695 0.615563C0.637695 0.77882 0.702549 0.935391 0.817989 1.05083C0.93343 1.16627 1.09 1.23113 1.25326 1.23113H1.62237V6.21935C1.62242 6.30625 1.64083 6.39215 1.6764 6.47144C1.71197 6.55072 1.76389 6.6216 1.82876 6.67942L4.39234 8.95892L1.82875 11.2384C1.76388 11.2963 1.71196 11.3671 1.6764 11.4464C1.64083 11.5257 1.62242 11.6116 1.62237 11.6985V16.499C1.62236 16.5706 1.59393 16.6392 1.54332 16.6898C1.49271 16.7404 1.42408 16.7689 1.35251 16.7689H1.25327C1.09001 16.7689 0.93344 16.8337 0.818 16.9492C0.702559 17.0646 0.637705 17.2212 0.637705 17.3844C0.637705 17.5477 0.702559 17.7043 0.818 17.8197C0.93344 17.9351 1.09001 18 1.25327 18H9.38457C9.54782 18 9.7044 17.9351 9.81984 17.8197C9.93528 17.7043 10.0001 17.5477 10.0001 17.3844C10.0001 17.2212 9.93528 17.0646 9.81984 16.9492C9.7044 16.8337 9.54782 16.7689 9.38457 16.7689ZM2.85349 5.08696V1.23113H7.8657V5.09022C7.11631 5.56608 6.24683 5.81851 5.35912 5.81793C4.47141 5.81735 3.60226 5.56379 2.85349 5.08696ZM7.8657 13.9585C7.11649 13.483 6.24766 13.2301 5.36032 13.2292C4.47298 13.2283 3.60364 13.4795 2.85349 13.9535V11.975L5.32415 9.77808L7.8657 11.9798V13.9585Z" fill="#DDFF00"/>
</svg>
