<svg width="18" height="18" viewBox="0 0 18 18" fill="none" xmlns="http://www.w3.org/2000/svg">
<path d="M0.355344 1.29007C0.776258 1.49289 1.23121 1.6729 1.70102 1.84157L2.82955 6.22942C2.84881 6.30432 2.88458 6.37201 2.9333 6.42572C2.98201 6.47944 3.04195 6.5173 3.10714 6.53551C3.17233 6.55373 3.24047 6.55167 3.30476 6.52954C3.36905 6.5074 3.42723 6.46597 3.47349 6.40938L6.3711 2.86484C6.4013 2.86795 6.43052 2.87253 6.46076 2.87553L8.65719 7.9834C8.68904 8.05747 8.73793 8.11974 8.79838 8.16326C8.85883 8.20678 8.92847 8.22982 8.9995 8.22982C9.07053 8.22982 9.14017 8.20678 9.20062 8.16326C9.26107 8.11974 9.30996 8.05747 9.34181 7.9834L11.5383 2.87554C11.5685 2.87254 11.5978 2.86796 11.628 2.86485L14.5255 6.40938C14.5718 6.46597 14.6299 6.5074 14.6942 6.52954C14.7585 6.55167 14.8267 6.55373 14.8919 6.53551C14.957 6.5173 15.017 6.47944 15.0657 6.42572C15.1144 6.37201 15.1502 6.30432 15.1694 6.22942L16.298 1.84157C16.7678 1.6729 17.2228 1.49289 17.6437 1.29007C17.7135 1.25659 17.777 1.20737 17.8306 1.14523C17.8841 1.08309 17.9266 1.00925 17.9556 0.927928C17.9847 0.84661 17.9997 0.75941 17.9998 0.671317C18 0.583224 17.9852 0.495965 17.9564 0.414533C17.9276 0.333101 17.8853 0.259093 17.832 0.196742C17.7786 0.134392 17.7152 0.0849222 17.6455 0.0511632C17.5757 0.0174042 17.501 1.83738e-05 17.4255 1.45555e-08C17.3499 -1.83447e-05 17.2752 0.0173312 17.2054 0.0510563C15.0483 1.09026 12.1342 1.66264 8.99952 1.66264C5.86481 1.66264 2.95077 1.09026 0.793648 0.0510563C0.652804 -0.0167475 0.494639 -0.016505 0.353948 0.0517305C0.213258 0.119966 0.101565 0.250605 0.0434424 0.414908C-0.0146804 0.579212 -0.0144725 0.76372 0.0440203 0.927845C0.102513 1.09197 0.2145 1.22227 0.355344 1.29007Z" fill="#DDFF00"/>
<path d="M17.2052 9.8218C15.0477 10.8601 12.1333 11.4325 8.99933 11.4325C5.86537 11.4325 2.95094 10.8601 0.793451 9.8218C0.652698 9.75455 0.494829 9.75517 0.354461 9.8235C0.214093 9.89184 0.102683 10.0223 0.0446623 10.1863C-0.0133589 10.3504 -0.0132559 10.5345 0.0449486 10.6984C0.103153 10.8624 0.214708 10.9927 0.355152 11.0608C0.776115 11.2634 1.23101 11.4433 1.70083 11.6118L2.82936 15.9996C2.84863 16.0745 2.88441 16.1422 2.93312 16.1959C2.98184 16.2496 3.04178 16.2874 3.10697 16.3057C3.17215 16.3239 3.24029 16.3218 3.30457 16.2997C3.36886 16.2775 3.42704 16.2361 3.4733 16.1795L6.37113 12.6347C6.40119 12.6378 6.43022 12.6423 6.46037 12.6453L8.65699 17.7536C8.68884 17.8277 8.73773 17.8899 8.79818 17.9335C8.85863 17.977 8.92826 18 8.9993 18C9.07033 18 9.13996 17.977 9.20042 17.9335C9.26087 17.8899 9.30975 17.8277 9.3416 17.7536L11.5382 12.6453C11.5684 12.6423 11.5975 12.6378 11.6275 12.6347L14.5253 16.1795C14.5716 16.2361 14.6297 16.2775 14.694 16.2997C14.7583 16.3218 14.8265 16.3239 14.8916 16.3057C14.9568 16.2875 15.0168 16.2496 15.0655 16.1959C15.1142 16.1422 15.15 16.0745 15.1693 15.9996L16.2978 11.6118C16.7676 11.4433 17.2225 11.2634 17.6435 11.0608C17.7134 11.0273 17.7769 10.9781 17.8305 10.916C17.884 10.8539 17.9265 10.78 17.9556 10.6987C17.9846 10.6174 17.9997 10.5301 17.9998 10.442C17.9999 10.3539 17.9852 10.2666 17.9564 10.1852C17.9276 10.1037 17.8853 10.0297 17.8319 9.96736C17.7785 9.905 17.7152 9.85553 17.6454 9.82178C17.5756 9.78803 17.5008 9.77066 17.4253 9.77066C17.3498 9.77066 17.275 9.78804 17.2052 9.8218Z" fill="#DDFF00"/>
</svg>
